{"glyphs":{"0":{"ha":889,"x_min":0,"x_max":0,"o":"m 835 546 b 719 1013 835 776 800 918 b 444 1119 658 1083 567 1119 b 168 1013 321 1119 229 1083 b 53 546 88 918 53 776 b 168 79 53 315 88 174 b 444 -28 229 8 321 -28 b 719 79 567 -28 658 8 b 835 546 800 174 835 315 z m 579 546 b 540 224 579 372 569 274 b 444 172 517 188 486 172 b 347 224 403 172 369 188 b 308 546 318 274 308 372 b 347 868 308 719 318 819 b 444 919 369 904 403 919 b 540 868 486 919 517 904 b 579 546 569 819 579 719 z "},"1":{"ha":889,"x_min":0,"x_max":0,"o":"m 654 -8 l 654 1100 l 435 1100 l 171 978 l 171 765 l 397 867 l 397 -8 z "},"2":{"ha":889,"x_min":0,"x_max":0,"o":"m 804 785 b 440 1119 804 967 678 1119 b 76 785 206 1119 76 967 l 76 738 l 332 738 l 332 786 b 440 919 332 872 368 919 b 549 786 514 919 549 871 b 476 618 549 724 529 679 l 93 176 l 93 -8 l 821 -8 l 821 192 l 415 192 l 689 506 b 804 785 775 604 804 669 z "},"3":{"ha":889,"x_min":0,"x_max":0,"o":"m 440 172 b 314 317 360 172 314 224 l 314 340 l 60 340 l 60 306 b 440 -28 60 104 211 -28 b 822 306 669 -28 822 104 b 619 581 822 449 751 549 b 789 819 721 611 789 686 b 440 1119 789 994 658 1119 b 93 815 221 1119 93 996 l 93 785 l 340 785 l 340 804 b 440 919 340 878 378 919 b 540 804 503 919 540 878 b 411 674 540 710 489 674 l 326 674 l 326 476 l 411 476 b 567 317 519 476 567 433 b 440 172 567 224 521 172 z "},"4":{"ha":889,"x_min":0,"x_max":0,"o":"m 265 399 l 475 751 l 475 399 z m 843 399 l 728 399 l 728 1100 l 463 1100 l 44 399 l 44 199 l 475 199 l 475 -8 l 728 -8 l 728 199 l 843 199 z "},"5":{"ha":889,"x_min":0,"x_max":0,"o":"m 447 522 b 564 347 532 522 564 458 b 447 172 564 225 524 172 b 333 307 376 172 340 219 l 76 307 b 447 -28 89 101 217 -28 b 819 340 689 -28 819 114 b 526 711 819 594 697 711 b 367 647 454 711 399 685 l 381 900 l 764 900 l 764 1100 l 143 1100 l 115 464 l 353 464 b 447 522 369 497 400 522 z "},"6":{"ha":889,"x_min":0,"x_max":0,"o":"m 804 821 b 456 1119 790 1008 661 1119 b 68 517 192 1119 68 956 b 142 129 68 360 83 225 b 454 -28 207 22 317 -28 b 826 344 681 -28 826 117 b 508 711 826 578 685 711 b 321 619 425 711 356 676 b 451 926 325 842 363 926 b 551 821 514 926 546 892 z m 326 346 b 449 521 326 461 368 521 b 571 346 528 521 571 461 b 449 172 571 232 528 172 b 326 346 368 172 326 232 z "},"7":{"ha":889,"x_min":0,"x_max":0,"o":"m 83 900 l 547 900 l 199 -8 l 461 -8 l 806 917 l 806 1100 l 83 1100 z "},"8":{"ha":889,"x_min":0,"x_max":0,"o":"m 444 1119 b 81 821 218 1119 81 997 b 242 581 81 707 146 615 b 47 306 122 538 47 447 b 444 -28 47 100 203 -28 b 840 306 685 -28 840 100 b 646 581 840 447 765 538 b 808 821 742 615 808 707 b 444 1119 808 997 669 1119 z m 444 172 b 301 329 358 172 301 228 b 444 485 301 431 358 485 b 586 329 529 485 586 431 b 444 172 586 228 529 172 z m 444 676 b 329 797 372 676 329 721 b 444 919 329 874 372 919 b 557 797 515 919 557 874 b 444 676 557 721 515 676 z "},"9":{"ha":889,"x_min":0,"x_max":0,"o":"m 82 269 b 431 -28 96 83 225 -28 b 818 574 696 -28 818 135 b 744 961 818 731 803 865 b 433 1119 679 1069 569 1119 b 60 746 204 1119 60 975 b 378 381 60 513 201 381 b 565 471 463 381 531 414 b 433 164 563 249 524 164 b 335 269 372 164 340 199 z m 561 744 b 439 571 561 631 517 571 b 315 744 358 571 315 631 b 439 918 315 858 358 918 b 561 744 517 918 561 858 z "}," ":{"ha":411,"x_min":0,"x_max":0,"o":""},"!":{"ha":456,"x_min":0,"x_max":0,"o":"m 104 -8 l 350 -8 l 350 214 l 104 214 z m 124 336 l 332 336 l 350 942 l 350 1100 l 104 1100 l 104 942 z "},"\"":{"ha":653,"x_min":0,"x_max":0,"o":"m 365 754 l 567 754 l 567 1100 l 365 1100 z m 86 754 l 289 754 l 289 1100 l 86 1100 z "},"#":{"ha":1090,"x_min":0,"x_max":0,"o":"m 503 -8 l 725 -8 l 781 256 l 1000 256 l 1000 443 l 822 443 l 867 649 l 1054 649 l 1054 836 l 907 836 l 965 1100 l 743 1100 l 686 836 l 529 836 l 588 1100 l 367 1100 l 308 836 l 90 836 l 90 649 l 268 649 l 224 443 l 36 443 l 36 256 l 183 256 l 125 -8 l 347 -8 l 404 256 l 561 256 z m 490 649 l 646 649 l 600 443 l 446 443 z "},"$":{"ha":913,"x_min":0,"x_max":0,"o":"m 556 1240 l 324 1240 l 324 1107 b 50 793 147 1069 50 944 b 461 440 50 558 208 482 b 608 304 567 422 608 375 b 465 179 608 229 557 179 b 319 304 372 179 319 229 l 319 328 l 57 328 l 57 307 b 354 -17 57 140 164 17 l 354 -149 l 585 -149 l 585 -17 b 872 314 771 22 872 147 b 563 654 872 504 767 613 b 314 803 385 690 314 708 b 440 913 314 869 358 913 b 567 803 521 913 567 865 l 567 785 l 831 785 l 831 803 b 556 1107 831 944 732 1069 z "},"%":{"ha":1294,"x_min":0,"x_max":0,"o":"m 785 1100 l 331 -8 l 510 -8 l 964 1100 z m 244 819 b 306 971 244 938 261 971 b 367 819 351 971 367 938 b 306 669 367 703 351 669 b 244 819 261 669 244 703 z m 60 819 b 307 521 60 624 139 521 b 551 819 472 521 551 624 b 304 1119 551 1015 472 1119 b 60 819 139 1119 60 1015 z m 1051 272 b 989 121 1051 154 1035 121 b 928 272 944 121 928 154 b 989 422 928 389 944 422 b 1051 272 1035 422 1051 389 z m 1235 272 b 989 571 1235 468 1156 571 b 743 272 822 571 743 468 b 992 -28 743 76 822 -28 b 1235 272 1156 -28 1235 76 z "},"&":{"ha":1060,"x_min":0,"x_max":0,"o":"m 722 560 b 701 406 721 506 715 450 l 443 708 b 376 851 392 768 376 804 b 450 932 376 903 401 932 b 524 851 500 932 524 903 l 524 811 l 769 811 l 769 851 b 450 1119 769 1018 640 1119 b 131 851 261 1119 131 1018 b 235 610 131 769 161 699 b 243 597 238 606 240 601 b 53 299 119 532 53 429 b 436 -28 53 101 201 -28 b 711 63 543 -28 640 3 l 772 -8 l 1065 -8 l 868 218 b 965 560 925 314 958 431 z m 301 304 b 374 447 301 361 326 411 l 581 211 b 450 167 546 182 500 167 b 301 304 365 167 301 210 z "},"'":{"ha":375,"x_min":0,"x_max":0,"o":"m 86 754 l 289 754 l 289 1100 l 86 1100 z "},"(":{"ha":538,"x_min":0,"x_max":0,"o":"m 86 539 b 514 -178 86 -58 210 -178 l 514 13 b 332 539 393 13 332 46 b 514 1065 332 1033 393 1065 l 514 1257 b 86 539 210 1257 86 1138 z "},")":{"ha":538,"x_min":0,"x_max":0,"o":"m 453 539 b 24 1257 453 1138 328 1257 l 24 1065 b 206 539 144 1065 206 1033 b 24 13 206 46 144 13 l 24 -178 b 453 539 328 -178 453 -58 z "},"*":{"ha":822,"x_min":0,"x_max":0,"o":"m 42 606 l 275 508 l 42 410 l 140 238 l 342 390 l 311 140 l 510 140 l 476 390 l 679 238 l 779 410 l 544 508 l 779 606 l 679 776 l 476 624 l 510 875 l 311 875 l 342 624 l 140 776 z "},"+":{"ha":842,"x_min":0,"x_max":0,"o":"m 53 414 l 308 414 l 308 140 l 533 140 l 533 414 l 789 414 l 789 601 l 533 601 l 533 874 l 308 874 l 308 601 l 53 601 z "},",":{"ha":444,"x_min":0,"x_max":0,"o":"m 347 242 l 96 242 l 96 -8 l 221 -8 b 96 -112 221 -76 179 -110 l 96 -222 b 347 -8 257 -218 347 -131 z "},"-":{"ha":639,"x_min":0,"x_max":0,"o":"m 53 406 l 586 406 l 586 608 l 53 608 z "},".":{"ha":444,"x_min":0,"x_max":0,"o":"m 347 242 l 96 242 l 96 -8 l 347 -8 z "},"/":{"ha":772,"x_min":0,"x_max":0,"o":"m 772 1232 l 519 1232 l 0 -156 l 253 -156 z "},":":{"ha":444,"x_min":0,"x_max":0,"o":"m 347 783 l 96 783 l 96 533 l 347 533 z m 347 242 l 96 242 l 96 -8 l 347 -8 z "},";":{"ha":444,"x_min":0,"x_max":0,"o":"m 347 783 l 96 783 l 96 533 l 347 533 z m 347 242 l 96 242 l 96 -8 l 221 -8 b 96 -112 221 -76 179 -110 l 96 -222 b 347 -8 257 -218 347 -131 z "},"<":{"ha":836,"x_min":0,"x_max":0,"o":"m 64 411 l 774 132 l 774 350 l 333 508 l 774 665 l 774 885 l 64 606 z "},"=":{"ha":842,"x_min":0,"x_max":0,"o":"m 53 572 l 789 572 l 789 761 l 53 761 z m 53 254 l 789 254 l 789 443 l 53 443 z "},">":{"ha":836,"x_min":0,"x_max":0,"o":"m 774 606 l 64 885 l 64 665 l 503 508 l 64 350 l 64 132 l 774 411 z "},"?":{"ha":821,"x_min":0,"x_max":0,"o":"m 510 804 b 401 631 510 740 485 703 b 278 378 306 549 278 492 l 278 307 l 524 307 l 524 356 b 626 532 524 422 540 456 b 757 804 719 615 757 683 b 408 1119 757 988 639 1119 b 60 804 178 1119 60 988 l 60 783 l 307 783 l 307 804 b 408 919 307 876 343 919 b 510 804 474 919 510 876 z m 278 -8 l 524 -8 l 524 214 l 278 214 z "},"@":{"ha":1165,"x_min":0,"x_max":0,"o":"m 583 956 b 881 636 776 956 853 865 b 697 736 856 696 793 736 b 413 374 526 736 413 615 b 742 4 413 144 526 4 b 1089 414 965 4 1089 149 b 583 1119 1089 917 947 1119 b 76 406 218 1119 76 919 b 576 -307 76 -169 268 -307 b 808 -256 657 -307 742 -290 l 751 -104 b 583 -143 706 -132 644 -143 b 275 406 367 -143 275 -43 b 583 956 275 835 353 956 z m 621 369 b 756 568 621 506 661 568 b 890 369 850 568 890 506 b 756 172 890 233 850 172 b 621 369 661 172 621 233 z "},"A":{"ha":1004,"x_min":0,"x_max":0,"o":"m 278 -8 l 331 186 l 672 186 l 725 -8 l 993 -8 l 639 1100 l 363 1100 l 10 -8 z m 385 392 l 501 821 l 617 392 z "},"B":{"ha":944,"x_min":0,"x_max":0,"o":"m 615 776 b 476 653 615 686 568 653 l 339 653 l 339 901 l 476 901 b 615 776 568 901 615 868 z m 528 -8 b 904 317 775 -8 904 101 b 718 569 904 442 832 536 b 874 797 815 604 874 681 b 510 1100 874 996 751 1100 l 75 1100 l 75 -8 z m 640 329 b 496 190 640 232 594 190 l 339 190 l 339 468 l 496 468 b 640 329 594 468 640 428 z "},"C":{"ha":1001,"x_min":0,"x_max":0,"o":"m 53 546 b 167 115 53 371 82 221 b 508 -28 242 21 350 -28 b 953 378 785 -28 944 129 l 690 378 b 508 188 685 258 622 188 b 368 256 444 188 399 210 b 318 546 332 310 318 389 b 368 836 318 703 332 782 b 508 904 399 882 444 904 b 690 714 622 904 683 833 l 953 714 b 508 1119 944 963 785 1119 b 167 976 350 1119 242 1071 b 53 546 82 871 53 721 z "},"D":{"ha":996,"x_min":0,"x_max":0,"o":"m 499 -8 b 942 546 857 -8 942 222 b 499 1100 942 869 857 1100 l 75 1100 l 75 -8 z m 678 546 b 485 200 678 264 621 200 l 339 200 l 339 892 l 485 892 b 678 546 621 892 678 828 z "},"E":{"ha":835,"x_min":0,"x_max":0,"o":"m 75 -8 l 786 -8 l 786 206 l 339 206 l 339 453 l 722 453 l 722 667 l 339 667 l 339 886 l 779 886 l 779 1100 l 75 1100 z "},"F":{"ha":804,"x_min":0,"x_max":0,"o":"m 75 -8 l 339 -8 l 339 438 l 722 438 l 722 651 l 339 651 l 339 886 l 771 886 l 771 1100 l 75 1100 z "},"G":{"ha":1019,"x_min":0,"x_max":0,"o":"m 53 546 b 475 -28 53 211 172 -28 b 736 117 607 -28 699 31 l 763 -8 l 951 -8 l 951 583 l 513 583 l 513 397 l 701 397 b 513 186 693 271 635 186 b 318 546 379 186 318 261 b 508 904 318 839 381 904 b 690 714 622 904 683 833 l 953 714 b 508 1119 943 961 783 1119 b 53 546 165 1119 53 874 z "},"H":{"ha":967,"x_min":0,"x_max":0,"o":"m 628 -8 l 893 -8 l 893 1100 l 628 1100 l 628 667 l 339 667 l 339 1100 l 75 1100 l 75 -8 l 339 -8 l 339 453 l 628 453 z "},"I":{"ha":413,"x_min":0,"x_max":0,"o":"m 339 1100 l 75 1100 l 75 -8 l 339 -8 z "},"J":{"ha":847,"x_min":0,"x_max":0,"o":"m 399 -28 b 775 335 649 -28 775 108 l 775 1100 l 511 1100 l 511 353 b 399 186 511 235 476 186 b 285 358 322 186 285 233 l 21 358 l 21 335 b 399 -28 21 108 149 -28 z "},"K":{"ha":960,"x_min":0,"x_max":0,"o":"m 928 1100 l 642 1100 l 426 667 l 339 667 l 339 1100 l 75 1100 l 75 -8 l 339 -8 l 339 453 l 426 453 l 679 -8 l 968 -8 l 640 560 z "},"L":{"ha":804,"x_min":0,"x_max":0,"o":"m 75 -8 l 786 -8 l 786 206 l 339 206 l 339 1100 l 75 1100 z "},"M":{"ha":1299,"x_min":0,"x_max":0,"o":"m 750 -8 l 968 567 l 968 -8 l 1224 -8 l 1224 1100 l 968 1100 l 650 258 l 329 1100 l 75 1100 l 75 -8 l 331 -8 l 331 567 l 549 -8 z "},"N":{"ha":982,"x_min":0,"x_max":0,"o":"m 647 -8 l 908 -8 l 908 1100 l 647 1100 l 647 440 l 336 1100 l 75 1100 l 75 -8 l 336 -8 l 336 651 z "},"O":{"ha":1018,"x_min":0,"x_max":0,"o":"m 964 546 b 851 976 964 721 936 871 b 508 1119 775 1071 667 1119 b 167 976 350 1119 242 1071 b 53 546 82 871 53 721 b 167 115 53 371 82 221 b 508 -28 242 21 350 -28 b 851 115 667 -28 775 21 b 964 546 936 221 964 371 z m 318 546 b 368 836 318 701 332 782 b 508 904 399 882 444 904 b 649 836 572 904 618 882 b 700 546 686 782 700 701 b 649 256 700 390 686 310 b 508 188 618 210 572 188 b 368 256 444 188 399 210 b 318 546 332 310 318 390 z "},"P":{"ha":936,"x_min":0,"x_max":0,"o":"m 532 374 b 904 738 771 374 904 506 b 532 1100 904 968 771 1100 l 75 1100 l 75 -8 l 339 -8 l 339 374 z m 339 588 l 339 886 l 493 886 b 640 738 590 886 640 838 b 493 588 640 636 590 588 z "},"Q":{"ha":1031,"x_min":0,"x_max":0,"o":"m 1014 67 l 888 171 b 963 546 944 271 963 399 b 508 1119 963 875 851 1119 b 53 546 165 1119 53 874 b 508 -28 53 213 168 -28 b 742 28 601 -28 681 -8 l 876 -89 z m 318 546 b 508 904 318 838 379 904 b 699 546 636 904 699 831 b 669 307 699 429 690 357 l 594 369 l 476 247 l 546 190 b 508 186 535 188 521 186 b 318 546 379 186 318 251 z "},"R":{"ha":965,"x_min":0,"x_max":0,"o":"m 632 93 b 651 -8 635 56 642 15 l 918 -8 b 894 94 906 17 897 50 l 885 247 b 711 482 875 392 829 463 b 904 761 835 517 904 613 b 542 1100 904 969 781 1100 l 75 1100 l 75 -8 l 339 -8 l 339 374 l 478 374 b 624 232 581 374 617 339 z m 339 588 l 339 886 l 492 886 b 640 738 585 886 640 844 b 492 588 640 629 585 588 z "},"S":{"ha":913,"x_min":0,"x_max":0,"o":"m 872 315 b 563 656 872 504 768 614 l 465 675 b 314 804 358 697 314 733 b 442 913 314 869 358 913 b 568 804 522 913 568 869 l 568 786 l 831 786 l 831 804 b 442 1119 831 974 690 1119 b 51 794 190 1119 51 976 b 363 460 51 600 168 499 l 461 440 b 608 304 567 419 608 375 b 465 179 608 229 557 179 b 321 304 372 179 321 229 l 321 328 l 57 328 l 57 307 b 465 -28 57 113 208 -28 b 872 315 729 -28 872 117 z "},"T":{"ha":868,"x_min":0,"x_max":0,"o":"m 17 886 l 301 886 l 301 -8 l 567 -8 l 567 886 l 851 886 l 851 1100 l 17 1100 z "},"U":{"ha":1006,"x_min":0,"x_max":0,"o":"m 503 -28 b 935 404 796 -28 935 140 l 935 1100 l 671 1100 l 671 401 b 503 188 671 254 615 188 b 335 401 390 188 335 254 l 335 1100 l 69 1100 l 69 404 b 503 -28 69 140 208 -28 z "},"V":{"ha":1004,"x_min":0,"x_max":0,"o":"m 278 1100 l 11 1100 l 363 -8 l 640 -8 l 993 1100 l 726 1100 l 501 269 z "},"W":{"ha":1521,"x_min":0,"x_max":0,"o":"m 646 1100 l 443 317 l 281 1100 l 17 1100 l 301 -8 l 554 -8 l 760 792 l 968 -8 l 1219 -8 l 1504 1100 l 1240 1100 l 1076 317 l 876 1100 z "},"X":{"ha":986,"x_min":0,"x_max":0,"o":"m 694 -8 l 969 -8 l 667 565 l 946 1100 l 671 1100 l 493 722 l 315 1100 l 40 1100 l 319 565 l 17 -8 l 292 -8 l 493 404 z "},"Y":{"ha":985,"x_min":0,"x_max":0,"o":"m 493 650 l 288 1100 l 17 1100 l 361 429 l 361 -8 l 625 -8 l 625 429 l 968 1100 l 697 1100 z "},"Z":{"ha":857,"x_min":0,"x_max":0,"o":"m 43 190 l 43 -8 l 814 -8 l 814 206 l 363 206 l 806 901 l 806 1100 l 60 1100 l 60 886 l 486 886 z "},"[":{"ha":547,"x_min":0,"x_max":0,"o":"m 86 -156 l 503 -156 l 503 32 l 332 32 l 332 1042 l 503 1042 l 503 1232 l 86 1232 z "},"\\":{"ha":1333,"x_min":0,"x_max":0,"o":"m 553 1100 l 783 1100 l 882 603 l 981 603 l 1056 1100 l 1319 1100 l 1213 603 l 1314 603 l 1314 500 l 1190 500 l 1081 -8 l 829 -8 l 725 500 l 610 500 l 507 -8 l 254 -8 l 144 500 l 10 500 l 10 603 l 122 603 l 15 1100 l 279 1100 l 354 603 l 453 603 z m 903 500 l 938 324 l 964 500 z m 704 603 l 667 785 l 631 603 z m 369 500 l 396 324 l 432 500 z "},"]":{"ha":549,"x_min":0,"x_max":0,"o":"m 461 1232 l 44 1232 l 44 1042 l 215 1042 l 215 32 l 44 32 l 44 -156 l 461 -156 z "},"^":{"ha":721,"x_min":0,"x_max":0,"o":"m 263 1100 l 21 714 l 251 714 l 360 901 l 468 714 l 700 714 l 458 1100 z "},"_":{"ha":792,"x_min":0,"x_max":0,"o":"m 0 -281 l 792 -281 l 792 -167 l 0 -167 z "},"`":{"ha":590,"x_min":0,"x_max":0,"o":"m 286 893 l 500 893 l 353 1147 l 90 1147 z "},"a":{"ha":843,"x_min":0,"x_max":0,"o":"m 524 85 b 542 -8 525 47 532 13 l 793 -8 b 771 111 779 18 771 67 l 771 518 b 425 803 771 683 651 803 b 79 535 200 803 86 692 l 325 535 b 425 624 331 589 363 624 b 524 518 490 624 524 579 l 524 363 b 308 474 493 433 410 474 b 42 222 147 474 42 378 b 308 -28 42 68 150 -28 b 524 85 419 -28 496 21 z m 407 131 b 289 222 329 131 289 163 b 407 315 289 282 328 315 b 524 222 486 315 524 282 b 407 131 524 163 483 131 z "},"b":{"ha":865,"x_min":0,"x_max":0,"o":"m 311 113 b 526 -28 338 29 417 -28 b 821 388 713 -28 821 111 b 526 803 821 664 713 803 b 311 663 417 803 338 746 l 311 1100 l 64 1100 l 64 -8 l 311 -8 z m 311 388 b 443 617 311 556 351 617 b 575 388 533 617 575 556 b 443 158 575 219 533 158 b 311 388 351 158 311 219 z "},"c":{"ha":832,"x_min":0,"x_max":0,"o":"m 44 388 b 425 -28 44 136 163 -28 b 794 278 651 -28 785 90 l 549 278 b 425 158 540 196 499 158 b 292 388 333 158 292 219 b 425 617 292 556 333 617 b 549 497 499 617 540 581 l 794 497 b 425 803 785 685 651 803 b 44 388 163 803 44 639 z "},"d":{"ha":867,"x_min":0,"x_max":0,"o":"m 557 -8 l 803 -8 l 803 1100 l 557 1100 l 557 663 b 340 803 528 746 449 803 b 44 388 154 803 44 664 b 340 -28 44 111 154 -28 b 557 113 449 -28 528 29 z m 557 388 b 425 158 557 219 515 158 b 292 388 333 158 292 219 b 425 617 292 556 333 617 b 557 388 515 617 557 556 z "},"e":{"ha":847,"x_min":0,"x_max":0,"o":"m 800 328 b 803 388 801 342 803 367 b 425 803 803 638 688 803 b 44 388 161 803 44 638 b 425 -28 44 138 161 -28 b 786 235 632 -28 760 69 l 539 235 b 425 144 528 178 489 144 b 293 314 343 144 293 201 l 293 328 z m 293 468 b 422 631 296 576 340 631 b 553 468 506 631 550 576 z "},"f":{"ha":608,"x_min":0,"x_max":0,"o":"m 588 926 l 588 1103 b 442 1111 549 1110 493 1111 b 146 863 231 1111 146 1035 l 146 783 l 28 783 l 28 599 l 146 599 l 146 -8 l 392 -8 l 392 599 l 588 599 l 588 783 l 392 783 l 392 842 b 489 926 392 901 415 926 z "},"g":{"ha":867,"x_min":0,"x_max":0,"o":"m 556 -69 b 443 -207 556 -164 518 -207 b 336 -117 376 -207 342 -175 l 88 -117 b 442 -378 108 -275 224 -378 b 803 -53 692 -378 803 -239 l 803 783 l 556 783 l 556 663 b 340 803 528 746 449 803 b 44 388 153 803 44 664 b 340 -28 44 111 153 -28 b 556 113 449 -28 528 31 z m 556 388 b 424 157 556 219 515 157 b 290 388 332 157 290 219 b 424 617 290 554 332 617 b 556 388 515 617 556 554 z "},"h":{"ha":846,"x_min":0,"x_max":0,"o":"m 785 497 b 529 803 785 701 693 803 b 311 657 417 803 339 744 l 311 1100 l 64 1100 l 64 -8 l 311 -8 l 311 442 b 440 617 311 553 361 617 b 538 490 506 617 538 578 l 538 -8 l 785 -8 z "},"i":{"ha":386,"x_min":0,"x_max":0,"o":"m 69 897 l 315 897 l 315 1100 l 69 1100 z m 69 -8 l 315 -8 l 315 783 l 69 783 z "},"j":{"ha":428,"x_min":0,"x_max":0,"o":"m 111 -58 b 11 -169 111 -135 81 -169 l -53 -169 l -53 -349 b 60 -354 -25 -351 31 -354 b 357 -76 265 -354 357 -256 l 357 783 l 111 783 z m 111 897 l 357 897 l 357 1100 l 111 1100 z "},"k":{"ha":810,"x_min":0,"x_max":0,"o":"m 64 -8 l 311 -8 l 311 317 l 365 317 l 542 -8 l 803 -8 l 565 403 l 769 783 l 513 783 l 367 492 l 311 492 l 311 1100 l 64 1100 z "},"l":{"ha":386,"x_min":0,"x_max":0,"o":"m 315 -8 l 315 1100 l 69 1100 l 69 -8 z "},"m":{"ha":1308,"x_min":0,"x_max":0,"o":"m 532 -8 l 779 -8 l 779 440 b 906 617 779 553 828 617 b 1000 496 968 617 1000 575 l 1000 -8 l 1247 -8 l 1247 496 b 992 803 1247 699 1156 803 b 753 656 878 803 796 749 b 526 803 717 751 635 803 b 311 657 415 803 339 744 l 311 783 l 64 783 l 64 -8 l 311 -8 l 311 440 b 438 617 311 553 360 617 b 532 496 500 617 532 575 z "},"n":{"ha":846,"x_min":0,"x_max":0,"o":"m 785 497 b 529 803 785 701 693 803 b 311 657 417 803 339 744 l 311 783 l 64 783 l 64 -8 l 311 -8 l 311 442 b 440 617 311 553 361 617 b 538 490 506 617 538 578 l 538 -8 l 785 -8 z "},"o":{"ha":847,"x_min":0,"x_max":0,"o":"m 292 388 b 425 617 292 556 333 617 b 557 388 515 617 557 556 b 425 158 557 219 515 158 b 292 388 333 158 292 219 z m 44 388 b 425 -28 44 136 163 -28 b 803 388 686 -28 803 136 b 425 803 803 639 686 803 b 44 388 163 803 44 639 z "},"p":{"ha":865,"x_min":0,"x_max":0,"o":"m 311 783 l 64 783 l 64 -354 l 311 -354 l 311 113 b 526 -28 338 29 417 -28 b 821 388 713 -28 821 111 b 526 803 821 664 713 803 b 311 663 417 803 338 746 z m 311 388 b 443 617 311 556 351 617 b 575 388 533 617 575 556 b 443 158 575 219 533 158 b 311 388 351 158 311 219 z "},"q":{"ha":867,"x_min":0,"x_max":0,"o":"m 557 663 b 340 803 528 746 449 803 b 44 388 154 803 44 664 b 340 -28 44 111 154 -28 b 557 113 449 -28 528 29 l 557 -354 l 803 -354 l 803 783 l 557 783 z m 557 388 b 425 158 557 219 515 158 b 292 388 333 158 292 219 b 425 617 292 556 333 617 b 557 388 515 617 557 556 z "},"r":{"ha":586,"x_min":0,"x_max":0,"o":"m 508 597 b 567 596 533 597 553 597 l 569 796 b 513 803 557 801 536 803 b 311 629 397 803 333 746 l 311 783 l 64 783 l 64 -8 l 311 -8 l 311 371 b 508 597 311 519 385 597 z "},"s":{"ha":760,"x_min":0,"x_max":0,"o":"m 47 224 b 383 -28 47 82 163 -28 b 721 228 594 -28 721 78 b 471 475 721 369 642 442 l 389 492 b 292 569 321 506 292 529 b 365 633 292 608 319 633 b 439 569 415 633 439 606 l 439 554 l 686 554 l 686 567 b 367 803 686 699 578 803 b 46 557 161 803 46 700 b 296 313 46 422 133 344 l 378 297 b 474 214 447 283 474 260 b 385 140 474 172 442 140 b 294 215 326 140 294 171 l 294 233 l 47 233 z "},"t":{"ha":631,"x_min":0,"x_max":0,"o":"m 389 599 l 594 599 l 594 783 l 389 783 l 389 1008 l 142 1008 l 142 783 l 25 783 l 25 599 l 142 599 l 142 243 b 444 -19 142 51 222 -19 b 594 -15 488 -19 561 -18 l 594 165 l 514 165 b 389 276 418 165 389 186 z "},"u":{"ha":847,"x_min":0,"x_max":0,"o":"m 61 278 b 317 -28 61 74 154 -28 b 536 118 429 -28 507 31 l 536 -8 l 783 -8 l 783 783 l 536 783 l 536 333 b 406 158 536 222 486 158 b 308 285 342 158 308 197 l 308 783 l 61 783 z "},"v":{"ha":843,"x_min":0,"x_max":0,"o":"m 550 -8 l 826 783 l 575 783 l 422 258 l 268 783 l 17 783 l 292 -8 z "},"w":{"ha":1303,"x_min":0,"x_max":0,"o":"m 556 783 l 404 260 l 267 783 l 17 783 l 268 -8 l 508 -8 l 651 485 l 793 -8 l 1033 -8 l 1286 783 l 1036 783 l 899 260 l 746 783 z "},"x":{"ha":794,"x_min":0,"x_max":0,"o":"m 529 -8 l 783 -8 l 558 399 l 768 783 l 514 783 l 397 532 l 281 783 l 28 783 l 236 399 l 11 -8 l 265 -8 l 397 264 z "},"y":{"ha":843,"x_min":0,"x_max":0,"o":"m 278 -83 b 172 -168 253 -151 221 -168 l 113 -168 l 113 -350 b 222 -354 142 -354 189 -354 b 521 -87 389 -354 446 -300 l 826 783 l 574 783 l 424 271 l 269 783 l 17 783 l 304 -10 z "},"z":{"ha":726,"x_min":0,"x_max":0,"o":"m 346 176 l 676 614 l 676 783 l 51 783 l 51 599 l 369 599 l 39 161 l 39 -8 l 688 -8 l 688 176 z "},"{":{"ha":588,"x_min":0,"x_max":0,"o":"m 43 443 l 75 443 b 169 332 142 443 169 399 l 169 114 b 454 -156 169 -72 254 -156 l 544 -156 l 544 33 l 513 33 b 417 144 449 33 417 75 l 417 369 b 301 538 417 451 385 514 b 417 706 385 561 417 625 l 417 932 b 513 1042 417 1001 449 1042 l 544 1042 l 544 1232 l 454 1232 b 169 961 254 1232 169 1149 l 169 743 b 75 632 169 676 142 632 l 43 632 z "},"|":{"ha":461,"x_min":0,"x_max":0,"o":"m 107 -156 l 354 -156 l 354 1232 l 107 1232 z "},"}":{"ha":588,"x_min":0,"x_max":0,"o":"m 544 632 l 513 632 b 417 743 446 632 417 676 l 417 961 b 135 1232 417 1149 333 1232 l 43 1232 l 43 1042 l 75 1042 b 169 932 139 1042 169 1001 l 169 706 b 286 538 169 625 203 561 b 169 369 203 514 169 451 l 169 144 b 75 33 169 75 139 33 l 43 33 l 43 -156 l 135 -156 b 417 114 333 -156 417 -72 l 417 332 b 513 443 417 399 446 443 l 544 443 z "},"~":{"ha":833,"x_min":0,"x_max":0,"o":"m 579 364 b 768 643 718 364 768 472 l 549 643 l 549 639 b 497 572 549 596 531 572 b 254 653 429 572 386 653 b 65 374 115 653 65 546 l 283 374 l 283 378 b 335 446 283 422 301 446 b 579 364 403 446 446 364 z "},"　":{"ha":1333,"x_min":0,"x_max":0,"o":""},"ㅤ":{"ha":1333,"x_min":0,"x_max":0,"o":""},"…":{"ha":1333,"x_min":0,"x_max":0,"o":"m 786 714 l 786 464 l 546 464 l 546 714 z m 364 714 l 364 464 l 124 464 l 124 714 z m 1208 714 l 1208 464 l 968 464 l 968 714 z "},"¨":{"ha":833,"x_min":0,"x_max":0,"o":"m 711 1101 l 711 850 l 471 850 l 471 1101 z m 361 1101 l 361 850 l 121 850 l 121 1101 z "},"〃":{"ha":1333,"x_min":0,"x_max":0,"o":"m 471 940 l 676 872 l 403 215 l 250 265 z m 875 919 l 1082 854 l 804 194 l 650 247 z "},"＼":{"ha":1333,"x_min":0,"x_max":0,"o":"m 1297 69 l 1158 -76 l 36 1004 l 178 1149 z "},"‘":{"ha":413,"x_min":0,"x_max":0,"o":"m 81 757 l 81 1007 b 335 1221 81 1129 169 1217 l 335 1113 b 207 1007 249 1111 207 1075 l 335 1007 l 335 757 z "},"’":{"ha":413,"x_min":0,"x_max":0,"o":"m 333 1221 l 333 971 b 78 757 333 849 243 761 l 78 867 b 204 971 164 868 204 903 l 78 971 l 78 1221 z "},"“":{"ha":750,"x_min":0,"x_max":0,"o":"m 78 757 l 78 1007 b 333 1221 78 1129 167 1217 l 333 1113 b 204 1007 246 1110 204 1075 l 333 1007 l 333 757 z m 417 757 l 417 1007 b 671 1221 417 1129 506 1217 l 671 1113 b 544 1007 586 1110 544 1075 l 671 1007 l 671 757 z "},"”":{"ha":750,"x_min":0,"x_max":0,"o":"m 333 1221 l 333 971 b 78 757 333 849 243 761 l 78 867 b 204 971 165 868 204 903 l 78 971 l 78 1221 z m 671 1221 l 671 971 b 417 757 671 849 582 761 l 417 867 b 544 971 503 868 544 903 l 417 971 l 417 1221 z "},"±":{"ha":842,"x_min":0,"x_max":0,"o":"m 53 536 l 53 724 l 308 724 l 308 978 l 533 978 l 533 724 l 789 724 l 789 536 l 533 536 l 533 283 l 308 283 l 308 536 z m 53 43 l 53 231 l 789 231 l 789 43 z "},"×":{"ha":842,"x_min":0,"x_max":0,"o":"m 783 294 l 629 143 l 421 353 l 214 143 l 58 294 l 267 506 l 58 717 l 214 869 l 421 660 l 629 869 l 783 717 l 574 506 z "},"÷":{"ha":842,"x_min":0,"x_max":0,"o":"m 53 413 l 53 601 l 789 601 l 789 413 z m 536 913 l 536 686 l 306 686 l 306 913 z m 306 101 l 306 328 l 536 328 l 536 101 z "},"≠":{"ha":842,"x_min":0,"x_max":0,"o":"m 789 251 l 342 251 l 249 94 l 97 94 l 190 251 l 53 251 l 53 440 l 301 440 l 378 572 l 53 572 l 53 761 l 489 761 l 582 919 l 733 919 l 640 761 l 789 761 l 789 572 l 529 572 l 453 440 l 789 440 z "},"≤":{"ha":842,"x_min":0,"x_max":0,"o":"m 776 496 l 776 276 l 67 528 l 67 742 l 776 993 l 776 774 l 353 635 z m 53 43 l 53 231 l 789 231 l 789 43 z "},"≥":{"ha":842,"x_min":0,"x_max":0,"o":"m 776 742 l 776 528 l 67 276 l 67 496 l 492 635 l 67 774 l 67 993 z m 789 231 l 789 43 l 53 43 l 53 231 z "},"∞":{"ha":1333,"x_min":0,"x_max":0,"o":"m 544 515 b 422 589 506 565 464 589 b 343 515 376 589 343 563 b 422 442 343 468 376 442 b 544 515 464 442 506 465 z m 667 400 b 394 267 594 310 501 267 b 126 515 232 267 126 361 b 394 764 126 668 232 764 b 667 631 501 764 594 719 b 938 764 739 719 832 764 b 1207 515 1100 764 1207 668 b 938 267 1207 361 1100 267 b 667 400 832 267 739 310 z m 788 515 b 911 442 826 465 869 442 b 989 515 957 442 989 468 b 911 589 989 563 957 589 b 788 515 869 589 826 565 z "},"∴":{"ha":1333,"x_min":0,"x_max":0,"o":"m 789 1006 l 789 756 l 543 756 l 543 1006 z m 436 353 l 436 103 l 196 103 l 196 353 z m 1136 353 l 1136 103 l 896 103 l 896 353 z "},"°":{"ha":568,"x_min":0,"x_max":0,"o":"m 521 885 b 285 658 521 754 426 658 b 47 885 142 658 47 754 b 285 1114 47 1018 142 1114 b 521 885 426 1114 521 1018 z m 210 885 b 285 804 210 835 240 804 b 358 885 328 804 358 835 b 285 968 358 936 328 968 b 210 885 240 968 210 936 z "},"′":{"ha":379,"x_min":0,"x_max":0,"o":"m 29 729 l 107 1101 l 350 1101 l 232 729 z "},"″":{"ha":688,"x_min":0,"x_max":0,"o":"m 29 729 l 107 1101 l 350 1101 l 232 729 z m 338 729 l 417 1101 l 660 1101 l 540 729 z "},"℃":{"ha":1333,"x_min":0,"x_max":0,"o":"m 475 908 b 250 694 475 786 385 694 b 24 908 115 694 24 786 b 250 1122 24 1031 115 1122 b 475 908 385 1122 475 1031 z m 183 908 b 250 839 183 865 211 839 b 315 908 288 839 315 865 b 250 978 315 950 288 978 b 183 908 211 978 183 950 z m 463 546 b 610 1028 463 771 506 933 b 888 1121 676 1088 768 1121 b 1303 715 1153 1121 1293 960 l 1044 715 b 888 906 1039 833 994 906 b 783 863 842 906 808 892 b 724 546 738 811 724 707 b 783 224 724 376 736 274 b 888 185 808 197 843 185 b 1044 375 994 185 1040 257 l 1303 375 b 888 -29 1293 131 1153 -29 b 621 50 774 -29 686 -1 b 463 546 507 140 463 311 z "},"Å":{"ha":1333,"x_min":0,"x_max":0,"o":"m 175 -10 l 504 1028 b 440 1182 464 1067 440 1119 b 667 1396 440 1306 532 1396 b 892 1182 801 1396 892 1306 b 828 1028 892 1119 868 1065 l 1158 -10 l 892 -10 l 838 188 l 494 188 l 442 -10 z m 783 392 l 667 824 l 549 392 z m 732 1182 b 667 1251 732 1224 704 1251 b 601 1182 628 1251 601 1224 b 667 1113 601 1140 628 1113 b 732 1182 704 1113 732 1140 z "},"￠":{"ha":1333,"x_min":0,"x_max":0,"o":"m 293 388 b 558 790 293 601 376 747 l 558 925 l 776 925 l 776 792 b 1039 499 933 761 1026 656 l 796 499 b 671 617 788 578 746 617 b 538 388 576 617 538 550 b 671 157 538 219 578 157 b 796 276 746 157 788 196 l 1039 276 b 776 -18 1026 117 932 11 l 776 -150 l 558 -150 l 558 -17 b 293 388 376 25 293 172 z "},"￡":{"ha":1333,"x_min":0,"x_max":0,"o":"m 632 576 l 867 576 l 867 417 l 646 417 b 547 201 638 331 603 257 l 1038 201 l 1038 -8 l 300 -8 l 300 186 b 393 417 350 246 386 335 l 294 417 l 294 576 l 379 576 b 331 808 354 639 331 701 b 679 1119 331 981 456 1119 b 1025 808 900 1119 1025 981 l 1025 769 l 767 769 l 767 806 b 679 904 767 864 738 904 b 589 806 619 904 589 867 b 632 576 589 690 611 638 z "},"￥":{"ha":1333,"x_min":0,"x_max":0,"o":"m 329 289 l 329 404 l 533 404 l 533 475 l 329 475 l 329 590 l 478 590 l 190 1100 l 464 1100 l 665 686 l 867 1100 l 1142 1100 l 854 590 l 1001 590 l 1001 475 l 797 475 l 797 404 l 1001 404 l 1001 289 l 797 289 l 797 -8 l 533 -8 l 533 289 z "},"♂":{"ha":1333,"x_min":0,"x_max":0,"o":"m 665 1239 l 1075 701 l 944 600 l 754 868 l 754 569 b 1026 229 917 539 1026 404 b 665 -118 1026 32 867 -118 b 308 229 464 -118 308 32 b 578 569 308 403 417 538 l 578 868 l 389 603 l 257 701 z m 503 229 b 665 42 503 121 565 42 b 832 229 768 42 832 121 b 665 418 832 340 768 418 b 503 229 565 418 503 340 z "},"♀":{"ha":1333,"x_min":0,"x_max":0,"o":"m 267 774 b 667 1167 267 997 443 1167 b 1067 774 893 1167 1067 997 b 757 385 1067 571 924 415 l 757 261 l 932 261 l 932 100 l 757 100 l 757 -89 l 578 -89 l 578 100 l 401 100 l 401 261 l 578 261 l 578 385 b 267 774 403 418 267 571 z m 458 774 b 667 540 458 640 542 540 b 875 774 793 540 875 640 b 667 1007 875 907 793 1007 b 458 774 542 1007 458 907 z "},"∠":{"ha":1333,"x_min":0,"x_max":0,"o":"m 1129 896 l 447 247 l 1200 247 l 1200 61 l 132 61 l 132 214 l 978 1035 z "},"⊥":{"ha":1333,"x_min":0,"x_max":0,"o":"m 776 250 l 1203 250 l 1203 60 l 131 60 l 131 250 l 557 250 l 557 1060 l 776 1060 z "},"⌒":{"ha":1333,"x_min":0,"x_max":0,"o":"m 25 931 b 667 1208 175 1094 401 1208 b 1308 931 932 1208 1156 1093 l 1199 790 b 667 1015 1063 924 885 1015 b 138 788 449 1015 271 922 z "},"∂":{"ha":1333,"x_min":0,"x_max":0,"o":"m 593 822 l 339 822 b 721 1121 388 1006 515 1121 b 1057 688 964 1121 1057 965 b 611 -29 1057 222 944 -29 b 275 317 401 -29 275 99 b 628 711 275 572 435 711 b 803 626 711 711 776 679 b 807 711 806 657 807 686 b 703 924 807 860 774 924 b 593 822 644 924 607 886 z m 639 171 b 778 372 729 171 778 246 b 669 511 778 464 742 511 b 531 307 576 511 531 435 b 639 171 531 217 567 171 z "},"∇":{"ha":1333,"x_min":0,"x_max":0,"o":"m 174 1100 l 1158 1100 l 804 -8 l 528 -8 z m 496 896 l 667 283 l 835 896 z "},"≡":{"ha":842,"x_min":0,"x_max":0,"o":"m 53 686 l 53 875 l 789 875 l 789 686 z m 53 413 l 53 601 l 789 601 l 789 413 z m 53 139 l 53 328 l 789 328 l 789 139 z "},"≒":{"ha":842,"x_min":0,"x_max":0,"o":"m 53 550 l 53 739 l 789 739 l 789 550 z m 53 275 l 53 464 l 789 464 l 789 275 z m 701 210 l 701 -42 l 456 -42 l 456 210 z m 383 1054 l 383 804 l 138 804 l 138 1054 z "},"§":{"ha":1333,"x_min":0,"x_max":0,"o":"m 638 579 b 561 475 585 572 561 526 b 715 339 561 393 606 367 b 768 450 751 364 768 403 b 638 579 768 519 731 558 z m 679 -218 b 358 32 483 -218 358 -115 l 358 58 l 600 58 l 600 32 b 679 -49 600 -18 633 -49 b 758 32 728 -49 758 -19 b 633 143 758 89 721 121 b 325 450 439 194 325 250 b 438 663 325 535 364 615 b 331 879 365 713 331 782 b 651 1147 331 1040 456 1147 b 972 894 847 1147 972 1043 l 972 869 l 731 869 l 731 896 b 651 976 731 943 696 976 b 572 896 603 976 572 946 b 689 785 572 840 607 806 b 1007 475 888 733 1007 671 b 893 264 1007 390 965 310 b 999 49 964 213 999 144 b 679 -218 999 -114 875 -218 z "},"※":{"ha":1333,"x_min":0,"x_max":0,"o":"m 1203 942 l 800 540 l 1203 139 l 1069 6 l 668 407 l 265 6 l 132 139 l 535 540 l 132 942 l 265 1076 l 668 674 l 1069 1076 z m 811 982 b 667 838 811 900 749 838 b 521 982 583 838 521 900 b 667 1126 521 1065 583 1126 b 811 982 749 1126 811 1065 z m 811 111 b 667 -35 811 28 749 -35 b 521 111 583 -35 521 28 b 667 256 521 193 583 256 b 811 111 749 256 811 193 z m 379 540 b 235 396 379 457 317 396 b 90 540 151 396 90 457 b 235 685 90 624 151 685 b 379 540 317 685 379 624 z m 1242 540 b 1097 396 1242 457 1179 396 b 953 540 1015 396 953 457 b 1097 685 953 624 1015 685 b 1242 540 1179 685 1242 624 z "},"☆":{"ha":1333,"x_min":0,"x_max":0,"o":"m 481 761 l 629 1186 l 704 1186 l 853 761 l 1279 761 l 1297 690 l 956 425 l 1124 -26 l 1064 -74 l 667 217 l 268 -74 l 207 -28 l 378 425 l 36 690 l 54 761 z m 578 642 l 268 651 l 533 475 l 390 158 l 667 372 l 944 151 l 797 478 l 1058 657 l 760 646 l 667 936 z "},"★":{"ha":1333,"x_min":0,"x_max":0,"o":"m 483 761 l 640 1186 l 693 1186 l 849 761 l 1282 761 l 1297 711 l 950 432 l 1121 -37 l 1079 -74 l 667 225 l 253 -74 l 208 -39 l 386 429 l 36 711 l 51 761 z "},"○":{"ha":1333,"x_min":0,"x_max":0,"o":"m 1290 542 b 667 -82 1290 189 1024 -82 b 43 542 308 -82 43 189 b 667 1165 43 894 310 1165 b 1290 542 1022 1165 1290 893 z m 1142 542 b 667 1028 1142 818 944 1028 b 193 542 390 1028 193 818 b 667 54 193 264 390 54 b 1142 542 944 54 1142 264 z "},"●":{"ha":1333,"x_min":0,"x_max":0,"o":"m 1290 542 b 667 -82 1290 189 1024 -82 b 43 542 308 -82 43 189 b 667 1165 43 894 310 1165 b 1290 542 1022 1165 1290 893 z "},"◎":{"ha":1333,"x_min":0,"x_max":0,"o":"m 253 542 b 667 956 253 776 436 956 b 1081 542 897 956 1081 776 b 667 126 1081 307 897 126 b 253 542 436 126 253 307 z m 947 542 b 667 838 947 714 831 838 b 386 542 503 838 386 714 b 667 244 386 369 503 244 b 947 542 831 244 947 369 z m 1290 542 b 667 -82 1290 189 1024 -82 b 43 542 308 -82 43 189 b 667 1165 43 894 310 1165 b 1290 542 1022 1165 1290 893 z m 1156 542 b 667 1042 1156 821 946 1042 b 179 542 389 1042 179 821 b 667 42 179 261 389 42 b 1156 542 946 42 1156 261 z "},"◇":{"ha":1333,"x_min":0,"x_max":0,"o":"m 667 1214 l 1306 539 l 667 -135 l 28 539 z m 667 1010 l 221 539 l 667 68 l 1110 539 z "},"◆":{"ha":1333,"x_min":0,"x_max":0,"o":"m 667 1214 l 1306 539 l 667 -135 l 28 539 z "},"□":{"ha":1333,"x_min":0,"x_max":0,"o":"m 278 153 l 1056 153 l 1056 939 l 278 939 z m 1203 14 l 131 14 l 131 1076 l 1203 1076 z "},"■":{"ha":1333,"x_min":0,"x_max":0,"o":"m 1203 14 l 131 14 l 131 1076 l 1203 1076 z "},"△":{"ha":1333,"x_min":0,"x_max":0,"o":"m 667 1135 l 1304 19 l 29 19 z m 667 857 l 274 156 l 1060 156 z "},"▲":{"ha":1333,"x_min":0,"x_max":0,"o":"m 667 1135 l 1304 19 l 29 19 z "},"▽":{"ha":1333,"x_min":0,"x_max":0,"o":"m 1304 1057 l 667 -58 l 29 1057 z m 274 921 l 667 219 l 1060 921 z "},"▼":{"ha":1333,"x_min":0,"x_max":0,"o":"m 1304 1057 l 667 -58 l 29 1057 z "},"→":{"ha":1333,"x_min":0,"x_max":0,"o":"m 40 385 l 40 647 l 889 647 l 889 831 l 1290 517 l 889 201 l 889 385 z "},"←":{"ha":1333,"x_min":0,"x_max":0,"o":"m 1290 647 l 1290 385 l 440 385 l 440 201 l 40 517 l 440 831 l 440 647 z "},"↑":{"ha":1333,"x_min":0,"x_max":0,"o":"m 797 -69 l 535 -69 l 535 778 l 350 778 l 667 1181 l 981 778 l 797 778 z "},"↓":{"ha":1333,"x_min":0,"x_max":0,"o":"m 535 1181 l 797 1181 l 797 331 l 981 331 l 667 -69 l 350 331 l 535 331 z "},"↔":{"ha":1333,"x_min":0,"x_max":0,"o":"m 440 831 l 440 647 l 890 647 l 890 831 l 1290 517 l 890 201 l 890 385 l 440 385 l 440 201 l 40 517 z "},"√":{"ha":1333,"x_min":0,"x_max":0,"o":"m 890 983 l 564 -185 l 294 -185 l 17 410 l 288 410 l 404 131 l 688 1181 l 1288 1181 l 1288 983 z "},"∽":{"ha":1333,"x_min":0,"x_max":0,"o":"m 733 449 b 394 267 653 332 538 267 b 126 515 232 267 126 361 b 394 764 126 668 232 764 b 568 717 458 764 515 747 l 488 568 b 422 589 467 581 443 589 b 343 515 376 589 343 563 b 422 442 343 468 376 442 b 603 582 479 442 538 488 b 938 764 683 697 794 764 b 1207 515 1100 764 1207 668 b 938 267 1207 361 1100 267 b 756 318 871 267 810 283 l 840 467 b 911 442 864 450 888 442 b 989 515 957 442 989 468 b 911 589 989 563 957 589 b 733 449 854 589 800 543 z "},"∝":{"ha":1333,"x_min":0,"x_max":0,"o":"m 544 515 b 422 589 506 565 464 589 b 343 515 376 589 343 563 b 422 442 343 468 376 442 b 544 515 464 442 506 465 z m 982 467 l 1111 317 b 938 267 1065 283 1008 267 b 667 400 832 267 739 310 b 394 267 594 310 501 267 b 126 515 232 267 126 361 b 394 764 126 668 232 764 b 667 631 501 764 594 719 b 938 765 739 719 832 765 b 1086 731 994 765 1046 753 l 979 567 b 911 589 961 579 935 589 b 788 515 869 589 826 565 b 911 442 826 465 869 442 b 982 467 938 442 964 453 z "},"∵":{"ha":1333,"x_min":0,"x_max":0,"o":"m 789 353 l 789 103 l 543 103 l 543 353 z m 436 1006 l 436 756 l 196 756 l 196 1006 z m 1136 1006 l 1136 756 l 896 756 l 896 1006 z "},"∫":{"ha":1333,"x_min":0,"x_max":0,"o":"m 985 1040 l 886 1040 b 789 957 813 1040 789 1017 l 789 68 b 490 -181 789 -106 703 -181 b 347 -174 439 -181 386 -179 l 347 3 l 444 3 b 543 89 519 3 543 28 l 543 976 b 840 1226 543 1150 628 1226 b 985 1218 890 1226 946 1224 z "},"∬":{"ha":1333,"x_min":0,"x_max":0,"o":"m 729 1040 l 639 1040 b 542 957 565 1040 542 1017 l 542 68 b 244 -181 542 -106 457 -181 b 110 -174 201 -181 147 -179 l 110 3 l 199 3 b 297 89 272 3 297 28 l 297 976 b 594 1226 297 1150 382 1226 b 729 1218 642 1226 692 1224 z m 1222 1040 l 1132 1040 b 1035 957 1058 1040 1035 1017 l 1035 68 b 738 -181 1035 -106 944 -181 b 603 -174 694 -181 640 -179 l 603 3 l 690 3 b 789 89 765 3 789 28 l 789 976 b 1088 1226 789 1150 881 1226 b 1222 1218 1135 1226 1185 1224 z "},"∈":{"ha":1333,"x_min":0,"x_max":0,"o":"m 385 646 l 1179 646 l 1179 432 l 385 432 b 692 289 419 338 515 289 l 1179 289 l 1179 75 l 688 75 b 124 539 350 75 124 224 b 688 1003 124 854 350 1003 l 1179 1003 l 1179 788 l 692 788 b 385 646 515 788 419 738 z "},"∋":{"ha":1333,"x_min":0,"x_max":0,"o":"m 151 646 l 947 646 b 640 788 913 738 817 788 l 151 788 l 151 1003 l 644 1003 b 1207 539 982 1003 1207 854 b 644 75 1207 224 982 75 l 151 75 l 151 289 l 640 289 b 947 432 817 289 911 338 l 151 432 z "},"⊆":{"ha":1333,"x_min":0,"x_max":0,"o":"m 160 194 l 1185 194 l 1185 -11 l 160 -11 z m 368 715 b 621 540 368 599 450 540 l 1176 540 l 1176 329 l 617 329 b 119 715 307 329 119 460 b 617 1099 119 969 307 1099 l 1176 1099 l 1176 888 l 621 888 b 368 715 450 888 368 829 z "},"⊇":{"ha":1333,"x_min":0,"x_max":0,"o":"m 147 194 l 1172 194 l 1172 -11 l 147 -11 z m 964 715 b 711 888 964 829 882 888 l 156 888 l 156 1099 l 715 1099 b 1213 715 1025 1099 1213 969 b 715 329 1213 460 1025 329 l 156 329 l 156 540 l 711 540 b 964 715 882 540 964 599 z "},"⊂":{"ha":1333,"x_min":0,"x_max":0,"o":"m 374 540 b 692 290 374 381 463 290 l 1181 290 l 1181 75 l 688 75 b 125 540 350 75 125 225 b 688 1003 125 856 350 1003 l 1181 1003 l 1181 789 l 692 789 b 374 540 463 789 374 699 z "},"⊃":{"ha":1333,"x_min":0,"x_max":0,"o":"m 960 540 b 642 789 960 699 871 789 l 153 789 l 153 1003 l 646 1003 b 1208 540 983 1003 1208 856 b 646 75 1208 225 983 75 l 153 75 l 153 290 l 642 290 b 960 540 871 290 960 381 z "},"∪":{"ha":1333,"x_min":0,"x_max":0,"o":"m 667 175 b 893 535 807 175 893 278 l 893 1040 l 1131 1040 l 1131 531 b 667 -15 1131 197 978 -15 b 201 531 354 -15 201 197 l 201 1040 l 440 1040 l 440 535 b 667 175 440 278 525 175 z "},"∩":{"ha":1333,"x_min":0,"x_max":0,"o":"m 667 878 b 440 518 525 878 440 775 l 440 13 l 201 13 l 201 522 b 667 1068 201 856 354 1068 b 1131 522 978 1068 1131 856 l 1131 13 l 893 13 l 893 518 b 667 878 893 775 807 878 z "},"∧":{"ha":1333,"x_min":0,"x_max":0,"o":"m 125 65 l 599 1082 l 735 1082 l 1208 65 l 1004 -15 l 665 740 l 331 -15 z "},"∨":{"ha":1333,"x_min":0,"x_max":0,"o":"m 599 -17 l 125 1000 l 331 1081 l 665 324 l 1004 1081 l 1208 1000 l 735 -17 z "},"￢":{"ha":1333,"x_min":0,"x_max":0,"o":"m 161 751 l 1189 751 l 1189 246 l 940 246 l 940 550 l 161 550 z "},"⇒":{"ha":1333,"x_min":0,"x_max":0,"o":"m 824 729 l 699 843 l 801 951 l 1286 514 l 803 63 l 699 172 l 826 293 l 46 293 l 46 442 l 986 442 l 1064 514 l 992 579 l 46 579 l 46 729 z "},"⇔":{"ha":1333,"x_min":0,"x_max":0,"o":"m 869 729 l 751 847 l 858 950 l 1306 514 l 860 64 l 751 168 l 871 293 l 461 293 l 582 168 l 474 64 l 28 514 l 475 950 l 582 847 l 464 729 z m 313 579 l 247 514 l 317 442 l 1015 442 l 1086 514 l 1021 579 z "},"∀":{"ha":1333,"x_min":0,"x_max":0,"o":"m 892 1100 l 1158 1100 l 804 -8 l 528 -8 l 174 1100 l 442 1100 l 494 904 l 839 904 z m 783 699 l 550 699 l 667 268 z "},"∃":{"ha":1333,"x_min":0,"x_max":0,"o":"m 1010 1101 l 1010 -10 l 304 -10 l 304 204 l 744 204 l 744 425 l 361 425 l 361 639 l 744 639 l 744 888 l 296 888 l 296 1101 z "},"´":{"ha":592,"x_min":0,"x_max":0,"o":"m 501 1149 l 304 893 l 90 893 l 238 1149 z "},"ˇ":{"ha":632,"x_min":0,"x_max":0,"o":"m 399 1149 l 600 1149 l 413 892 l 218 892 l 29 1149 l 232 1149 l 315 1038 z "},"˘":{"ha":621,"x_min":0,"x_max":0,"o":"m 310 892 b 46 1135 156 892 49 978 l 233 1135 b 310 1044 235 1074 261 1044 b 386 1135 360 1044 386 1074 l 574 1135 b 310 892 571 978 463 892 z "},"˝":{"ha":665,"x_min":0,"x_max":0,"o":"m 681 1149 l 472 883 l 265 883 l 428 1149 z m 354 1149 l 190 883 l -14 883 l 103 1149 z "},"˚":{"ha":576,"x_min":0,"x_max":0,"o":"m 468 1019 b 288 850 468 914 390 850 b 107 1019 183 850 107 914 b 288 1189 107 1126 183 1189 b 468 1019 390 1189 468 1126 z m 239 1019 b 288 968 239 988 258 968 b 336 1019 318 968 336 988 b 288 1074 336 1051 318 1074 b 239 1019 258 1074 239 1051 z "},"˙":{"ha":543,"x_min":0,"x_max":0,"o":"m 382 1125 l 382 907 l 161 907 l 161 1125 z "},"¸":{"ha":588,"x_min":0,"x_max":0,"o":"m 92 -329 l 149 -222 b 254 -258 182 -246 218 -258 b 313 -215 292 -258 313 -244 b 243 -169 313 -186 289 -169 b 185 -178 228 -169 199 -172 l 157 -144 l 222 -10 l 383 -10 l 349 -76 b 494 -221 443 -87 494 -144 b 282 -386 494 -318 419 -386 b 92 -329 204 -386 138 -362 z "},"˛":{"ha":586,"x_min":0,"x_max":0,"o":"m 222 -10 l 396 -10 b 278 -160 317 -58 278 -115 l 278 -168 b 344 -226 278 -203 300 -226 b 425 -200 375 -226 403 -218 l 489 -297 b 315 -356 451 -336 389 -356 b 97 -199 179 -356 97 -297 l 97 -189 b 222 -10 97 -118 143 -50 z "},"¡":{"ha":463,"x_min":0,"x_max":0,"o":"m 126 446 l 335 446 l 354 -158 l 354 -326 l 107 -326 l 107 -158 z m 354 783 l 354 561 l 107 561 l 107 783 z "},"¿":{"ha":824,"x_min":0,"x_max":0,"o":"m 515 -10 l 761 -10 l 761 -29 b 413 -344 761 -214 643 -344 b 64 -29 183 -344 64 -214 b 194 242 64 92 101 160 b 297 418 281 317 297 350 l 297 467 l 544 467 l 544 396 b 418 143 544 283 517 228 b 311 -29 336 72 311 35 b 413 -146 311 -101 353 -146 b 515 -10 481 -146 515 -94 z m 544 783 l 544 561 l 297 561 l 297 783 z "},"∮":{"ha":1333,"x_min":0,"x_max":0,"o":"m 328 517 b 547 818 328 663 418 775 l 547 978 b 842 1228 547 1151 629 1228 b 985 1219 892 1228 946 1225 l 985 1042 l 886 1042 b 786 957 811 1042 786 1017 l 786 818 b 1006 517 915 775 1006 663 b 786 215 1006 371 915 258 l 786 67 b 492 -182 786 -106 703 -182 b 347 -175 440 -182 386 -181 l 347 3 l 444 3 b 547 89 521 3 547 26 l 547 215 b 328 517 418 258 328 371 z m 488 517 b 547 388 488 463 510 417 l 547 647 b 488 517 510 617 488 571 z m 846 517 b 786 647 846 572 824 617 l 786 388 b 846 517 824 417 846 463 z "},"∑":{"ha":1333,"x_min":0,"x_max":0,"o":"m 278 96 l 511 486 l 278 886 l 278 1101 l 1054 1101 l 1054 888 l 578 888 l 789 514 l 789 453 l 578 97 l 1054 97 l 1054 -117 l 278 -117 z "},"∏":{"ha":1333,"x_min":0,"x_max":0,"o":"m 813 -117 l 813 888 l 522 888 l 522 -117 l 257 -117 l 257 1101 l 1076 1101 l 1076 -117 z "},"¤":{"ha":1006,"x_min":0,"x_max":0,"o":"m 865 507 b 819 333 865 443 850 383 l 956 196 l 801 40 l 657 185 b 503 150 610 163 560 150 b 347 185 446 150 394 163 l 204 40 l 49 196 l 185 333 b 140 507 156 383 140 443 b 185 681 140 571 156 631 l 49 818 l 204 974 l 347 829 b 503 864 394 851 446 864 b 657 829 560 864 610 851 l 801 974 l 956 818 l 819 681 b 865 507 850 631 865 571 z m 636 507 b 503 653 636 597 579 653 b 368 507 426 653 368 597 b 503 363 368 417 426 363 b 636 507 579 363 636 417 z "},"℉":{"ha":1333,"x_min":0,"x_max":0,"o":"m 544 -10 l 544 1101 l 1242 1101 l 1242 888 l 808 888 l 808 650 l 1193 650 l 1193 436 l 808 436 l 808 -10 z m 475 908 b 250 694 475 786 385 694 b 24 908 115 694 24 786 b 250 1122 24 1031 115 1122 b 475 908 385 1122 475 1031 z m 183 908 b 250 839 183 865 211 839 b 315 908 288 839 315 865 b 250 978 315 950 288 978 b 183 908 211 978 183 950 z "},"‰":{"ha":1844,"x_min":0,"x_max":0,"o":"m 785 1100 l 964 1100 l 510 -8 l 331 -8 z m 244 819 b 306 669 244 703 261 669 b 367 819 351 669 367 703 b 306 971 367 938 351 971 b 244 819 261 971 244 938 z m 60 819 b 304 1119 60 1015 139 1119 b 551 819 472 1119 551 1015 b 307 521 551 624 472 521 b 60 819 139 521 60 624 z m 1051 272 b 989 422 1051 389 1035 422 b 928 272 944 422 928 389 b 989 121 928 154 944 121 b 1051 272 1035 121 1051 154 z m 1235 272 b 992 -28 1235 76 1156 -28 b 743 272 822 -28 743 76 b 989 571 743 468 822 571 b 1235 272 1156 571 1235 468 z m 1601 272 b 1540 422 1601 389 1585 422 b 1478 272 1494 422 1478 389 b 1540 121 1478 154 1494 121 b 1601 272 1585 121 1601 154 z m 1785 272 b 1542 -28 1785 76 1706 -28 b 1293 272 1372 -28 1293 76 b 1539 571 1293 468 1372 571 b 1785 272 1706 571 1785 468 z "},"◁":{"ha":1333,"x_min":0,"x_max":0,"o":"m 67 547 l 1182 1185 l 1182 -90 z m 339 547 l 1028 156 l 1028 940 z "},"◀":{"ha":1333,"x_min":0,"x_max":0,"o":"m 67 547 l 1182 1185 l 1182 -90 z "},"▷":{"ha":1333,"x_min":0,"x_max":0,"o":"m 150 1185 l 1265 547 l 150 -90 z m 306 156 l 993 547 l 306 940 z "},"▶":{"ha":1333,"x_min":0,"x_max":0,"o":"m 150 1185 l 1265 547 l 150 -90 z "},"♤":{"ha":1333,"x_min":0,"x_max":0,"o":"m 68 529 b 269 861 68 644 154 760 b 667 1133 382 958 531 1054 b 1063 863 803 1057 950 961 b 1265 529 1176 761 1265 644 b 1179 331 1265 447 1229 376 b 982 264 1129 285 1053 263 b 765 360 897 264 813 297 b 1007 78 782 222 854 117 l 1007 -19 l 324 -19 l 324 78 b 564 358 472 114 547 225 b 350 264 519 299 432 264 b 147 335 274 263 194 290 b 68 529 99 379 68 447 z m 635 597 l 700 597 b 790 440 707 540 739 479 b 967 393 840 403 914 393 b 1115 543 1060 393 1115 446 b 961 785 1115 626 1049 708 b 667 997 868 867 760 946 b 365 778 571 940 461 864 b 219 543 274 696 219 618 b 365 383 219 446 264 383 b 538 438 413 383 485 401 b 635 597 589 474 629 539 z m 793 81 l 793 86 b 668 417 701 156 675 279 l 663 417 b 538 86 653 276 629 156 l 538 81 z "},"♠":{"ha":1333,"x_min":0,"x_max":0,"o":"m 68 529 b 269 861 68 644 154 760 b 667 1133 382 958 531 1054 b 1063 863 803 1057 950 961 b 1265 529 1176 761 1265 644 b 1179 331 1265 447 1229 376 b 982 264 1129 285 1053 263 b 757 364 897 264 806 299 b 1007 78 774 221 854 117 l 1007 -19 l 324 -19 l 324 78 b 572 363 472 114 553 225 b 350 264 526 301 432 264 b 147 335 274 263 194 290 b 68 529 99 379 68 447 z "},"♡":{"ha":1333,"x_min":0,"x_max":0,"o":"m 1265 717 b 1081 292 1265 569 1186 418 b 667 -33 975 165 810 40 b 249 292 517 43 357 164 b 68 717 142 418 68 569 b 153 950 68 824 101 901 b 351 1026 206 999 281 1026 b 546 956 422 1026 492 1001 b 667 769 597 911 643 844 b 785 956 689 844 732 911 b 983 1026 838 1001 908 1026 b 1181 953 1056 1026 1129 1001 b 1265 717 1232 904 1265 824 z m 722 617 l 610 617 b 499 836 594 696 551 782 b 364 893 461 875 414 893 b 221 706 282 893 221 824 b 361 382 221 601 276 488 b 667 122 443 279 564 183 b 967 379 774 179 883 274 b 1113 706 1051 486 1113 601 b 971 893 1113 824 1060 893 b 829 838 918 893 865 875 b 722 617 776 785 738 696 z "},"♥":{"ha":1333,"x_min":0,"x_max":0,"o":"m 1265 717 b 1081 292 1265 569 1186 418 b 667 -33 975 165 810 40 b 249 292 517 43 357 164 b 68 717 142 418 68 569 b 153 950 68 824 101 901 b 351 1026 206 999 281 1026 b 546 956 422 1026 492 1001 b 667 769 597 911 643 844 b 785 956 689 844 732 911 b 983 1026 838 1001 908 1026 b 1181 953 1056 1026 1129 1001 b 1265 717 1232 904 1265 824 z "},"♧":{"ha":1333,"x_min":0,"x_max":0,"o":"m 922 878 b 665 626 922 742 814 626 b 408 878 517 626 408 740 b 665 1131 408 1014 517 1131 b 922 878 811 1131 922 1013 z m 1007 78 l 1007 -19 l 324 -19 l 324 78 b 622 453 482 111 599 257 l 708 453 b 1007 78 731 251 846 115 z m 789 878 b 665 1008 789 956 733 1008 b 542 878 594 1008 542 956 b 665 746 542 800 594 746 b 789 878 735 746 789 800 z m 800 78 l 800 81 b 667 269 731 111 676 183 l 664 269 b 531 81 651 183 596 110 l 531 78 z m 578 461 b 322 208 578 325 471 208 b 65 461 174 208 65 324 b 322 713 65 597 174 713 b 578 461 468 713 578 596 z m 446 461 b 322 592 446 538 390 592 b 199 461 250 592 199 538 b 322 329 199 382 250 329 b 446 461 392 329 446 382 z m 1268 461 b 1011 208 1268 325 1160 208 b 754 461 863 208 754 324 b 1011 713 754 597 863 713 b 1268 461 1157 713 1268 596 z m 1135 461 b 1011 592 1135 538 1079 592 b 888 461 940 592 888 538 b 1011 329 888 382 940 329 b 1135 461 1081 329 1135 382 z "},"♣":{"ha":1333,"x_min":0,"x_max":0,"o":"m 922 878 b 665 626 922 742 814 626 b 408 878 517 626 408 740 b 665 1131 408 1014 517 1131 b 922 878 811 1131 922 1013 z m 1007 78 l 1007 -19 l 324 -19 l 324 78 b 636 453 482 111 613 246 l 694 453 b 1007 78 717 240 846 115 z m 578 461 b 322 208 578 325 471 208 b 65 461 174 208 65 324 b 322 713 65 597 174 713 b 578 461 468 713 578 596 z m 1268 461 b 1011 208 1268 325 1160 208 b 754 461 863 208 754 324 b 1011 713 754 597 863 713 b 1268 461 1157 713 1268 596 z "},"◈":{"ha":1333,"x_min":0,"x_max":0,"o":"m 667 1214 l 1306 539 l 667 -135 l 28 539 z m 667 1010 l 221 539 l 667 68 l 1110 539 z m 379 539 l 667 843 l 951 539 l 667 235 z "},"▣":{"ha":1333,"x_min":0,"x_max":0,"o":"m 278 153 l 1056 153 l 1056 939 l 278 939 z m 1203 14 l 131 14 l 131 1076 l 1203 1076 z m 914 296 l 418 296 l 418 794 l 914 794 z "},"◐":{"ha":1333,"x_min":0,"x_max":0,"o":"m 1290 542 b 667 -82 1290 189 1024 -82 b 43 542 308 -82 43 189 b 667 1165 43 894 310 1165 b 1290 542 1022 1165 1290 893 z m 1142 542 b 667 1028 1142 818 944 1028 l 667 54 b 1142 542 944 54 1142 264 z "},"◑":{"ha":1333,"x_min":0,"x_max":0,"o":"m 1289 542 b 667 -81 1289 188 1022 -81 b 43 542 308 -81 43 188 b 667 1164 43 893 310 1164 b 1289 542 1022 1164 1289 893 z m 193 542 b 667 56 193 263 390 56 l 667 1028 b 193 542 390 1028 193 818 z "},"▒":{"ha":1333,"x_min":0,"x_max":0,"o":"m 617 108 l 617 206 l 711 206 l 711 108 z m 865 206 l 958 206 l 958 108 l 865 108 z m 836 108 l 740 108 l 740 206 l 836 206 z m 464 108 l 371 108 l 371 206 l 464 206 z m 339 108 l 246 108 l 246 206 l 339 206 z m 586 108 l 492 108 l 492 206 l 586 206 z m 989 206 l 1082 206 l 1082 108 l 989 108 z m 617 236 l 617 332 l 711 332 l 711 236 z m 865 332 l 958 332 l 958 236 l 865 236 z m 836 236 l 740 236 l 740 332 l 836 332 z m 464 236 l 371 236 l 371 332 l 464 332 z m 339 236 l 246 236 l 246 332 l 339 332 z m 586 236 l 492 236 l 492 332 l 586 332 z m 989 332 l 1082 332 l 1082 236 l 989 236 z m 617 361 l 617 458 l 711 458 l 711 361 z m 865 458 l 958 458 l 958 361 l 865 361 z m 836 361 l 740 361 l 740 458 l 836 458 z m 464 361 l 371 361 l 371 458 l 464 458 z m 339 361 l 246 361 l 246 458 l 339 458 z m 586 361 l 492 361 l 492 458 l 586 458 z m 989 458 l 1082 458 l 1082 361 l 989 361 z m 617 486 l 617 586 l 711 586 l 711 486 z m 865 586 l 958 586 l 958 486 l 865 486 z m 836 486 l 740 486 l 740 586 l 836 586 z m 464 486 l 371 486 l 371 586 l 464 586 z m 339 486 l 246 486 l 246 586 l 339 586 z m 586 486 l 492 486 l 492 586 l 586 586 z m 989 586 l 1082 586 l 1082 486 l 989 486 z m 617 615 l 617 713 l 711 713 l 711 615 z m 865 713 l 958 713 l 958 615 l 865 615 z m 836 615 l 740 615 l 740 713 l 836 713 z m 464 615 l 371 615 l 371 713 l 464 713 z m 339 615 l 246 615 l 246 713 l 339 713 z m 586 615 l 492 615 l 492 713 l 586 713 z m 989 713 l 1082 713 l 1082 615 l 989 615 z m 617 740 l 617 838 l 711 838 l 711 740 z m 865 838 l 958 838 l 958 740 l 865 740 z m 836 740 l 740 740 l 740 838 l 836 838 z m 464 740 l 371 740 l 371 838 l 464 838 z m 339 740 l 246 740 l 246 838 l 339 838 z m 586 740 l 492 740 l 492 838 l 586 838 z m 989 838 l 1082 838 l 1082 740 l 989 740 z m 617 867 l 617 964 l 711 964 l 711 867 z m 865 964 l 958 964 l 958 867 l 865 867 z m 836 867 l 740 867 l 740 964 l 836 964 z m 464 867 l 371 867 l 371 964 l 464 964 z m 339 867 l 246 867 l 246 964 l 339 964 z m 586 867 l 492 867 l 492 964 l 586 964 z m 989 964 l 1082 964 l 1082 867 l 989 867 z m 1206 4 l 128 4 l 128 1072 l 1206 1072 z m 217 78 l 1114 78 l 1114 992 l 217 992 z "},"▤":{"ha":1333,"x_min":0,"x_max":0,"o":"m 1206 4 l 128 4 l 128 1072 l 1206 1072 z m 217 571 l 217 500 l 1114 500 l 1114 571 z m 217 281 l 217 213 l 1114 213 l 1114 281 z m 217 422 l 217 356 l 1114 356 l 1114 422 z m 217 714 l 217 647 l 1114 647 l 1114 714 z m 217 858 l 217 790 l 1114 790 l 1114 858 z m 217 78 l 1114 78 l 1114 138 l 217 138 z m 1114 933 l 1114 992 l 217 992 l 217 933 z "},"▥":{"ha":1333,"x_min":0,"x_max":0,"o":"m 1206 4 l 128 4 l 128 1072 l 1206 1072 z m 353 992 l 353 78 l 418 78 l 418 992 z m 632 992 l 632 78 l 697 78 l 697 992 z m 911 992 l 911 78 l 976 78 l 976 992 z m 493 992 l 493 78 l 557 78 l 557 992 z m 772 992 l 772 78 l 836 78 l 836 992 z m 1054 78 l 1114 78 l 1114 992 l 1054 992 z m 217 992 l 217 78 l 276 78 l 276 992 z "},"▨":{"ha":1333,"x_min":0,"x_max":0,"o":"m 1206 4 l 128 4 l 128 1072 l 1206 1072 z m 218 231 l 218 142 l 1068 992 l 981 992 z m 260 78 l 344 78 l 1115 849 l 1115 935 z m 451 78 l 543 78 l 1115 650 l 1115 742 z m 218 428 l 218 336 l 874 992 l 783 992 z m 650 78 l 742 78 l 1115 454 l 1115 543 z m 218 619 l 218 528 l 682 992 l 592 992 z m 849 78 l 939 78 l 1115 257 l 1115 349 z m 218 814 l 218 725 l 485 992 l 396 992 z m 218 992 l 218 919 l 289 992 z m 1046 78 l 1115 78 l 1115 151 z "},"▧":{"ha":1333,"x_min":0,"x_max":0,"o":"m 1206 4 l 128 4 l 128 1072 l 1206 1072 z m 1115 142 l 1115 231 l 353 992 l 265 992 z m 989 78 l 1074 78 l 218 935 l 218 849 z m 790 78 l 882 78 l 218 742 l 218 650 z m 1115 336 l 1115 428 l 550 992 l 458 992 z m 592 78 l 683 78 l 218 543 l 218 454 z m 1115 528 l 1115 619 l 742 992 l 651 992 z m 394 78 l 485 78 l 218 349 l 218 257 z m 1115 725 l 1115 814 l 938 992 l 849 992 z m 1115 919 l 1115 992 l 1044 992 z m 218 78 l 288 78 l 218 151 z "},"▦":{"ha":1333,"x_min":0,"x_max":0,"o":"m 1206 4 l 128 4 l 128 1072 l 1206 1072 z m 629 574 l 629 497 l 700 497 l 700 574 z m 350 574 l 350 497 l 421 497 l 421 574 z m 908 574 l 908 497 l 979 497 l 979 574 z m 769 574 l 769 497 l 839 497 l 839 574 z m 490 574 l 490 497 l 560 497 l 560 574 z m 629 425 l 629 353 l 700 353 l 700 425 z m 629 283 l 629 210 l 700 210 l 700 283 z m 629 717 l 629 644 l 700 644 l 700 717 z m 629 861 l 629 788 l 700 788 l 700 861 z m 350 717 l 350 644 l 421 644 l 421 717 z m 350 283 l 350 210 l 421 210 l 421 283 z m 350 425 l 350 353 l 421 353 l 421 425 z m 350 861 l 350 788 l 421 788 l 421 861 z m 908 283 l 908 210 l 979 210 l 979 283 z m 908 425 l 908 353 l 979 353 l 979 425 z m 908 717 l 908 644 l 979 644 l 979 717 z m 908 861 l 908 788 l 979 788 l 979 861 z m 769 283 l 769 210 l 839 210 l 839 283 z m 769 717 l 769 644 l 839 644 l 839 717 z m 769 861 l 769 788 l 839 788 l 839 861 z m 769 425 l 769 353 l 839 353 l 839 425 z m 490 283 l 490 210 l 560 210 l 560 283 z m 490 425 l 490 353 l 560 353 l 560 425 z m 490 717 l 490 644 l 560 644 l 560 717 z m 490 861 l 490 788 l 560 788 l 560 861 z m 217 574 l 217 497 l 279 497 l 279 574 z m 1051 574 l 1051 497 l 1114 497 l 1114 574 z m 217 283 l 217 210 l 279 210 l 279 283 z m 217 717 l 217 644 l 279 644 l 279 717 z m 217 861 l 217 788 l 279 788 l 279 861 z m 1051 425 l 1051 353 l 1114 353 l 1114 425 z m 1051 717 l 1051 644 l 1114 644 l 1114 717 z m 1051 283 l 1051 210 l 1114 210 l 1114 283 z m 1051 861 l 1051 788 l 1114 788 l 1114 861 z m 217 425 l 217 353 l 279 353 l 279 425 z m 629 140 l 629 78 l 700 78 l 700 140 z m 908 140 l 908 78 l 979 78 l 979 140 z m 350 140 l 350 78 l 421 78 l 421 140 z m 350 992 l 350 931 l 421 931 l 421 992 z m 629 992 l 629 931 l 700 931 l 700 992 z m 908 992 l 908 931 l 979 931 l 979 992 z m 769 140 l 769 78 l 839 78 l 839 140 z m 490 140 l 490 78 l 560 78 l 560 140 z m 769 992 l 769 931 l 839 931 l 839 992 z m 490 992 l 490 931 l 560 931 l 560 992 z m 1051 78 l 1114 78 l 1114 140 l 1051 140 z m 217 140 l 217 78 l 279 78 l 279 140 z m 217 992 l 217 931 l 279 931 l 279 992 z m 1114 931 l 1114 992 l 1051 992 l 1051 931 z "},"▩":{"ha":1333,"x_min":0,"x_max":0,"o":"m 1206 4 l 128 4 l 128 1072 l 1206 1072 z m 324 539 l 375 488 l 426 539 l 375 590 z m 765 199 l 714 147 l 765 96 l 817 147 z m 228 635 l 279 583 l 331 635 l 279 686 z m 615 247 l 667 196 l 718 247 l 667 299 z m 567 199 l 517 149 l 567 96 l 618 147 z m 1053 685 l 1003 635 l 1054 583 l 1106 635 z m 615 831 l 667 779 l 717 829 l 665 881 z m 957 589 l 907 539 l 958 488 l 1008 538 z m 711 926 l 763 875 l 813 925 l 763 976 z m 519 926 l 571 875 l 621 925 l 571 976 z m 225 440 l 276 389 l 326 439 l 275 490 z m 1006 439 l 1056 389 l 1107 440 l 1057 490 z m 1056 294 l 1007 244 l 1058 193 l 1107 243 z m 225 243 l 275 193 l 326 244 l 276 294 z m 858 490 l 810 442 l 861 390 l 910 439 z m 422 439 l 472 390 l 524 442 l 474 490 z m 471 878 l 422 829 l 474 778 l 522 826 z m 518 733 l 569 682 l 618 731 l 567 782 z m 324 342 l 374 292 l 424 342 l 375 392 z m 958 392 l 908 342 l 960 292 l 1008 342 z m 714 731 l 764 682 l 814 732 l 765 782 z m 861 878 l 810 826 l 860 778 l 910 828 z m 763 394 l 714 346 l 765 294 l 814 343 z m 375 782 l 326 733 l 378 682 l 426 731 z m 422 638 l 474 586 l 522 635 l 471 686 z m 863 296 l 814 247 l 865 196 l 913 244 z m 960 197 l 913 149 l 964 97 l 1011 146 z m 325 926 l 375 876 l 424 925 l 374 975 z m 908 925 l 958 876 l 1008 926 l 958 975 z m 519 343 l 567 294 l 618 346 l 571 394 z m 372 196 l 322 146 l 369 97 l 421 149 z m 667 683 l 617 633 l 667 585 l 715 633 z m 278 879 l 229 831 l 279 781 l 328 829 z m 421 244 l 468 196 l 519 247 l 471 294 z m 811 635 l 858 586 l 910 638 l 861 685 z m 907 731 l 954 682 l 1006 733 l 957 781 z m 571 588 l 522 539 l 571 489 l 619 538 z m 1006 829 l 1053 781 l 1103 831 l 1056 879 z m 714 538 l 761 489 l 811 539 l 763 586 z m 618 442 l 667 394 l 715 443 l 667 490 z m 644 78 l 689 78 l 667 100 z m 843 78 l 888 78 l 865 100 z m 446 78 l 490 78 l 468 100 z m 667 971 l 688 992 l 646 992 z m 1040 78 l 1079 78 l 1058 97 z m 254 78 l 293 78 l 274 97 z m 861 974 l 879 992 l 843 992 z m 472 974 l 490 992 l 454 992 z m 276 974 l 294 992 l 260 992 z m 1056 974 l 1074 992 l 1039 992 z m 218 747 l 218 719 l 232 733 z m 1115 719 l 1115 747 l 1101 733 z m 218 940 l 218 914 l 231 926 z m 218 549 l 218 522 l 231 535 z m 1115 914 l 1115 940 l 1101 926 z m 1115 522 l 1115 549 l 1101 535 z m 218 354 l 218 331 l 229 342 z m 1115 331 l 1115 354 l 1103 342 z m 218 157 l 218 136 l 228 146 z m 1115 136 l 1115 157 l 1104 146 z "},"♨":{"ha":1333,"x_min":0,"x_max":0,"o":"m 767 488 b 633 218 767 390 715 281 b 565 263 590 186 542 224 b 615 460 597 315 615 390 b 578 638 615 517 597 581 b 536 829 556 700 535 769 b 581 975 538 879 556 931 b 688 1094 604 1019 650 1067 b 742 1046 725 1121 771 1086 b 689 856 703 992 689 922 b 726 676 690 800 707 738 b 767 488 746 615 767 550 z m 547 488 b 419 235 547 375 489 288 b 351 275 368 196 326 233 b 396 457 381 322 400 393 b 357 590 393 501 378 546 b 315 746 338 635 318 694 b 453 1021 310 864 375 957 b 513 971 496 1057 547 1021 b 468 775 472 913 464 846 b 504 632 471 724 486 671 b 547 488 525 585 547 536 z m 319 444 b 329 385 360 447 367 394 b 214 275 258 368 214 329 b 668 146 214 190 456 146 b 1121 278 881 146 1121 192 b 1022 376 1121 328 1078 364 b 1032 433 993 382 1006 436 b 1267 247 1167 422 1267 340 b 668 -18 1267 69 960 -18 b 68 240 378 -18 65 63 b 319 444 69 351 168 431 z m 992 488 b 864 235 992 375 933 288 b 796 275 813 196 771 233 b 840 457 825 322 844 393 b 801 590 838 501 822 546 b 760 746 782 635 763 694 b 897 1021 754 864 819 957 b 957 971 940 1057 992 1021 b 913 775 917 913 908 846 b 949 632 915 724 931 671 b 992 488 969 585 992 536 z "},"☏":{"ha":1333,"x_min":0,"x_max":0,"o":"m 349 988 l 988 988 b 1267 675 1189 985 1260 806 b 1219 625 1268 644 1258 621 l 999 649 b 951 714 961 653 951 682 b 950 771 951 733 951 753 b 910 815 947 796 939 815 l 896 815 l 896 697 b 1172 272 1015 615 1165 428 l 1161 143 b 1111 94 1158 111 1144 94 l 228 94 b 174 142 189 94 176 106 l 163 265 b 439 697 163 439 354 644 l 439 815 l 425 815 b 389 735 386 815 389 788 l 389 701 b 346 649 389 671 376 651 l 110 626 b 64 672 82 624 64 642 b 349 988 64 814 146 985 z m 699 815 l 636 815 l 636 708 l 699 708 z m 1040 725 l 1167 710 b 990 910 1156 818 1094 910 l 344 910 b 165 715 219 910 171 801 l 296 731 l 296 747 b 400 892 296 839 313 892 l 893 892 b 1040 743 1008 892 1040 851 z m 458 406 b 671 610 458 526 551 610 b 881 406 788 610 881 521 b 671 200 881 286 789 200 b 458 406 547 200 458 282 z m 261 263 l 267 183 l 1067 183 l 1076 268 b 811 656 1074 407 908 613 l 811 815 l 783 815 l 783 632 l 550 632 l 550 815 l 525 815 l 525 656 b 261 263 418 594 267 404 z m 788 406 b 671 529 788 472 739 529 b 551 406 599 529 551 475 b 671 281 551 336 597 281 b 788 406 740 281 788 336 z "},"☎":{"ha":1333,"x_min":0,"x_max":0,"o":"m 1218 631 l 988 654 b 951 693 961 657 951 669 b 946 789 951 721 949 761 b 913 835 942 817 932 835 l 876 835 l 876 700 b 1042 554 917 683 982 628 b 1174 272 1110 469 1174 363 l 1163 139 b 1113 96 1160 108 1140 96 l 224 96 b 174 140 190 96 176 111 l 163 265 b 292 553 163 361 224 468 b 460 700 354 631 414 682 l 460 835 l 421 835 b 388 789 401 835 392 817 b 383 699 385 764 383 724 b 350 654 383 674 372 657 l 113 631 b 64 678 78 626 63 642 b 115 863 67 740 83 804 b 342 988 156 933 226 988 l 994 988 b 1215 860 1106 988 1174 929 b 1268 678 1247 804 1265 735 b 1218 631 1269 640 1251 626 z m 735 835 l 601 835 l 601 704 l 735 704 z m 843 401 b 671 576 843 497 768 576 b 497 401 569 576 497 500 b 671 225 497 300 568 225 b 843 401 771 225 843 304 z "},"☜":{"ha":1333,"x_min":0,"x_max":0,"o":"m 1303 196 l 1115 196 l 1115 217 l 1053 217 b 1031 239 1036 217 1031 224 l 1031 299 b 932 263 989 299 957 281 l 919 254 b 735 194 853 210 813 194 b 635 193 703 194 667 193 b 508 233 585 193 528 204 b 436 322 464 242 436 296 b 440 340 436 329 438 335 b 406 411 419 356 406 386 b 414 443 406 422 408 433 b 382 519 392 463 382 499 l 382 524 l 113 524 b 31 610 60 524 31 565 b 117 696 31 651 58 696 l 497 696 b 553 756 504 731 525 750 b 633 764 579 761 610 764 l 650 764 b 849 719 719 764 792 768 b 925 660 874 699 900 678 b 1015 629 954 639 982 629 l 1031 629 l 1031 678 b 1054 701 1031 693 1036 701 l 1115 701 l 1115 719 l 1303 719 z m 524 593 b 522 589 522 592 522 590 b 542 583 522 583 536 583 b 613 629 579 583 603 601 b 642 660 619 650 628 660 b 667 631 654 660 665 650 b 772 469 671 560 710 507 b 790 442 785 463 790 451 b 764 417 790 429 779 417 b 699 444 746 417 714 435 b 711 331 707 410 711 368 b 631 244 711 272 694 251 b 660 243 639 243 651 243 b 740 249 686 243 715 246 b 897 313 794 250 826 263 b 1031 357 957 354 990 357 l 1031 568 l 1018 568 b 858 642 957 568 910 593 b 650 704 803 693 750 704 l 594 704 b 554 679 561 704 554 694 b 549 643 554 667 554 657 b 524 593 543 631 533 610 z m 486 635 l 125 635 b 90 610 106 635 90 628 b 125 583 90 590 103 583 l 461 583 b 467 600 461 588 464 594 b 486 635 474 614 479 625 z m 1090 276 l 1115 276 l 1115 642 l 1090 642 z m 633 417 b 614 431 632 425 626 431 l 597 431 b 510 425 568 426 539 425 l 483 425 b 469 410 474 425 469 417 b 508 386 469 388 483 386 b 586 390 528 386 560 388 b 633 414 618 394 633 401 z m 579 526 b 475 525 551 525 501 525 b 447 507 453 525 447 522 b 482 485 447 490 457 485 b 607 510 560 485 607 488 b 583 526 607 518 600 526 z m 650 325 b 632 335 649 332 642 336 b 539 329 604 332 571 329 l 511 329 b 501 318 504 329 501 325 b 529 293 501 300 511 293 l 546 293 b 628 300 567 293 599 296 b 651 317 642 301 651 308 b 650 325 651 319 650 324 z "},"☞":{"ha":1333,"x_min":0,"x_max":0,"o":"m 218 196 l 31 196 l 31 719 l 218 719 l 218 701 l 279 701 b 303 678 297 701 303 693 l 303 629 l 318 629 b 408 660 351 629 379 639 b 485 719 433 678 460 699 b 683 764 542 768 614 764 l 700 764 b 781 756 724 764 754 761 b 836 696 808 750 829 731 l 1217 696 b 1303 610 1275 696 1303 651 b 1221 524 1303 565 1274 524 l 951 524 l 951 519 b 919 443 951 499 942 463 b 928 411 925 433 928 422 b 893 340 928 386 914 356 b 897 322 896 335 897 329 b 825 233 897 296 869 242 b 699 193 806 204 749 193 b 599 194 667 193 631 194 b 414 254 521 194 481 210 l 401 263 b 303 299 376 281 344 299 l 303 239 b 281 217 303 224 297 217 l 218 217 z m 810 593 b 785 643 800 610 790 631 b 779 679 779 657 779 667 b 739 704 779 694 772 704 l 683 704 b 475 642 583 704 531 693 b 315 568 424 593 376 568 l 303 568 l 303 357 b 436 313 343 357 376 354 b 593 249 507 263 539 250 b 674 243 618 246 647 243 b 703 244 682 243 694 243 b 622 331 639 251 622 272 b 635 444 622 368 626 410 b 569 417 619 435 588 417 b 543 442 554 417 543 429 b 561 469 543 451 549 463 b 667 631 624 507 663 560 b 692 660 668 650 679 660 b 721 629 706 660 714 650 b 792 583 731 601 754 583 b 811 589 797 583 811 583 b 810 593 811 590 811 592 z m 1208 635 l 847 635 b 867 600 854 625 860 614 b 872 583 869 594 872 588 l 1208 583 b 1243 610 1231 583 1243 590 b 1208 635 1243 628 1228 635 z m 218 276 l 243 276 l 243 642 l 218 642 z m 700 417 l 700 414 b 747 390 700 401 715 394 b 825 386 774 388 806 386 b 864 410 850 386 864 388 b 850 425 864 417 860 425 l 824 425 b 736 431 794 425 765 426 l 719 431 b 700 417 707 431 701 425 z m 754 526 l 750 526 b 726 510 733 526 726 518 b 851 485 726 488 774 485 b 886 507 876 485 886 490 b 858 525 886 522 881 525 b 754 526 832 525 782 525 z m 683 325 b 682 317 683 324 682 319 b 706 300 682 308 692 301 b 788 293 735 296 767 293 l 804 293 b 832 318 822 293 832 300 b 822 329 832 325 829 329 l 794 329 b 701 335 763 329 729 332 b 683 325 692 336 685 332 z "},"¶":{"ha":1333,"x_min":0,"x_max":0,"o":"m 572 1101 l 1057 1101 l 1057 -218 l 882 -218 l 882 943 l 811 943 l 811 -218 l 633 -218 l 633 414 l 592 414 b 249 754 396 414 249 539 l 249 764 b 572 1101 249 976 371 1101 z "},"†":{"ha":1333,"x_min":0,"x_max":0,"o":"m 1031 910 l 1031 724 l 781 724 l 781 -217 l 550 -217 l 550 724 l 301 724 l 301 910 l 550 910 l 550 1176 l 781 1176 l 781 910 z "},"‡":{"ha":1333,"x_min":0,"x_max":0,"o":"m 301 50 l 301 233 l 550 233 l 550 724 l 301 724 l 301 910 l 550 910 l 550 1176 l 781 1176 l 781 910 l 1031 910 l 1031 724 l 781 724 l 781 233 l 1031 233 l 1031 50 l 781 50 l 781 -217 l 550 -217 l 550 50 z "},"↕":{"ha":1333,"x_min":0,"x_max":0,"o":"m 350 331 l 535 331 l 535 778 l 350 778 l 667 1181 l 981 778 l 797 778 l 797 331 l 981 331 l 667 -69 z "},"↗":{"ha":1333,"x_min":0,"x_max":0,"o":"m 364 -1 l 178 185 l 778 785 l 649 914 l 1154 976 l 1094 469 l 964 599 z "},"↙":{"ha":1333,"x_min":0,"x_max":0,"o":"m 969 976 l 1154 792 l 556 192 l 685 61 l 178 -1 l 239 507 l 369 376 z "},"↖":{"ha":1333,"x_min":0,"x_max":0,"o":"m 1154 185 l 969 -1 l 369 599 l 239 469 l 178 976 l 685 914 l 556 785 z "},"↘":{"ha":1333,"x_min":0,"x_max":0,"o":"m 178 792 l 364 976 l 964 376 l 1094 507 l 1154 -1 l 649 61 l 778 192 z "},"♭":{"ha":1333,"x_min":0,"x_max":0,"o":"m 543 1174 l 543 481 b 756 629 583 560 651 629 b 975 376 881 629 975 525 b 436 -50 975 143 717 -53 l 436 1174 z m 543 267 l 543 43 b 815 357 692 54 815 204 b 715 528 815 474 782 528 b 543 267 621 528 543 411 z "},"♩":{"ha":1333,"x_min":0,"x_max":0,"o":"m 732 197 l 732 1172 l 833 1172 l 833 117 b 511 -149 833 -44 688 -149 b 358 -17 424 -149 358 -100 b 635 214 358 108 499 214 b 732 197 672 214 706 208 z "},"♪":{"ha":1333,"x_min":0,"x_max":0,"o":"m 635 196 l 635 1168 l 713 1168 b 889 867 713 1019 779 951 b 1094 525 1001 779 1094 674 b 957 160 1094 376 1028 250 l 907 160 b 994 472 964 251 994 365 b 736 789 994 631 888 742 l 736 117 b 415 -149 736 -43 592 -149 b 263 -15 328 -149 263 -99 b 539 213 263 107 401 213 b 635 196 575 213 608 207 z "},"♬":{"ha":1333,"x_min":0,"x_max":0,"o":"m 1108 917 l 1108 1003 l 483 860 l 483 769 z m 1208 1200 l 1208 269 b 889 4 1208 108 1065 4 b 738 136 801 4 738 53 b 1014 365 738 258 876 365 b 1108 350 1050 365 1083 361 l 1108 747 l 483 600 l 483 117 b 164 -149 483 -43 339 -149 b 13 -15 76 -149 13 -99 b 289 214 13 107 150 214 b 382 199 325 214 358 208 l 382 1015 z "},"㉿":{"ha":1333,"x_min":0,"x_max":0,"o":"m 1274 626 l 1118 626 b 978 911 1104 742 1054 840 l 793 549 l 999 181 b 1111 451 1065 251 1103 349 l 957 451 l 957 571 l 1278 571 b 667 -79 1283 161 1014 -79 b 58 447 339 -79 85 146 l 214 447 b 667 47 242 215 417 47 b 975 157 797 47 901 89 l 811 157 l 644 472 l 601 472 l 601 157 l 415 157 l 415 921 l 601 921 l 601 624 l 644 624 l 785 921 l 967 921 b 665 1026 889 988 786 1026 b 221 622 390 1026 238 842 l 375 622 l 375 503 l 54 503 b 665 1153 49 913 318 1153 b 1274 626 993 1153 1247 928 z "},"㈜":{"ha":1333,"x_min":0,"x_max":0,"o":"m 43 529 b 232 1131 43 747 110 957 l 364 1131 b 196 529 251 953 196 731 b 364 -71 196 326 251 106 l 232 -71 b 43 529 110 101 43 310 z m 1289 529 b 1100 -71 1289 310 1222 101 l 968 -71 b 1136 524 1081 106 1136 322 b 968 1131 1136 726 1081 953 l 1100 1131 b 1289 529 1222 957 1289 747 z m 301 810 l 301 971 l 1032 971 l 1032 810 l 772 810 b 1040 644 796 707 900 660 l 1040 483 b 665 625 894 490 740 544 b 292 483 592 544 440 490 l 292 646 b 557 810 431 660 536 706 z m 258 269 l 258 432 l 1074 432 l 1074 269 l 767 269 l 767 51 l 563 51 l 563 269 z "},"№":{"ha":1467,"x_min":0,"x_max":0,"o":"m 564 -8 l 324 611 l 324 -8 l 75 -8 l 75 1100 l 297 1100 l 539 481 l 539 1100 l 788 1100 l 788 -8 z m 867 -8 l 867 151 l 1411 151 l 1411 -8 z m 1418 526 b 1139 203 1418 310 1335 203 b 861 526 944 203 861 310 b 1139 850 861 742 944 850 b 1418 526 1335 850 1418 742 z m 1208 526 b 1139 690 1208 654 1193 690 b 1069 526 1086 690 1069 654 b 1139 363 1069 399 1086 363 b 1208 526 1193 363 1208 399 z "},"㏇":{"ha":1333,"x_min":0,"x_max":0,"o":"m 25 546 b 335 1119 25 867 75 1119 b 638 714 528 1119 631 969 l 410 714 b 335 904 407 833 385 904 b 254 546 271 904 254 768 b 335 185 254 329 269 185 b 410 375 385 185 408 257 l 631 375 l 631 388 b 896 803 631 646 704 803 b 1158 388 1086 803 1158 646 b 1147 232 1158 331 1156 278 l 1325 232 l 1325 -8 l 1136 -8 l 1136 176 b 896 -28 1103 44 1026 -28 b 633 307 725 -28 647 94 b 335 -28 611 93 510 -28 b 25 546 76 -28 25 231 z m 847 388 b 896 156 847 214 860 156 b 943 388 932 156 943 213 b 896 617 943 556 932 617 b 847 388 860 617 847 554 z "},"™":{"ha":1064,"x_min":0,"x_max":0,"o":"m 11 971 l 11 1101 l 421 1101 l 421 971 l 297 971 l 297 571 l 135 571 l 135 971 z m 775 571 l 692 571 l 611 772 l 611 571 l 453 571 l 453 1101 l 599 1101 l 733 763 l 869 1101 l 1014 1101 l 1014 571 l 857 571 l 857 772 z "},"㏂":{"ha":1333,"x_min":0,"x_max":0,"o":"m 961 449 l 961 -8 l 806 -8 l 806 503 b 792 619 806 586 803 619 b 767 449 774 619 767 561 l 767 -8 l 615 -8 l 615 783 l 756 783 l 756 763 b 828 803 772 786 800 803 b 924 735 868 803 904 778 b 1019 803 943 776 981 803 b 1150 500 1108 803 1150 707 l 1150 -8 l 1000 -8 l 1000 503 b 985 619 1000 586 996 619 b 961 449 967 619 961 561 z m 271 -8 b 265 26 268 1 267 13 b 167 -28 244 -7 210 -28 b 15 221 76 -28 15 64 b 167 474 15 379 76 474 b 261 422 206 474 240 456 l 261 518 b 221 624 261 585 246 624 b 183 535 196 624 185 590 l 33 535 b 221 803 36 692 100 803 b 411 515 346 803 411 682 l 411 110 b 422 -8 411 67 415 18 z m 213 131 b 261 221 246 131 261 161 b 213 313 261 282 246 313 b 165 221 181 313 165 282 b 213 131 165 161 181 131 z m 588 240 l 588 -8 l 440 -8 l 440 240 z m 1325 240 l 1325 -8 l 1178 -8 l 1178 240 z "},"㏘":{"ha":1333,"x_min":0,"x_max":0,"o":"m 179 783 l 179 742 b 269 803 200 776 233 803 b 429 388 372 803 429 667 b 269 -28 429 106 372 -28 b 179 31 231 -28 199 -7 l 179 -354 l 31 -354 l 31 783 z m 228 153 b 276 388 264 153 276 214 b 228 619 276 557 264 619 b 179 388 192 619 179 556 b 228 153 179 215 192 153 z m 583 240 l 583 -8 l 436 -8 l 436 240 z m 1325 240 l 1325 -8 l 1178 -8 l 1178 240 z m 960 449 l 960 -8 l 804 -8 l 804 503 b 790 619 804 586 801 619 b 765 449 772 619 765 561 l 765 -8 l 613 -8 l 613 783 l 754 783 l 754 763 b 826 803 771 786 799 803 b 921 735 867 803 901 778 b 1017 803 942 776 979 803 b 1149 500 1107 803 1149 707 l 1149 -8 l 999 -8 l 999 503 b 983 619 999 586 994 619 b 960 449 965 619 960 561 z "},"℡":{"ha":1333,"x_min":0,"x_max":0,"o":"m 1040 326 l 683 326 b 753 140 690 186 703 140 b 818 242 792 140 813 168 l 1033 242 b 754 -28 1013 53 907 -28 b 465 388 572 -28 465 83 b 754 803 465 689 572 803 b 1042 388 935 803 1042 689 b 1040 326 1042 364 1042 344 z m 7 886 l 7 1100 l 597 1100 l 597 886 l 419 886 l 419 -8 l 183 -8 l 183 886 z m 1297 -8 l 1079 -8 l 1079 1100 l 1297 1100 z m 754 632 b 685 468 703 632 685 569 l 822 468 b 754 632 822 582 801 632 z "},"＂":{"ha":1333,"x_min":0,"x_max":0,"o":"m 706 754 l 706 1100 l 907 1100 l 907 754 z m 426 754 l 426 1100 l 629 1100 l 629 754 z "},"＃":{"ha":1333,"x_min":0,"x_max":0,"o":"m 624 -8 l 682 256 l 525 256 l 468 -8 l 246 -8 l 304 256 l 157 256 l 157 443 l 344 443 l 389 649 l 211 649 l 211 836 l 429 836 l 488 1100 l 708 1100 l 650 836 l 807 836 l 864 1100 l 1086 1100 l 1028 836 l 1175 836 l 1175 649 l 988 649 l 943 443 l 1121 443 l 1121 256 l 901 256 l 846 -8 z m 611 649 l 567 443 l 721 443 l 767 649 z "},"＄":{"ha":1333,"x_min":0,"x_max":0,"o":"m 761 1240 l 761 1107 b 1036 803 938 1069 1036 944 l 1036 785 l 772 785 l 772 803 b 646 913 772 865 726 913 b 519 803 564 913 519 869 b 768 654 519 708 590 690 b 1078 314 972 613 1078 504 b 790 -17 1078 147 976 22 l 790 -149 l 560 -149 l 560 -17 b 263 307 369 17 263 140 l 263 328 l 525 328 l 525 304 b 671 179 525 229 578 179 b 814 304 763 179 814 229 b 667 440 814 375 772 422 b 256 793 414 482 256 558 b 529 1107 256 944 353 1069 l 529 1240 z "},"％":{"ha":1333,"x_min":0,"x_max":0,"o":"m 804 1100 l 983 1100 l 529 -8 l 350 -8 z m 264 819 b 325 669 264 703 281 669 b 386 819 371 669 386 703 b 325 971 386 938 371 971 b 264 819 281 971 264 938 z m 79 819 b 324 1119 79 1015 158 1119 b 571 819 492 1119 571 1015 b 326 521 571 624 492 521 b 79 819 158 521 79 624 z m 1071 272 b 1008 422 1071 389 1054 422 b 947 272 964 422 947 389 b 1008 121 947 154 964 121 b 1071 272 1054 121 1071 154 z m 1254 272 b 1011 -28 1254 76 1175 -28 b 763 272 842 -28 763 76 b 1008 571 763 468 842 571 b 1254 272 1175 571 1254 468 z "},"＆":{"ha":1333,"x_min":0,"x_max":0,"o":"m 857 560 l 1100 560 b 1003 218 1093 431 1060 314 l 1200 -8 l 907 -8 l 846 63 b 571 -28 775 3 678 -28 b 188 299 336 -28 188 101 b 378 597 188 429 254 532 l 369 610 b 265 851 296 699 265 769 b 585 1119 265 1018 396 1119 b 904 851 775 1119 904 1018 l 904 811 l 658 811 l 658 851 b 585 932 658 903 635 932 b 511 851 536 932 511 903 b 578 708 511 804 526 768 l 836 406 b 857 560 850 450 856 506 z m 436 304 b 585 167 436 210 500 167 b 715 211 635 167 681 182 l 508 447 b 436 304 461 411 436 361 z "},"＇":{"ha":1333,"x_min":0,"x_max":0,"o":"m 565 754 l 565 1100 l 768 1100 l 768 754 z "},"＊":{"ha":1333,"x_min":0,"x_max":0,"o":"m 297 606 l 396 776 l 597 624 l 567 875 l 765 875 l 732 624 l 935 776 l 1035 606 l 800 508 l 1035 410 l 935 238 l 732 390 l 765 140 l 567 140 l 597 390 l 396 238 l 297 410 l 531 508 z "},"＋":{"ha":1333,"x_min":0,"x_max":0,"o":"m 299 414 l 299 601 l 554 601 l 554 874 l 779 874 l 779 601 l 1035 601 l 1035 414 l 779 414 l 779 140 l 554 140 l 554 414 z "},"－":{"ha":1333,"x_min":0,"x_max":0,"o":"m 400 406 l 400 608 l 933 608 l 933 406 z "},"／":{"ha":1333,"x_min":0,"x_max":0,"o":"m 60 44 l 1097 1203 l 1272 1046 l 235 -111 z "},"０":{"ha":1333,"x_min":0,"x_max":0,"o":"m 1057 546 b 942 79 1057 315 1022 174 b 667 -28 881 8 789 -28 b 390 79 543 -28 451 8 b 275 546 310 174 275 315 b 390 1013 275 776 310 918 b 667 1119 451 1083 543 1119 b 942 1013 789 1119 881 1083 b 1057 546 1022 918 1057 776 z m 801 546 b 763 868 801 719 792 819 b 667 919 739 904 708 919 b 569 868 625 919 592 904 b 531 546 540 819 531 719 b 569 224 531 372 540 274 b 667 172 592 188 625 172 b 763 224 708 172 739 188 b 801 546 792 274 801 372 z "},"１":{"ha":1333,"x_min":0,"x_max":0,"o":"m 839 -8 l 582 -8 l 582 867 l 356 765 l 356 978 l 619 1100 l 839 1100 z "},"２":{"ha":1333,"x_min":0,"x_max":0,"o":"m 1022 785 b 907 506 1022 669 993 604 l 633 192 l 1039 192 l 1039 -8 l 311 -8 l 311 176 l 694 618 b 767 786 747 679 767 724 b 658 919 767 871 732 919 b 550 786 586 919 550 872 l 550 738 l 294 738 l 294 785 b 658 1119 294 967 424 1119 b 1022 785 896 1119 1022 967 z "},"３":{"ha":1333,"x_min":0,"x_max":0,"o":"m 665 172 b 792 317 746 172 792 224 b 636 476 792 433 744 476 l 551 476 l 551 674 l 636 674 b 765 804 714 674 765 710 b 665 919 765 878 728 919 b 565 804 603 919 565 878 l 565 785 l 318 785 l 318 815 b 665 1119 318 996 446 1119 b 1014 819 883 1119 1014 994 b 844 581 1014 686 946 611 b 1047 306 976 549 1047 449 b 665 -28 1047 104 894 -28 b 285 306 436 -28 285 104 l 285 340 l 539 340 l 539 317 b 665 172 539 224 585 172 z "},"４":{"ha":1333,"x_min":0,"x_max":0,"o":"m 474 399 l 683 399 l 683 751 z m 1051 399 l 1051 199 l 936 199 l 936 -8 l 683 -8 l 683 199 l 253 199 l 253 399 l 671 1100 l 936 1100 l 936 399 z "},"５":{"ha":1333,"x_min":0,"x_max":0,"o":"m 665 522 b 571 464 618 522 588 497 l 333 464 l 361 1100 l 982 1100 l 982 900 l 599 900 l 585 647 b 744 711 617 685 672 711 b 1038 340 915 711 1038 594 b 665 -28 1038 114 907 -28 b 294 307 435 -28 307 101 l 551 307 b 665 172 558 219 594 172 b 782 347 742 172 782 225 b 665 522 782 458 750 522 z "},"６":{"ha":1333,"x_min":0,"x_max":0,"o":"m 1024 821 l 771 821 b 671 926 765 892 733 926 b 540 619 582 926 544 842 b 728 711 575 676 644 711 b 1046 344 904 711 1046 578 b 674 -28 1046 117 900 -28 b 361 129 536 -28 426 22 b 288 517 303 225 288 360 b 675 1119 288 956 411 1119 b 1024 821 881 1119 1010 1008 z m 546 346 b 668 172 546 232 588 172 b 790 346 747 172 790 232 b 668 521 790 461 747 521 b 546 346 588 521 546 461 z "},"７":{"ha":1333,"x_min":0,"x_max":0,"o":"m 306 900 l 306 1100 l 1028 1100 l 1028 917 l 683 -8 l 421 -8 l 769 900 z "},"８":{"ha":1333,"x_min":0,"x_max":0,"o":"m 667 1119 b 1031 821 892 1119 1031 997 b 868 581 1031 707 964 615 b 1063 306 988 538 1063 447 b 667 -28 1063 100 907 -28 b 269 306 425 -28 269 100 b 464 581 269 447 344 538 b 303 821 368 615 303 707 b 667 1119 303 997 440 1119 z m 667 172 b 808 329 751 172 808 228 b 667 485 808 431 751 485 b 524 329 581 485 524 431 b 667 172 524 228 581 172 z m 667 676 b 779 797 738 676 779 721 b 667 919 779 874 738 919 b 551 797 594 919 551 874 b 667 676 551 721 594 676 z "},"９":{"ha":1333,"x_min":0,"x_max":0,"o":"m 310 269 l 563 269 b 661 164 568 199 600 164 b 793 471 751 164 790 249 b 606 381 758 414 690 381 b 288 746 429 381 288 513 b 661 1119 288 975 432 1119 b 972 961 797 1119 907 1069 b 1046 574 1031 865 1046 731 b 658 -28 1046 135 924 -28 b 310 269 453 -28 324 83 z m 789 744 b 667 918 789 858 744 918 b 543 744 586 918 543 858 b 667 571 543 631 586 571 b 789 744 744 571 789 631 z "},"＠":{"ha":1333,"x_min":0,"x_max":0,"o":"m 667 956 b 358 406 436 956 358 835 b 667 -143 358 -43 450 -143 b 835 -104 728 -143 789 -132 l 892 -256 b 660 -307 825 -290 740 -307 b 160 406 351 -307 160 -169 b 667 1119 160 919 301 1119 b 1172 414 1031 1119 1172 917 b 825 4 1172 149 1049 4 b 496 374 610 4 496 144 b 781 736 496 615 610 736 b 964 636 876 736 939 696 b 667 956 936 865 860 956 z m 704 369 b 839 172 704 233 744 172 b 974 369 933 172 974 233 b 839 568 974 506 933 568 b 704 369 744 568 704 506 z "},"Ａ":{"ha":1333,"x_min":0,"x_max":0,"o":"m 443 -8 l 175 -8 l 528 1100 l 804 1100 l 1158 -8 l 890 -8 l 838 186 l 496 186 z m 550 392 l 782 392 l 667 821 z "},"Ｂ":{"ha":1333,"x_min":0,"x_max":0,"o":"m 806 776 b 667 901 806 868 758 901 l 529 901 l 529 653 l 667 653 b 806 776 758 653 806 686 z m 718 -8 l 265 -8 l 265 1100 l 700 1100 b 1064 797 942 1100 1064 996 b 908 569 1064 681 1006 604 b 1094 317 1022 536 1094 442 b 718 -8 1094 101 965 -8 z m 831 329 b 686 468 831 428 785 468 l 529 468 l 529 190 l 686 190 b 831 329 785 190 831 232 z "},"Ｃ":{"ha":1333,"x_min":0,"x_max":0,"o":"m 217 546 b 331 976 217 721 246 871 b 672 1119 406 1071 514 1119 b 1117 714 949 1119 1108 963 l 854 714 b 672 904 847 833 786 904 b 532 836 608 904 563 882 b 482 546 496 782 482 703 b 532 256 482 389 496 310 b 672 188 563 210 608 188 b 854 378 786 188 849 258 l 1117 378 b 672 -28 1108 129 949 -28 b 331 115 514 -28 406 21 b 217 546 246 221 217 371 z "},"Ｄ":{"ha":1333,"x_min":0,"x_max":0,"o":"m 671 -8 l 247 -8 l 247 1100 l 671 1100 b 1114 546 1029 1100 1114 869 b 671 -8 1114 222 1029 -8 z m 850 546 b 657 892 850 828 793 892 l 511 892 l 511 200 l 657 200 b 850 546 793 200 850 264 z "},"Ｅ":{"ha":1333,"x_min":0,"x_max":0,"o":"m 311 -8 l 311 1100 l 1015 1100 l 1015 886 l 575 886 l 575 667 l 958 667 l 958 453 l 575 453 l 575 206 l 1022 206 l 1022 -8 z "},"Ｆ":{"ha":1333,"x_min":0,"x_max":0,"o":"m 332 -8 l 332 1100 l 1028 1100 l 1028 886 l 596 886 l 596 651 l 979 651 l 979 438 l 596 438 l 596 -8 z "},"Ｇ":{"ha":1333,"x_min":0,"x_max":0,"o":"m 217 546 b 672 1119 217 874 329 1119 b 1117 714 947 1119 1107 961 l 854 714 b 672 904 847 833 786 904 b 482 546 544 904 482 839 b 676 186 482 261 543 186 b 865 397 799 186 857 271 l 676 397 l 676 583 l 1115 583 l 1115 -8 l 926 -8 l 900 117 b 639 -28 863 31 771 -28 b 217 546 336 -28 217 211 z "},"Ｈ":{"ha":1333,"x_min":0,"x_max":0,"o":"m 810 -8 l 810 453 l 521 453 l 521 -8 l 257 -8 l 257 1100 l 521 1100 l 521 667 l 810 667 l 810 1100 l 1075 1100 l 1075 -8 z "},"Ｉ":{"ha":1333,"x_min":0,"x_max":0,"o":"m 799 1100 l 799 -8 l 535 -8 l 535 1100 z "},"Ｊ":{"ha":1333,"x_min":0,"x_max":0,"o":"m 625 -28 b 247 335 375 -28 247 108 l 247 358 l 511 358 b 625 186 511 233 549 186 b 738 353 703 186 738 235 l 738 1100 l 1001 1100 l 1001 335 b 625 -28 1001 108 875 -28 z "},"Ｋ":{"ha":1333,"x_min":0,"x_max":0,"o":"m 1114 1100 l 826 560 l 1154 -8 l 865 -8 l 613 453 l 525 453 l 525 -8 l 261 -8 l 261 1100 l 525 1100 l 525 667 l 613 667 l 828 1100 z "},"Ｌ":{"ha":1333,"x_min":0,"x_max":0,"o":"m 339 -8 l 339 1100 l 603 1100 l 603 206 l 1050 206 l 1050 -8 z "},"Ｍ":{"ha":1333,"x_min":0,"x_max":0,"o":"m 767 -8 l 565 -8 l 347 567 l 347 -8 l 92 -8 l 92 1100 l 346 1100 l 667 258 l 985 1100 l 1240 1100 l 1240 -8 l 985 -8 l 985 567 z "},"Ｎ":{"ha":1333,"x_min":0,"x_max":0,"o":"m 822 -8 l 511 651 l 511 -8 l 250 -8 l 250 1100 l 511 1100 l 822 440 l 822 1100 l 1083 1100 l 1083 -8 z "},"Ｏ":{"ha":1333,"x_min":0,"x_max":0,"o":"m 1122 546 b 1010 115 1122 371 1094 221 b 667 -28 933 21 825 -28 b 325 115 508 -28 400 21 b 211 546 240 221 211 371 b 325 976 211 721 240 871 b 667 1119 400 1071 508 1119 b 1010 976 825 1119 933 1071 b 1122 546 1094 871 1122 721 z m 476 546 b 526 256 476 390 490 310 b 667 188 557 210 603 188 b 807 256 731 188 776 210 b 858 546 844 310 858 390 b 807 836 858 701 844 782 b 667 904 776 882 731 904 b 526 836 603 904 557 882 b 476 546 490 782 476 701 z "},"Ｐ":{"ha":1333,"x_min":0,"x_max":0,"o":"m 736 374 l 543 374 l 543 -8 l 279 -8 l 279 1100 l 736 1100 b 1108 738 975 1100 1108 968 b 736 374 1108 506 975 374 z m 543 588 l 697 588 b 844 738 794 588 844 636 b 697 886 844 838 794 886 l 543 886 z "},"Ｑ":{"ha":1333,"x_min":0,"x_max":0,"o":"m 1161 67 l 1024 -89 l 889 28 b 656 -28 828 -8 749 -28 b 200 546 315 -28 200 213 b 656 1119 200 874 313 1119 b 1110 546 999 1119 1110 875 b 1035 171 1110 399 1092 271 z m 465 546 b 656 186 465 251 526 186 b 693 190 668 186 682 188 l 624 247 l 742 369 l 817 307 b 846 546 838 357 846 429 b 656 904 846 831 783 904 b 465 546 526 904 465 838 z "},"Ｒ":{"ha":1333,"x_min":0,"x_max":0,"o":"m 815 93 l 807 232 b 661 374 800 339 764 374 l 522 374 l 522 -8 l 258 -8 l 258 1100 l 725 1100 b 1088 761 964 1100 1088 969 b 894 482 1088 613 1018 517 b 1068 247 1013 463 1058 392 l 1078 94 b 1101 -8 1081 50 1089 17 l 835 -8 b 815 93 825 15 818 56 z m 522 588 l 675 588 b 824 738 768 588 824 629 b 675 886 824 844 768 886 l 522 886 z "},"Ｓ":{"ha":1333,"x_min":0,"x_max":0,"o":"m 1076 315 b 669 -28 1076 117 933 -28 b 261 307 413 -28 261 113 l 261 328 l 525 328 l 525 304 b 669 179 525 229 576 179 b 813 304 761 179 813 229 b 665 440 813 375 771 419 l 567 460 b 256 794 372 499 256 600 b 646 1119 256 976 394 1119 b 1035 804 894 1119 1035 974 l 1035 786 l 772 786 l 772 804 b 646 913 772 869 726 913 b 518 804 563 913 518 869 b 669 675 518 733 563 697 l 767 656 b 1076 315 972 614 1076 504 z "},"Ｔ":{"ha":1333,"x_min":0,"x_max":0,"o":"m 249 886 l 249 1100 l 1083 1100 l 1083 886 l 799 886 l 799 -8 l 533 -8 l 533 886 z "},"Ｕ":{"ha":1333,"x_min":0,"x_max":0,"o":"m 667 -28 b 233 404 372 -28 233 140 l 233 1100 l 499 1100 l 499 401 b 667 188 499 254 554 188 b 835 401 779 188 835 254 l 835 1100 l 1099 1100 l 1099 404 b 667 -28 1099 140 960 -28 z "},"Ｖ":{"ha":1333,"x_min":0,"x_max":0,"o":"m 442 1100 l 665 269 l 890 1100 l 1157 1100 l 804 -8 l 526 -8 l 175 1100 z "},"Ｗ":{"ha":1333,"x_min":0,"x_max":0,"o":"m 553 1100 l 783 1100 l 944 324 l 1069 1100 l 1333 1100 l 1088 -8 l 836 -8 l 667 785 l 500 -8 l 247 -8 l 1 1100 l 265 1100 l 389 324 z "},"Ｘ":{"ha":1333,"x_min":0,"x_max":0,"o":"m 868 -8 l 667 404 l 465 -8 l 190 -8 l 493 565 l 214 1100 l 489 1100 l 667 722 l 844 1100 l 1119 1100 l 840 565 l 1143 -8 z "},"Ｙ":{"ha":1333,"x_min":0,"x_max":0,"o":"m 667 650 l 871 1100 l 1142 1100 l 799 429 l 799 -8 l 535 -8 l 535 429 l 190 1100 l 461 1100 z "},"Ｚ":{"ha":1333,"x_min":0,"x_max":0,"o":"m 281 190 l 724 886 l 297 886 l 297 1100 l 1043 1100 l 1043 901 l 600 206 l 1051 206 l 1051 -8 l 281 -8 z "},"￦":{"ha":1333,"x_min":0,"x_max":0,"o":"m 553 1100 l 783 1100 l 882 603 l 981 603 l 1056 1100 l 1319 1100 l 1213 603 l 1314 603 l 1314 500 l 1190 500 l 1081 -8 l 829 -8 l 725 500 l 610 500 l 507 -8 l 254 -8 l 144 500 l 10 500 l 10 603 l 122 603 l 15 1100 l 279 1100 l 354 603 l 453 603 z m 903 500 l 938 324 l 964 500 z m 704 603 l 667 785 l 631 603 z m 369 500 l 396 324 l 432 500 z "},"＾":{"ha":1333,"x_min":0,"x_max":0,"o":"m 568 1100 l 764 1100 l 1006 714 l 774 714 l 665 901 l 557 714 l 326 714 z "},"｀":{"ha":1333,"x_min":0,"x_max":0,"o":"m 657 893 l 461 1147 l 724 1147 l 871 893 z "},"ａ":{"ha":1333,"x_min":0,"x_max":0,"o":"m 772 85 b 557 -28 744 21 668 -28 b 290 222 399 -28 290 68 b 557 474 290 378 396 474 b 772 363 658 474 742 433 l 772 518 b 674 624 772 579 739 624 b 574 535 611 624 579 589 l 328 535 b 674 803 335 692 449 803 b 1019 518 900 803 1019 683 l 1019 111 b 1042 -8 1019 67 1028 18 l 790 -8 b 772 85 781 13 774 47 z m 656 131 b 772 222 732 131 772 163 b 656 315 772 282 735 315 b 538 222 576 315 538 282 b 656 131 538 163 578 131 z "},"ｂ":{"ha":1333,"x_min":0,"x_max":0,"o":"m 563 113 l 563 -8 l 315 -8 l 315 1100 l 563 1100 l 563 663 b 778 803 589 746 668 803 b 1072 388 964 803 1072 664 b 778 -28 1072 111 964 -28 b 563 113 668 -28 589 29 z m 563 388 b 694 158 563 219 603 158 b 826 388 785 158 826 219 b 694 617 826 556 785 617 b 563 388 603 617 563 556 z "},"ｃ":{"ha":1333,"x_min":0,"x_max":0,"o":"m 292 388 b 672 803 292 639 410 803 b 1042 497 899 803 1032 685 l 796 497 b 672 617 788 581 746 617 b 539 388 581 617 539 556 b 672 158 539 219 581 158 b 796 278 746 158 788 196 l 1042 278 b 672 -28 1032 90 899 -28 b 292 388 410 -28 292 136 z "},"ｄ":{"ha":1333,"x_min":0,"x_max":0,"o":"m 772 -8 l 772 113 b 556 -28 743 29 664 -28 b 260 388 369 -28 260 111 b 556 803 260 664 369 803 b 772 663 664 803 743 746 l 772 1100 l 1018 1100 l 1018 -8 z m 772 388 b 640 617 772 556 731 617 b 507 388 549 617 507 556 b 640 158 507 219 549 158 b 772 388 731 158 772 219 z "},"ｅ":{"ha":1333,"x_min":0,"x_max":0,"o":"m 1043 328 l 536 328 l 536 314 b 668 144 536 201 586 144 b 782 235 732 144 771 178 l 1029 235 b 668 -28 1003 69 875 -28 b 288 388 404 -28 288 138 b 668 803 288 638 404 803 b 1046 388 931 803 1046 638 b 1043 328 1046 367 1044 342 z m 536 468 l 796 468 b 665 631 793 576 749 631 b 536 468 583 631 539 576 z "},"ｆ":{"ha":1333,"x_min":0,"x_max":0,"o":"m 960 926 l 861 926 b 764 842 788 926 764 901 l 764 783 l 960 783 l 960 599 l 764 599 l 764 -8 l 518 -8 l 518 599 l 400 599 l 400 783 l 518 783 l 518 863 b 814 1111 518 1035 603 1111 b 960 1103 865 1111 921 1110 z "},"ｇ":{"ha":1333,"x_min":0,"x_max":0,"o":"m 799 -69 l 799 113 b 583 -28 771 31 692 -28 b 288 388 396 -28 288 111 b 583 803 288 664 396 803 b 799 663 692 803 771 746 l 799 783 l 1046 783 l 1046 -53 b 685 -376 1046 -239 935 -376 b 331 -117 467 -376 351 -275 l 579 -117 b 686 -207 585 -175 619 -207 b 799 -69 761 -207 799 -164 z m 799 388 b 667 617 799 554 758 617 b 533 388 575 617 533 554 b 667 157 533 219 575 157 b 799 388 758 157 799 219 z "},"ｈ":{"ha":1333,"x_min":0,"x_max":0,"o":"m 1040 497 l 1040 -8 l 793 -8 l 793 490 b 696 617 793 578 761 617 b 567 442 617 617 567 553 l 567 -8 l 319 -8 l 319 1100 l 567 1100 l 567 657 b 785 803 594 744 672 803 b 1040 497 949 803 1040 701 z "},"ｉ":{"ha":1333,"x_min":0,"x_max":0,"o":"m 543 897 l 543 1100 l 789 1100 l 789 897 z m 543 -8 l 543 783 l 789 783 l 789 -8 z "},"ｊ":{"ha":1333,"x_min":0,"x_max":0,"o":"m 569 -58 l 569 783 l 815 783 l 815 -76 b 518 -353 815 -256 724 -353 b 406 -347 489 -353 433 -350 l 406 -169 l 469 -169 b 569 -58 539 -169 569 -135 z m 569 897 l 569 1100 l 815 1100 l 815 897 z "},"ｋ":{"ha":1333,"x_min":0,"x_max":0,"o":"m 325 -8 l 325 1100 l 572 1100 l 572 492 l 628 492 l 774 783 l 1031 783 l 826 403 l 1064 -8 l 803 -8 l 626 317 l 572 317 l 572 -8 z "},"ｌ":{"ha":1333,"x_min":0,"x_max":0,"o":"m 789 -8 l 543 -8 l 543 1100 l 789 1100 z "},"ｍ":{"ha":1333,"x_min":0,"x_max":0,"o":"m 543 -8 l 543 496 b 449 617 543 575 511 617 b 322 440 371 617 322 553 l 322 -8 l 75 -8 l 75 783 l 322 783 l 322 657 b 538 803 350 744 426 803 b 764 656 646 803 728 751 b 1003 803 807 749 889 803 b 1258 496 1167 803 1258 699 l 1258 -8 l 1011 -8 l 1011 496 b 917 617 1011 575 979 617 b 790 440 839 617 790 553 l 790 -8 z "},"ｎ":{"ha":1333,"x_min":0,"x_max":0,"o":"m 1026 497 l 1026 -8 l 779 -8 l 779 490 b 682 617 779 578 747 617 b 553 442 603 617 553 553 l 553 -8 l 306 -8 l 306 783 l 553 783 l 553 657 b 771 803 581 744 658 803 b 1026 497 935 803 1026 701 z "},"ｏ":{"ha":1333,"x_min":0,"x_max":0,"o":"m 535 388 b 668 158 535 219 576 158 b 800 388 758 158 800 219 b 668 617 800 556 758 617 b 535 388 576 617 535 556 z m 288 388 b 668 803 288 639 406 803 b 1046 388 929 803 1046 639 b 668 -28 1046 136 929 -28 b 288 388 406 -28 288 136 z "},"ｐ":{"ha":1333,"x_min":0,"x_max":0,"o":"m 563 783 l 563 663 b 778 803 589 746 668 803 b 1072 388 964 803 1072 664 b 778 -28 1072 111 964 -28 b 563 113 668 -28 589 29 l 563 -353 l 315 -353 l 315 783 z m 563 388 b 694 158 563 219 603 158 b 826 388 785 158 826 219 b 694 617 826 556 785 617 b 563 388 603 617 563 556 z "},"ｑ":{"ha":1333,"x_min":0,"x_max":0,"o":"m 772 663 l 772 783 l 1018 783 l 1018 -353 l 772 -353 l 772 113 b 556 -28 743 29 664 -28 b 260 388 369 -28 260 111 b 556 803 260 664 369 803 b 772 663 664 803 743 746 z m 772 388 b 640 617 772 556 731 617 b 507 388 549 617 507 556 b 640 158 507 219 549 158 b 772 388 731 158 772 219 z "},"ｒ":{"ha":1333,"x_min":0,"x_max":0,"o":"m 886 597 b 689 371 763 597 689 519 l 689 -8 l 442 -8 l 442 783 l 689 783 l 689 629 b 890 803 711 746 775 803 b 947 796 914 803 935 801 l 944 596 b 886 597 931 597 911 597 z "},"ｓ":{"ha":1333,"x_min":0,"x_max":0,"o":"m 331 224 l 331 233 l 578 233 l 578 215 b 668 140 578 171 610 140 b 757 214 725 140 757 172 b 661 297 757 260 731 283 l 579 313 b 329 557 417 344 329 422 b 650 803 329 700 444 803 b 969 567 861 803 969 699 l 969 554 l 722 554 l 722 569 b 649 633 722 606 699 633 b 575 569 603 633 575 608 b 672 492 575 529 604 506 l 754 475 b 1004 228 925 442 1004 369 b 667 -28 1004 78 878 -28 b 331 224 446 -28 331 82 z "},"ｔ":{"ha":1333,"x_min":0,"x_max":0,"o":"m 753 599 l 753 276 b 878 165 753 186 782 165 l 958 165 l 958 -15 b 808 -19 925 -18 851 -19 b 506 243 586 -19 506 51 l 506 599 l 389 599 l 389 783 l 506 783 l 506 1008 l 753 1008 l 753 783 l 958 783 l 958 599 z "},"ｕ":{"ha":1333,"x_min":0,"x_max":0,"o":"m 306 278 l 306 783 l 553 783 l 553 285 b 650 158 553 197 586 158 b 781 333 731 158 781 222 l 781 783 l 1028 783 l 1028 -8 l 781 -8 l 781 118 b 561 -28 751 31 674 -28 b 306 278 399 -28 306 74 z "},"ｖ":{"ha":1333,"x_min":0,"x_max":0,"o":"m 794 -8 l 536 -8 l 261 783 l 513 783 l 667 258 l 819 783 l 1071 783 z "},"ｗ":{"ha":1333,"x_min":0,"x_max":0,"o":"m 571 783 l 761 783 l 914 260 l 1051 783 l 1301 783 l 1049 -8 l 808 -8 l 667 485 l 524 -8 l 283 -8 l 32 783 l 282 783 l 419 260 z "},"ｘ":{"ha":1333,"x_min":0,"x_max":0,"o":"m 799 -8 l 667 264 l 535 -8 l 281 -8 l 506 399 l 297 783 l 550 783 l 667 532 l 783 783 l 1038 783 l 828 399 l 1053 -8 z "},"ｙ":{"ha":1333,"x_min":0,"x_max":0,"o":"m 522 -83 l 549 -10 l 261 783 l 514 783 l 668 271 l 818 783 l 1071 783 l 765 -87 b 467 -353 690 -300 633 -353 b 357 -349 433 -353 386 -353 l 357 -168 l 417 -168 b 522 -83 465 -168 497 -151 z "},"ｚ":{"ha":1333,"x_min":0,"x_max":0,"o":"m 649 176 l 990 176 l 990 -8 l 342 -8 l 342 161 l 672 599 l 354 599 l 354 783 l 979 783 l 979 614 z "},"ㄱ":{"ha":1333,"x_min":0,"x_max":0,"o":"m 213 938 l 1107 938 l 1107 186 l 865 186 l 865 738 l 213 738 z "},"ㄲ":{"ha":1333,"x_min":0,"x_max":0,"o":"m 157 938 l 642 938 l 642 186 l 400 186 l 400 738 l 157 738 z m 694 938 l 1163 938 l 1163 186 l 921 186 l 921 738 l 694 738 z "},"ㄳ":{"ha":1333,"x_min":0,"x_max":0,"o":"m 136 938 l 607 938 l 607 186 l 365 186 l 365 738 l 136 738 z m 803 938 l 1042 938 l 1042 657 b 1185 383 1042 490 1079 425 l 1185 185 b 924 313 1082 196 978 249 b 660 185 871 247 764 197 l 660 383 b 803 657 764 424 803 486 z "},"ㄴ":{"ha":1333,"x_min":0,"x_max":0,"o":"m 1121 186 l 226 186 l 226 938 l 468 938 l 468 386 l 1121 386 z "},"ㄵ":{"ha":1333,"x_min":0,"x_max":0,"o":"m 571 386 l 571 186 l 154 186 l 154 938 l 396 938 l 396 386 z m 1172 938 l 1172 738 l 1022 738 l 1022 671 b 1181 383 1022 504 1072 426 l 1181 185 b 904 338 1072 197 958 265 b 624 185 851 264 733 199 l 624 383 b 783 671 731 425 783 500 l 783 738 l 633 738 l 633 938 z "},"ㄶ":{"ha":1333,"x_min":0,"x_max":0,"o":"m 569 863 l 768 863 l 768 997 l 1013 997 l 1013 863 l 1213 863 l 1213 682 l 569 682 z m 969 407 b 953 458 969 428 964 444 b 892 481 940 472 919 481 b 831 458 864 481 843 472 b 814 407 819 444 814 428 b 831 356 814 386 819 368 b 892 333 843 342 864 333 b 953 356 919 333 940 342 b 969 407 964 368 969 386 z m 576 386 l 576 186 l 154 186 l 154 938 l 396 938 l 396 386 z m 601 407 b 674 581 601 481 626 539 b 892 649 725 625 800 649 b 1110 581 985 649 1058 625 b 1182 407 1157 539 1182 481 b 1110 233 1182 333 1157 274 b 892 165 1058 189 985 165 b 674 233 800 165 725 189 b 601 407 626 274 601 333 z "},"ㄷ":{"ha":1333,"x_min":0,"x_max":0,"o":"m 468 386 l 1121 386 l 1121 186 l 226 186 l 226 938 l 1107 938 l 1107 738 l 468 738 z "},"ㄸ":{"ha":1333,"x_min":0,"x_max":0,"o":"m 924 386 l 1169 386 l 1169 186 l 682 186 l 682 938 l 1156 938 l 1156 738 l 924 738 z m 417 738 l 417 386 l 635 386 l 635 186 l 175 186 l 175 938 l 619 938 l 619 738 z "},"ㄹ":{"ha":1333,"x_min":0,"x_max":0,"o":"m 475 367 l 1128 367 l 1128 172 l 233 172 l 233 661 l 858 661 l 858 757 l 233 757 l 233 951 l 1100 951 l 1100 467 l 475 467 z "},"ㄺ":{"ha":1333,"x_min":0,"x_max":0,"o":"m 725 360 l 725 186 l 168 186 l 168 650 l 426 650 l 426 764 l 168 764 l 168 938 l 654 938 l 654 478 l 394 478 l 394 360 z m 1172 938 l 1172 186 l 932 186 l 932 743 l 707 743 l 707 938 z "},"ㄻ":{"ha":1333,"x_min":0,"x_max":0,"o":"m 694 938 l 1172 938 l 1172 186 l 694 186 z m 890 754 l 890 369 l 976 369 l 976 754 z m 644 360 l 644 186 l 168 186 l 168 650 l 399 650 l 399 764 l 168 764 l 168 938 l 626 938 l 626 478 l 394 478 l 394 360 z "},"ㄼ":{"ha":1333,"x_min":0,"x_max":0,"o":"m 890 724 l 976 724 l 976 938 l 1172 938 l 1172 185 l 693 185 l 693 938 l 890 938 z m 890 546 l 890 369 l 976 369 l 976 546 z m 644 360 l 644 185 l 167 185 l 167 649 l 399 649 l 399 763 l 167 763 l 167 938 l 626 938 l 626 478 l 393 478 l 393 360 z "},"ㄽ":{"ha":1333,"x_min":0,"x_max":0,"o":"m 635 360 l 635 186 l 168 186 l 168 650 l 399 650 l 399 764 l 168 764 l 168 938 l 626 938 l 626 478 l 394 478 l 394 360 z m 807 938 l 1047 938 l 1047 653 b 1185 383 1047 488 1081 425 l 1185 185 b 928 307 1083 194 985 246 b 669 185 872 244 771 197 l 669 383 b 807 653 771 422 807 483 z "},"ㄾ":{"ha":1333,"x_min":0,"x_max":0,"o":"m 921 360 l 1182 360 l 1182 186 l 694 186 l 694 938 l 1172 938 l 1172 764 l 921 764 l 921 650 l 1158 650 l 1158 478 l 921 478 z m 644 360 l 644 186 l 168 186 l 168 650 l 399 650 l 399 764 l 168 764 l 168 938 l 626 938 l 626 478 l 394 478 l 394 360 z "},"ㄿ":{"ha":1333,"x_min":0,"x_max":0,"o":"m 893 756 l 893 368 l 950 368 l 950 756 z m 1128 368 l 1179 368 l 1179 186 l 667 186 l 667 368 l 715 368 l 715 756 l 671 756 l 671 938 l 1172 938 l 1172 756 l 1128 756 z m 638 360 l 638 186 l 168 186 l 168 650 l 392 650 l 392 764 l 168 764 l 168 938 l 619 938 l 619 478 l 394 478 l 394 360 z "},"ㅀ":{"ha":1333,"x_min":0,"x_max":0,"o":"m 639 360 l 639 185 l 167 185 l 167 649 l 392 649 l 392 763 l 167 763 l 167 938 l 619 938 l 619 478 l 393 478 l 393 360 z m 647 863 l 799 863 l 799 997 l 1042 997 l 1042 863 l 1213 863 l 1213 681 l 647 681 z m 871 406 b 889 344 871 379 876 357 b 924 332 897 336 908 332 b 958 344 939 332 950 336 b 976 406 971 357 976 379 b 958 467 976 432 971 454 b 924 479 950 475 939 479 b 889 467 908 479 897 475 b 871 406 876 454 871 432 z m 658 406 b 747 600 658 494 692 560 b 924 649 793 633 853 649 b 1100 600 994 649 1054 633 b 1189 406 1156 560 1189 494 b 1100 211 1189 317 1156 251 b 924 163 1054 178 994 163 b 747 211 853 163 793 178 b 658 406 692 251 658 317 z "},"ㅁ":{"ha":1333,"x_min":0,"x_max":0,"o":"m 226 938 l 1107 938 l 1107 186 l 226 186 z m 865 738 l 468 738 l 468 386 l 865 386 z "},"ㅂ":{"ha":1333,"x_min":0,"x_max":0,"o":"m 468 739 l 865 739 l 865 938 l 1107 938 l 1107 186 l 226 186 l 226 938 l 468 938 z m 865 540 l 468 540 l 468 386 l 865 386 z "},"ㅃ":{"ha":1333,"x_min":0,"x_max":0,"o":"m 422 733 l 563 733 l 563 938 l 782 938 l 782 733 l 911 733 l 911 938 l 1135 938 l 1135 186 l 199 186 l 199 938 l 422 938 z m 911 544 l 782 544 l 782 376 l 911 376 z m 563 544 l 422 544 l 422 376 l 563 376 z "},"ㅄ":{"ha":1333,"x_min":0,"x_max":0,"o":"m 364 726 l 450 726 l 450 938 l 646 938 l 646 186 l 168 186 l 168 938 l 364 938 z m 364 550 l 364 369 l 450 369 l 450 550 z m 807 938 l 1047 938 l 1047 653 b 1185 383 1047 488 1081 425 l 1185 185 b 928 307 1083 194 985 246 b 669 185 872 244 771 197 l 669 383 b 807 653 771 422 807 483 z "},"ㅅ":{"ha":1333,"x_min":0,"x_max":0,"o":"m 665 419 b 174 178 569 293 385 197 l 174 381 b 543 817 421 425 543 565 l 543 951 l 786 951 l 786 817 b 1158 381 786 569 906 428 l 1158 178 b 665 419 953 197 758 293 z "},"ㅆ":{"ha":1333,"x_min":0,"x_max":0,"o":"m 665 185 b 426 385 578 221 478 306 b 113 182 364 294 231 211 l 113 385 b 303 779 242 443 303 536 l 303 938 l 546 938 l 546 779 b 665 421 546 567 596 479 b 783 779 736 481 783 568 l 783 938 l 1026 938 l 1026 779 b 1218 385 1026 536 1088 444 l 1218 182 b 904 385 1099 213 967 294 b 665 185 851 306 754 221 z "},"ㅇ":{"ha":1333,"x_min":0,"x_max":0,"o":"m 428 563 b 481 428 428 508 447 463 b 667 367 521 390 583 367 b 853 428 750 367 811 390 b 906 563 886 463 906 508 b 853 697 906 617 886 663 b 667 758 811 735 750 758 b 481 697 583 758 521 735 b 428 563 447 663 428 617 z m 186 563 b 313 844 186 681 233 776 b 667 958 399 918 524 958 b 1021 844 810 958 935 918 b 1147 563 1100 776 1147 681 b 1021 281 1147 444 1100 349 b 667 167 935 207 810 167 b 313 281 524 167 399 207 b 186 563 233 349 186 444 z "},"ㅈ":{"ha":1333,"x_min":0,"x_max":0,"o":"m 1126 738 l 789 738 b 1143 381 807 540 918 422 l 1143 178 b 665 403 946 194 758 286 b 189 178 568 285 392 194 l 189 381 b 540 738 410 421 522 538 l 206 738 l 206 938 l 1126 938 z "},"ㅉ":{"ha":1333,"x_min":0,"x_max":0,"o":"m 1193 738 l 1019 738 b 1203 385 1022 522 1081 442 l 1203 182 b 897 376 1082 210 958 288 b 665 185 846 297 754 222 b 433 376 576 222 483 297 b 128 182 371 289 244 210 l 128 385 b 310 738 247 440 307 522 l 156 738 l 156 938 l 1193 938 z m 776 738 l 553 738 b 665 421 556 557 597 476 b 776 738 733 478 774 557 z "},"ㅊ":{"ha":1333,"x_min":0,"x_max":0,"o":"m 1126 658 l 799 658 b 1143 381 835 507 944 418 l 1143 178 b 665 390 946 194 760 278 b 189 178 567 276 392 194 l 189 381 b 531 658 383 417 494 504 l 206 658 l 206 858 l 543 858 l 543 1031 l 786 1031 l 786 858 l 1126 858 z "},"ㅋ":{"ha":1333,"x_min":0,"x_max":0,"o":"m 226 938 l 1107 938 l 1107 186 l 865 186 l 865 414 b 544 394 769 399 656 394 l 226 394 l 226 593 l 546 593 b 865 610 653 593 768 597 l 865 738 l 226 738 z "},"ㅌ":{"ha":1333,"x_min":0,"x_max":0,"o":"m 475 367 l 1128 367 l 1128 172 l 233 172 l 233 951 l 1100 951 l 1100 757 l 475 757 l 475 661 l 1086 661 l 1086 467 l 475 467 z "},"ㅍ":{"ha":1333,"x_min":0,"x_max":0,"o":"m 764 599 l 764 738 l 568 738 l 568 386 l 742 386 b 764 599 760 443 764 519 z m 1006 738 l 1006 608 b 981 386 1006 524 1001 444 l 1163 386 l 1163 186 l 171 186 l 171 386 l 328 386 l 328 738 l 199 738 l 199 938 l 1135 938 l 1135 738 z "},"ㅎ":{"ha":1333,"x_min":0,"x_max":0,"o":"m 167 903 l 542 903 l 542 1047 l 788 1047 l 788 903 l 1167 903 l 1167 711 l 167 711 z m 872 404 b 849 447 872 422 864 436 b 667 479 815 471 751 479 b 485 447 582 479 518 471 b 461 404 469 436 461 422 b 485 360 461 385 469 371 b 667 329 518 338 582 329 b 849 360 751 329 815 338 b 872 404 864 371 872 385 z m 221 404 b 310 581 221 482 254 539 b 667 669 389 642 515 669 b 1024 581 818 669 944 642 b 1111 404 1079 539 1111 482 b 1024 226 1111 326 1079 268 b 667 139 944 165 818 139 b 310 226 515 139 389 165 b 221 404 254 268 221 326 z "},"ㅏ":{"ha":1333,"x_min":0,"x_max":0,"o":"m 758 1199 l 758 699 l 967 699 l 967 494 l 758 494 l 758 -104 l 515 -104 l 515 1199 z "},"ㅐ":{"ha":1333,"x_min":0,"x_max":0,"o":"m 939 -104 l 718 -104 l 718 510 l 611 510 l 611 -90 l 394 -90 l 394 1192 l 611 1192 l 611 714 l 718 714 l 718 1199 l 939 1199 z "},"ㅑ":{"ha":1333,"x_min":0,"x_max":0,"o":"m 758 1199 l 758 904 l 965 904 l 965 701 l 758 701 l 758 464 l 965 464 l 965 261 l 758 261 l 758 -104 l 515 -104 l 515 1199 z "},"ㅒ":{"ha":1333,"x_min":0,"x_max":0,"o":"m 608 1192 l 608 919 l 721 919 l 721 1199 l 939 1199 l 939 -104 l 721 -104 l 721 256 l 608 256 l 608 -90 l 394 -90 l 394 1192 z m 721 456 l 721 719 l 608 719 l 608 456 z "},"ㅓ":{"ha":1333,"x_min":0,"x_max":0,"o":"m 569 699 l 569 1199 l 813 1199 l 813 -104 l 569 -104 l 569 494 l 361 494 l 361 699 z "},"ㅔ":{"ha":1333,"x_min":0,"x_max":0,"o":"m 958 -103 l 738 -103 l 738 1197 l 958 1197 z m 661 -89 l 446 -89 l 446 508 l 263 508 l 263 711 l 446 711 l 446 1190 l 661 1190 z "},"ㅕ":{"ha":1333,"x_min":0,"x_max":0,"o":"m 569 904 l 569 1199 l 813 1199 l 813 -104 l 569 -104 l 569 261 l 363 261 l 363 464 l 569 464 l 569 701 l 363 701 l 363 904 z "},"ㅖ":{"ha":1333,"x_min":0,"x_max":0,"o":"m 447 710 l 269 710 l 269 910 l 447 910 l 447 1192 l 663 1192 l 663 -90 l 447 -90 l 447 289 l 269 289 l 269 489 l 447 489 z m 960 -104 l 739 -104 l 739 1199 l 960 1199 z "},"ㅗ":{"ha":1333,"x_min":0,"x_max":0,"o":"m 86 199 l 86 401 l 546 401 l 546 911 l 788 911 l 788 401 l 1249 401 l 1249 199 z "},"ㅘ":{"ha":1333,"x_min":0,"x_max":0,"o":"m 1118 1197 l 1118 697 l 1313 697 l 1313 494 l 1118 494 l 1118 -103 l 875 -103 l 875 68 b 636 6 831 25 756 6 l 57 6 l 57 206 l 326 206 l 326 631 l 569 631 l 569 206 l 664 206 b 875 258 771 206 833 221 l 875 1197 z "},"ㅙ":{"ha":1333,"x_min":0,"x_max":0,"o":"m 274 631 l 492 631 l 492 204 l 513 204 b 700 246 599 204 658 214 l 700 1190 l 911 1190 l 911 711 l 985 711 l 985 1197 l 1200 1197 l 1200 -103 l 985 -103 l 985 510 l 911 510 l 911 -87 l 700 -87 l 700 56 b 483 6 657 19 589 6 l 82 6 l 82 204 l 274 204 z "},"ㅚ":{"ha":1333,"x_min":0,"x_max":0,"o":"m 1183 -104 l 940 -104 l 940 68 b 699 6 896 25 821 6 l 90 6 l 90 207 l 376 207 l 376 632 l 619 632 l 619 207 l 726 207 b 940 261 833 207 897 222 l 940 1199 l 1183 1199 z "},"ㅛ":{"ha":1333,"x_min":0,"x_max":0,"o":"m 86 199 l 86 400 l 315 400 l 315 875 l 556 875 l 556 400 l 769 400 l 769 875 l 1010 875 l 1010 400 l 1247 400 l 1247 199 z "},"ㅜ":{"ha":1333,"x_min":0,"x_max":0,"o":"m 86 449 l 86 651 l 1249 651 l 1249 449 l 786 449 l 786 -33 l 543 -33 l 543 449 z "},"ㅝ":{"ha":1333,"x_min":0,"x_max":0,"o":"m 1192 1199 l 1192 -104 l 950 -104 l 950 81 l 694 81 l 694 281 l 950 281 l 950 1199 z m 682 379 l 572 379 l 572 -106 l 332 -106 l 332 379 l 86 379 l 86 583 l 689 583 b 900 603 774 583 843 589 l 900 410 b 682 379 842 388 769 379 z "},"ㅞ":{"ha":1333,"x_min":0,"x_max":0,"o":"m 985 1197 l 1200 1197 l 1200 -103 l 985 -103 z m 500 390 l 486 390 l 486 -104 l 267 -104 l 267 390 l 90 390 l 90 589 l 507 589 b 685 606 574 589 635 590 l 685 414 b 500 390 633 396 568 390 z m 724 94 l 553 94 l 553 290 l 724 290 l 724 1190 l 935 1190 l 935 -89 l 724 -89 z "},"ㅟ":{"ha":1333,"x_min":0,"x_max":0,"o":"m 678 356 l 589 356 l 589 -106 l 346 -106 l 346 356 l 76 356 l 76 556 l 711 556 b 942 600 818 556 889 567 l 942 1199 l 1183 1199 l 1183 -104 l 942 -104 l 942 406 b 678 356 889 368 810 356 z "},"ㅠ":{"ha":1333,"x_min":0,"x_max":0,"o":"m 86 447 l 86 650 l 1247 650 l 1247 447 l 1026 447 l 1026 -12 l 789 -12 l 789 447 l 547 447 l 547 -12 l 308 -12 l 308 447 z "},"ㅡ":{"ha":1333,"x_min":0,"x_max":0,"o":"m 86 199 l 86 403 l 1249 403 l 1249 199 z "},"ㅢ":{"ha":1333,"x_min":0,"x_max":0,"o":"m 1169 -104 l 926 -104 l 926 68 b 685 6 882 25 807 6 l 76 6 l 76 207 l 713 207 b 926 261 819 207 883 222 l 926 1199 l 1169 1199 z "},"ㅣ":{"ha":1333,"x_min":0,"x_max":0,"o":"m 788 1199 l 788 -104 l 544 -104 l 544 1199 z "},"ㅥ":{"ha":1333,"x_min":0,"x_max":0,"o":"m 640 386 l 640 186 l 154 186 l 154 938 l 396 938 l 396 386 z m 1176 386 l 1176 186 l 685 186 l 685 938 l 926 938 l 926 386 z "},"ㅦ":{"ha":1333,"x_min":0,"x_max":0,"o":"m 918 386 l 1169 386 l 1169 186 l 676 186 l 676 938 l 1161 938 l 1161 738 l 918 738 z m 632 386 l 632 186 l 154 186 l 154 938 l 396 938 l 396 386 z "},"ㅧ":{"ha":1333,"x_min":0,"x_max":0,"o":"m 611 386 l 611 186 l 154 186 l 154 938 l 396 938 l 396 386 z m 803 938 l 1042 938 l 1042 657 b 1185 383 1042 490 1079 425 l 1185 185 b 924 313 1082 196 978 249 b 660 185 871 247 764 197 l 660 383 b 803 657 764 424 803 486 z "},"ㅨ":{"ha":1333,"x_min":0,"x_max":0,"o":"m 885 560 l 825 354 l 943 354 z m 154 186 l 154 938 l 396 938 l 396 386 l 611 386 l 611 258 l 885 1003 l 1185 186 z "},"ㅩ":{"ha":1333,"x_min":0,"x_max":0,"o":"m 503 360 l 503 186 l 94 186 l 94 650 l 265 650 l 265 764 l 94 764 l 94 938 l 450 938 l 450 478 l 279 478 l 279 360 z m 839 938 l 839 186 l 644 186 l 644 743 l 485 743 l 485 938 z m 971 938 l 1165 938 l 1165 653 b 1264 381 1165 486 1189 421 l 1264 183 b 1068 294 1183 194 1111 240 b 871 182 1025 239 950 196 l 871 381 b 971 653 943 418 971 481 z "},"ㅪ":{"ha":1333,"x_min":0,"x_max":0,"o":"m 943 386 l 1182 386 l 1182 186 l 701 186 l 701 938 l 1174 938 l 1174 738 l 943 738 z m 651 360 l 651 186 l 168 186 l 168 650 l 406 650 l 406 764 l 168 764 l 168 938 l 633 938 l 633 478 l 394 478 l 394 360 z "},"ㅫ":{"ha":1333,"x_min":0,"x_max":0,"o":"m 644 724 l 690 724 l 690 938 l 856 938 l 856 185 l 481 185 l 481 938 l 644 938 z m 644 546 l 644 369 l 690 369 l 690 546 z m 449 360 l 449 185 l 94 185 l 94 649 l 256 649 l 256 763 l 94 763 l 94 938 l 435 938 l 435 478 l 272 478 l 272 360 z m 976 938 l 1165 938 l 1165 651 b 1263 381 1165 485 1189 421 l 1263 182 b 1072 293 1181 193 1113 238 b 878 182 1031 236 957 196 l 878 379 b 976 651 950 418 976 481 z "},"ㅬ":{"ha":1333,"x_min":0,"x_max":0,"o":"m 906 560 l 850 354 l 957 354 z m 168 186 l 168 650 l 399 650 l 399 764 l 168 764 l 168 938 l 626 938 l 626 478 l 394 478 l 394 360 l 635 360 l 635 251 l 906 1003 l 1199 186 z "},"ㅭ":{"ha":1333,"x_min":0,"x_max":0,"o":"m 649 360 l 649 185 l 167 185 l 167 649 l 392 649 l 392 763 l 167 763 l 167 938 l 619 938 l 619 478 l 393 478 l 393 360 z m 661 938 l 1189 938 l 1189 754 l 661 754 z m 874 424 b 889 350 874 389 878 365 b 924 333 897 339 908 333 b 958 350 939 333 950 339 b 974 424 969 365 974 389 b 958 497 974 458 969 482 b 924 514 950 508 939 514 b 889 497 908 514 897 508 b 874 424 878 482 874 458 z m 663 424 b 756 633 663 517 697 589 b 924 685 799 667 857 685 b 1092 633 990 685 1049 667 b 1185 424 1150 589 1185 517 b 1092 214 1185 331 1150 258 b 924 163 1049 181 990 163 b 756 214 857 163 799 181 b 663 424 697 258 663 331 z "},"ㅮ":{"ha":1333,"x_min":0,"x_max":0,"o":"m 167 938 l 646 938 l 646 185 l 167 185 z m 363 753 l 363 369 l 449 369 l 449 753 z m 890 724 l 976 724 l 976 938 l 1172 938 l 1172 185 l 693 185 l 693 938 l 890 938 z m 890 546 l 890 369 l 976 369 l 976 546 z "},"ㅯ":{"ha":1333,"x_min":0,"x_max":0,"o":"m 168 938 l 646 938 l 646 186 l 168 186 z m 364 754 l 364 369 l 450 369 l 450 754 z m 807 938 l 1047 938 l 1047 653 b 1185 383 1047 488 1081 425 l 1185 185 b 928 307 1083 194 985 246 b 669 185 872 244 771 197 l 669 383 b 807 653 771 422 807 483 z "},"ㅰ":{"ha":1333,"x_min":0,"x_max":0,"o":"m 364 754 l 364 369 l 450 369 l 450 754 z m 906 560 l 850 354 l 957 354 z m 168 186 l 168 938 l 646 938 l 646 282 l 906 1003 l 1199 186 z "},"ㅱ":{"ha":1333,"x_min":0,"x_max":0,"o":"m 282 1081 l 1051 1081 l 1051 532 l 282 532 z m 828 892 l 506 892 l 506 721 l 828 721 z m 554 250 b 571 215 554 236 560 224 b 667 196 590 201 624 196 b 763 215 710 196 743 201 b 779 250 774 224 779 236 b 763 283 779 264 774 275 b 667 304 743 297 710 304 b 571 283 624 304 590 297 b 554 250 560 275 554 264 z m 333 250 b 404 411 333 318 360 371 b 667 490 465 464 560 490 b 929 411 774 490 868 464 b 1000 250 974 371 1000 318 b 929 89 1000 182 974 129 b 667 10 868 36 774 10 b 404 89 560 10 465 36 b 333 250 360 129 333 182 z "},"ㅲ":{"ha":1333,"x_min":0,"x_max":0,"o":"m 1172 938 l 1172 186 l 932 186 l 932 743 l 717 743 l 717 938 z m 365 726 l 469 726 l 469 938 l 667 938 l 667 186 l 168 186 l 168 938 l 365 938 z m 365 550 l 365 369 l 469 369 l 469 550 z "},"ㅳ":{"ha":1333,"x_min":0,"x_max":0,"o":"m 364 726 l 457 726 l 457 938 l 653 938 l 653 186 l 168 186 l 168 938 l 364 938 z m 364 550 l 364 369 l 457 369 l 457 550 z m 949 386 l 1182 386 l 1182 186 l 708 186 l 708 938 l 1174 938 l 1174 738 l 949 738 z "},"ㅴ":{"ha":1333,"x_min":0,"x_max":0,"o":"m 293 724 l 342 724 l 342 938 l 507 938 l 507 185 l 128 185 l 128 938 l 293 938 z m 293 546 l 293 369 l 342 369 l 342 546 z m 624 938 l 811 938 l 811 651 b 903 381 811 485 835 419 l 903 182 b 718 293 824 194 758 239 b 532 182 678 238 607 196 l 532 379 b 624 651 599 417 624 481 z m 1193 938 l 1193 185 l 999 185 l 999 742 l 871 742 l 871 938 z "},"ㅵ":{"ha":1333,"x_min":0,"x_max":0,"o":"m 608 938 l 792 938 l 792 651 b 881 381 792 485 815 418 l 881 182 b 700 293 804 194 739 239 b 519 182 664 239 594 196 l 519 381 b 608 651 583 415 608 481 z m 1074 385 l 1200 385 l 1200 185 l 899 185 l 899 938 l 1194 938 l 1194 738 l 1074 738 z m 293 724 l 338 724 l 338 938 l 503 938 l 503 185 l 128 185 l 128 938 l 293 938 z m 293 546 l 293 369 l 338 369 l 338 546 z "},"ㅶ":{"ha":1333,"x_min":0,"x_max":0,"o":"m 1181 738 l 1054 738 l 1054 653 b 1185 383 1054 492 1090 422 l 1185 185 b 936 311 1086 196 993 247 b 686 185 882 246 786 197 l 686 383 b 818 653 779 419 818 488 l 818 738 l 694 738 l 694 938 l 1181 938 z m 364 726 l 457 726 l 457 938 l 653 938 l 653 186 l 168 186 l 168 938 l 364 938 z m 364 550 l 364 369 l 457 369 l 457 550 z "},"ㅷ":{"ha":1333,"x_min":0,"x_max":0,"o":"m 933 360 l 1182 360 l 1182 186 l 707 186 l 707 938 l 1172 938 l 1172 764 l 933 764 l 933 650 l 1158 650 l 1158 478 l 933 478 z m 364 726 l 457 726 l 457 938 l 653 938 l 653 186 l 168 186 l 168 938 l 364 938 z m 364 550 l 364 369 l 457 369 l 457 550 z "},"ㅸ":{"ha":1333,"x_min":0,"x_max":0,"o":"m 506 969 l 828 969 l 828 1081 l 1051 1081 l 1051 532 l 282 532 l 282 1081 l 506 1081 z m 828 790 l 506 790 l 506 713 l 828 713 z m 554 250 b 571 215 554 236 560 224 b 667 196 590 201 624 196 b 763 215 710 196 743 201 b 779 250 774 224 779 236 b 763 283 779 264 774 275 b 667 304 743 297 710 304 b 571 283 624 304 590 297 b 554 250 560 275 554 264 z m 333 250 b 404 411 333 318 360 371 b 667 490 465 464 560 490 b 929 411 774 490 868 464 b 1000 250 974 371 1000 318 b 929 89 1000 182 974 129 b 667 10 868 36 774 10 b 404 89 560 10 465 36 b 333 250 360 129 333 182 z "},"ㅹ":{"ha":1333,"x_min":0,"x_max":0,"o":"m 467 963 l 568 963 l 568 1081 l 778 1081 l 778 963 l 868 963 l 868 1081 l 1079 1081 l 1079 532 l 254 532 l 254 1081 l 467 1081 z m 868 793 l 778 793 l 778 703 l 868 703 z m 568 793 l 467 793 l 467 703 l 568 703 z m 554 250 b 571 215 554 236 560 224 b 667 196 590 201 624 196 b 763 215 710 196 743 201 b 779 250 774 224 779 236 b 763 283 779 264 774 275 b 667 304 743 297 710 304 b 571 283 624 304 590 297 b 554 250 560 275 554 264 z m 333 250 b 404 411 333 318 360 371 b 667 490 465 464 560 490 b 929 411 774 490 868 464 b 1000 250 974 371 1000 318 b 929 89 1000 182 974 129 b 667 10 868 36 774 10 b 404 89 560 10 465 36 b 333 250 360 129 333 182 z "},"ㅺ":{"ha":1333,"x_min":0,"x_max":0,"o":"m 679 938 l 1150 938 l 1150 186 l 908 186 l 908 738 l 679 738 z m 322 938 l 561 938 l 561 657 b 704 383 561 490 599 425 l 704 185 b 443 313 601 196 497 249 b 179 185 390 247 283 197 l 179 383 b 322 657 283 424 322 486 z "},"ㅻ":{"ha":1333,"x_min":0,"x_max":0,"o":"m 1163 386 l 1163 186 l 708 186 l 708 938 l 949 938 l 949 386 z m 289 938 l 529 938 l 529 653 b 667 383 529 488 563 425 l 667 185 b 410 307 565 194 467 246 b 151 185 356 244 253 197 l 151 383 b 289 653 253 422 289 483 z "},"ㅼ":{"ha":1333,"x_min":0,"x_max":0,"o":"m 275 938 l 514 938 l 514 653 b 653 383 514 488 549 425 l 653 185 b 394 307 551 194 453 246 b 136 185 340 244 238 197 l 136 383 b 275 653 238 422 275 483 z m 928 386 l 1169 386 l 1169 186 l 686 186 l 686 938 l 1161 938 l 1161 738 l 928 738 z "},"ㅽ":{"ha":1333,"x_min":0,"x_max":0,"o":"m 275 938 l 514 938 l 514 653 b 653 383 514 488 549 425 l 653 185 b 394 307 551 194 453 246 b 136 185 340 244 238 197 l 136 383 b 275 653 238 422 275 483 z m 890 726 l 976 726 l 976 938 l 1172 938 l 1172 186 l 694 186 l 694 938 l 890 938 z m 890 550 l 890 369 l 976 369 l 976 550 z "},"ㅾ":{"ha":1333,"x_min":0,"x_max":0,"o":"m 1186 738 l 1024 738 b 1203 385 1026 522 1082 442 l 1203 182 b 901 376 1082 210 963 288 b 665 185 850 297 756 222 b 429 376 574 222 479 297 b 128 182 367 289 244 210 l 128 385 b 306 754 249 442 306 526 l 306 938 l 549 938 l 549 754 b 665 421 549 563 593 478 b 781 738 736 478 778 557 l 636 738 l 636 938 l 1186 938 z "},"ㅿ":{"ha":1333,"x_min":0,"x_max":0,"o":"m 161 186 l 664 1031 l 1174 186 z m 663 650 l 500 361 l 832 361 z "},"ㆀ":{"ha":1333,"x_min":0,"x_max":0,"o":"m 336 563 b 364 375 336 468 342 404 b 400 357 374 364 385 357 b 436 375 415 357 426 364 b 464 563 458 404 464 468 b 436 750 464 657 458 721 b 400 768 426 761 415 768 b 364 750 385 768 374 761 b 336 563 342 721 336 657 z m 140 563 b 251 904 140 722 175 842 b 400 951 290 935 340 951 b 549 904 460 951 510 935 b 660 563 625 842 660 722 b 549 221 660 403 625 283 b 400 174 510 190 460 174 b 251 221 340 174 290 190 b 140 563 175 283 140 403 z m 875 563 b 904 375 875 468 882 404 b 939 357 913 364 924 357 b 975 375 954 357 965 364 b 1004 563 997 404 1004 468 b 975 750 1004 657 997 721 b 939 768 965 761 954 768 b 904 750 924 768 913 761 b 875 563 882 721 875 657 z m 679 563 b 792 904 679 722 715 842 b 939 951 831 935 879 951 b 1088 904 1000 951 1049 935 b 1200 563 1164 842 1200 722 b 1088 221 1200 403 1164 283 b 939 174 1049 190 1000 174 b 792 221 879 174 831 190 b 679 563 715 283 679 403 z "},"ㆁ":{"ha":1333,"x_min":0,"x_max":0,"o":"m 789 1040 l 789 817 b 1040 714 890 801 978 767 b 1146 482 1107 657 1146 579 b 1040 250 1146 383 1107 307 b 665 139 953 175 818 139 b 290 250 513 139 378 175 b 185 482 224 307 185 383 b 290 714 185 579 224 657 b 543 817 354 767 442 801 l 543 1040 z m 426 482 b 467 389 426 443 440 411 b 665 338 506 354 574 338 b 864 389 757 338 824 354 b 904 482 890 411 904 443 b 864 575 904 521 890 551 b 665 626 824 610 757 626 b 467 575 574 626 506 610 b 426 482 440 551 426 521 z "},"ㆂ":{"ha":1333,"x_min":0,"x_max":0,"o":"m 526 972 l 526 781 b 571 754 543 774 557 764 b 671 489 638 701 671 607 b 571 224 671 369 638 276 b 406 174 529 190 474 174 b 240 224 338 174 282 190 b 140 489 172 276 140 369 b 240 754 140 607 172 701 b 285 781 254 764 268 774 l 285 972 z m 804 938 l 1044 938 l 1044 657 b 1185 383 1044 490 1079 425 l 1185 185 b 925 310 1082 196 981 247 b 664 185 872 246 768 197 l 664 383 b 804 657 768 424 804 486 z m 347 489 b 369 364 347 424 353 383 b 406 349 378 353 390 349 b 442 364 421 349 433 353 b 464 489 458 383 464 424 b 442 614 464 554 458 594 b 406 629 433 625 421 629 b 369 614 390 629 378 625 b 347 489 353 594 347 554 z "},"ㆃ":{"ha":1333,"x_min":0,"x_max":0,"o":"m 522 972 l 522 781 b 565 754 538 774 553 764 b 667 489 633 701 667 607 b 565 224 667 369 633 276 b 401 174 525 190 469 174 b 236 224 333 174 278 190 b 135 489 168 276 135 369 b 236 754 135 607 168 701 b 281 781 250 764 264 774 l 281 972 z m 343 489 b 365 364 343 424 349 383 b 401 349 374 353 386 349 b 438 364 417 349 429 353 b 460 489 454 383 460 424 b 438 614 460 554 454 594 b 401 629 429 625 417 629 b 365 614 386 629 374 625 b 343 489 349 594 343 554 z m 910 560 l 856 354 l 963 354 z m 910 1003 l 1203 186 l 617 186 z "},"ㆄ":{"ha":1333,"x_min":0,"x_max":0,"o":"m 226 532 l 226 718 l 363 718 l 363 894 l 254 894 l 254 1081 l 1079 1081 l 1079 894 l 975 894 l 975 831 b 960 718 975 792 971 750 l 1107 718 l 1107 532 z m 582 894 l 582 718 l 742 718 b 756 819 753 747 756 783 l 756 894 z m 554 250 b 571 215 554 236 560 224 b 667 196 590 201 624 196 b 763 215 710 196 743 201 b 779 250 774 224 779 236 b 763 283 779 264 774 275 b 667 304 743 297 710 304 b 571 283 624 304 590 297 b 554 250 560 275 554 264 z m 333 250 b 404 411 333 318 360 371 b 667 490 465 464 560 490 b 929 411 774 490 868 464 b 1000 250 974 371 1000 318 b 929 89 1000 182 974 129 b 667 10 868 36 774 10 b 404 89 560 10 465 36 b 333 250 360 129 333 182 z "},"ㆅ":{"ha":1333,"x_min":0,"x_max":0,"o":"m 649 681 l 136 681 l 136 863 l 288 863 l 288 999 l 531 999 l 531 863 l 649 863 z m 1196 681 l 683 681 l 683 863 l 801 863 l 801 999 l 1044 999 l 1044 863 l 1196 863 z m 358 404 b 374 343 358 375 363 356 b 404 331 381 335 390 331 b 435 343 418 331 428 335 b 450 404 446 356 450 375 b 435 465 450 433 446 453 b 404 478 428 474 418 478 b 374 465 390 478 381 474 b 358 404 363 453 358 433 z m 156 404 b 231 590 156 485 182 549 b 404 646 272 626 332 646 b 578 590 476 646 536 626 b 653 404 626 549 653 485 b 578 218 653 324 626 260 b 404 163 536 182 476 163 b 231 218 332 163 272 182 b 156 404 182 260 156 324 z m 882 404 b 897 343 882 375 886 356 b 928 331 904 335 914 331 b 958 343 942 331 951 335 b 974 404 969 356 974 375 b 958 465 974 433 969 453 b 928 478 951 474 942 478 b 897 465 914 478 904 474 b 882 404 886 453 882 433 z m 679 404 b 754 590 679 485 706 549 b 928 646 796 626 856 646 b 1101 590 1000 646 1060 626 b 1176 404 1150 549 1176 485 b 1101 218 1176 324 1150 260 b 928 163 1060 182 1000 163 b 754 218 856 163 796 182 b 679 404 706 260 679 324 z "},"ㆆ":{"ha":1333,"x_min":0,"x_max":0,"o":"m 213 938 l 1121 938 l 1121 744 l 213 744 z m 844 436 b 821 483 844 456 836 472 b 667 515 796 506 744 515 b 511 483 589 515 538 506 b 489 436 497 472 489 456 b 511 388 489 417 497 400 b 667 357 538 367 589 357 b 821 388 744 357 796 367 b 844 436 836 400 844 417 z m 254 436 b 338 618 254 514 283 576 b 667 706 411 679 529 706 b 996 618 804 706 922 679 b 1079 436 1050 576 1079 514 b 996 253 1079 357 1050 296 b 667 167 922 193 804 167 b 338 253 529 167 411 193 b 254 436 283 296 254 357 z "},"ㆇ":{"ha":1333,"x_min":0,"x_max":0,"o":"m 1122 1197 l 1122 896 l 1307 896 l 1307 692 l 1122 692 l 1122 486 l 1307 486 l 1307 282 l 1122 282 l 1122 -103 l 879 -103 l 879 68 b 639 6 835 25 760 6 l 51 6 l 51 204 l 171 204 l 171 631 l 408 631 l 408 204 l 507 204 l 507 631 l 746 631 l 746 207 b 879 257 807 214 849 229 l 879 1197 z "},"ㆈ":{"ha":1333,"x_min":0,"x_max":0,"o":"m 929 1192 l 929 894 l 1010 894 l 1010 1199 l 1224 1199 l 1224 -104 l 1010 -104 l 1010 282 l 929 282 l 929 -89 l 722 -89 l 722 54 b 504 6 679 18 611 6 l 82 6 l 82 203 l 181 203 l 181 631 l 392 631 l 392 203 l 450 203 l 450 631 l 660 631 l 660 215 b 722 244 685 222 706 231 l 722 1192 z m 929 694 l 929 482 l 1010 482 l 1010 694 z "},"ㆉ":{"ha":1333,"x_min":0,"x_max":0,"o":"m 1192 -104 l 949 -104 l 949 68 b 707 6 904 25 829 6 l 86 6 l 86 206 l 243 206 l 243 632 l 482 632 l 482 206 l 579 206 l 579 632 l 818 632 l 818 210 b 949 260 878 215 918 231 l 949 1199 l 1192 1199 z "},"ㆊ":{"ha":1333,"x_min":0,"x_max":0,"o":"m 1200 1199 l 1200 -104 l 963 -104 l 963 -22 l 749 -22 l 749 167 l 963 167 l 963 224 l 749 224 l 749 414 l 963 414 l 963 1199 z m 471 454 l 410 454 l 410 -106 l 185 -106 l 185 454 l 72 454 l 72 656 l 701 656 b 914 675 786 656 856 661 l 914 485 b 697 454 856 461 785 454 l 697 -106 l 471 -106 z "},"ㆋ":{"ha":1333,"x_min":0,"x_max":0,"o":"m 1007 1199 l 1218 1199 l 1218 -104 l 1007 -104 z m 399 453 l 358 453 l 358 -106 l 157 -106 l 157 453 l 82 453 l 82 649 l 531 649 b 708 665 596 649 658 650 l 708 478 b 599 456 676 465 639 458 l 599 -106 l 399 -106 z m 756 238 l 635 238 l 635 426 l 756 426 l 756 1192 l 963 1192 l 963 -90 l 756 -90 l 756 1 l 635 1 l 635 189 l 756 189 z "},"ㆌ":{"ha":1333,"x_min":0,"x_max":0,"o":"m 563 378 l 465 378 l 465 -106 l 229 -106 l 229 378 l 76 378 l 76 578 l 719 578 b 950 622 826 578 899 589 l 950 1199 l 1192 1199 l 1192 -104 l 950 -104 l 950 429 b 800 382 915 404 868 389 l 800 -106 l 563 -106 z "},"ㆍ":{"ha":1333,"x_min":0,"x_max":0,"o":"m 793 703 l 793 453 l 539 453 l 539 703 z "},"ㆎ":{"ha":1333,"x_min":0,"x_max":0,"o":"m 610 703 l 610 453 l 354 453 l 354 703 z m 954 1199 l 954 -104 l 711 -104 l 711 1199 z "},"ⅰ":{"ha":1333,"x_min":0,"x_max":0,"o":"m 542 897 l 542 1101 l 789 1101 l 789 897 z m 542 -10 l 542 783 l 789 783 l 789 -10 z "},"ⅱ":{"ha":1333,"x_min":0,"x_max":0,"o":"m 353 897 l 353 1101 l 589 1101 l 589 897 z m 353 -10 l 353 783 l 589 783 l 589 -10 z m 742 897 l 742 1101 l 978 1101 l 978 897 z m 742 -10 l 742 783 l 978 783 l 978 -10 z "},"ⅲ":{"ha":1333,"x_min":0,"x_max":0,"o":"m 228 897 l 228 1101 l 458 1101 l 458 897 z m 228 -10 l 228 783 l 458 783 l 458 -10 z m 550 897 l 550 1101 l 781 1101 l 781 897 z m 550 -10 l 550 783 l 781 783 l 781 -10 z m 874 897 l 874 1101 l 1104 1101 l 1104 897 z m 874 -10 l 874 783 l 1104 783 l 1104 -10 z "},"ⅳ":{"ha":1333,"x_min":0,"x_max":0,"o":"m 222 897 l 222 1100 l 453 1100 l 453 897 z m 222 -8 l 222 783 l 453 783 l 453 -8 z m 985 -8 l 718 -8 l 474 783 l 715 783 l 851 250 l 986 783 l 1229 783 z "},"ⅴ":{"ha":1333,"x_min":0,"x_max":0,"o":"m 794 -8 l 538 -8 l 260 783 l 513 783 l 667 247 l 818 783 l 1071 783 z "},"ⅵ":{"ha":1333,"x_min":0,"x_max":0,"o":"m 628 -8 l 363 -8 l 117 783 l 360 783 l 496 250 l 629 783 l 872 783 z m 899 897 l 899 1100 l 1129 1100 l 1129 897 z m 899 -8 l 899 783 l 1129 783 l 1129 -8 z "},"ⅶ":{"ha":1333,"x_min":0,"x_max":0,"o":"m 510 -10 l 235 -10 l 54 783 l 288 783 l 372 251 l 456 783 l 690 783 z m 990 897 l 990 1101 l 1211 1101 l 1211 897 z m 990 -10 l 990 783 l 1211 783 l 1211 -10 z m 708 897 l 708 1101 l 929 1101 l 929 897 z m 708 -10 l 708 783 l 929 783 l 929 -10 z "},"ⅷ":{"ha":1333,"x_min":0,"x_max":0,"o":"m 436 -10 l 139 -10 l 17 783 l 233 783 l 288 242 l 340 783 l 557 783 z m 824 897 l 824 1101 l 1029 1101 l 1029 897 z m 824 -10 l 824 783 l 1029 783 l 1029 -10 z m 571 897 l 571 1101 l 776 1101 l 776 897 z m 571 -10 l 571 783 l 776 783 l 776 -10 z m 1075 897 l 1075 1101 l 1281 1101 l 1281 897 z m 1075 -10 l 1075 783 l 1281 783 l 1281 -10 z "},"ⅸ":{"ha":1333,"x_min":0,"x_max":0,"o":"m 1219 -8 l 979 -8 l 846 208 l 713 -8 l 471 -8 l 725 404 l 492 783 l 732 783 l 846 599 l 960 783 l 1199 783 l 965 404 z m 222 897 l 222 1100 l 453 1100 l 453 897 z m 222 -8 l 222 783 l 453 783 l 453 -8 z "},"ⅹ":{"ha":1333,"x_min":0,"x_max":0,"o":"m 797 -8 l 667 263 l 535 -8 l 279 -8 l 506 397 l 296 783 l 551 783 l 667 531 l 782 783 l 1038 783 l 828 397 l 1053 -8 z "},"Ⅰ":{"ha":1333,"x_min":0,"x_max":0,"o":"m 882 -10 l 450 -10 l 450 201 l 535 201 l 535 889 l 450 889 l 450 1101 l 882 1101 l 882 889 l 797 889 l 797 201 l 882 201 z "},"Ⅱ":{"ha":1333,"x_min":0,"x_max":0,"o":"m 636 -10 l 246 -10 l 246 197 l 318 197 l 318 894 l 246 894 l 246 1101 l 636 1101 l 636 894 l 564 894 l 564 197 l 636 197 z m 1086 -10 l 697 -10 l 697 197 l 769 197 l 769 894 l 697 894 l 697 1101 l 1086 1101 l 1086 894 l 1015 894 l 1015 197 l 1086 197 z "},"Ⅲ":{"ha":1333,"x_min":0,"x_max":0,"o":"m 463 -10 l 118 -10 l 118 196 l 175 196 l 175 896 l 118 896 l 118 1101 l 463 1101 l 463 896 l 404 896 l 404 196 l 463 196 z m 838 -10 l 493 -10 l 493 196 l 551 196 l 551 896 l 493 896 l 493 1101 l 838 1101 l 838 896 l 779 896 l 779 196 l 838 196 z m 1214 -10 l 869 -10 l 869 196 l 928 196 l 928 896 l 869 896 l 869 1101 l 1214 1101 l 1214 896 l 1157 896 l 1157 196 l 1214 196 z "},"Ⅳ":{"ha":1333,"x_min":0,"x_max":0,"o":"m 874 253 l 1021 1101 l 1264 1101 l 1033 -10 l 717 -10 l 485 1101 l 728 1101 z m 468 -10 l 124 -10 l 124 196 l 182 196 l 182 896 l 124 896 l 124 1101 l 468 1101 l 468 896 l 410 896 l 410 196 l 468 196 z "},"Ⅴ":{"ha":1333,"x_min":0,"x_max":0,"o":"m 440 1100 l 667 289 l 890 1100 l 1158 1100 l 804 -8 l 528 -8 l 174 1100 z "},"Ⅵ":{"ha":1333,"x_min":0,"x_max":0,"o":"m 308 1100 l 456 253 l 601 1100 l 844 1100 l 613 -8 l 296 -8 l 65 1100 z m 1206 -8 l 861 -8 l 861 194 l 919 194 l 919 894 l 861 894 l 861 1100 l 1206 1100 l 1206 894 l 1147 894 l 1147 194 l 1206 194 z "},"Ⅶ":{"ha":1333,"x_min":0,"x_max":0,"o":"m 1288 -10 l 989 -10 l 989 190 l 1033 190 l 1033 901 l 989 901 l 989 1101 l 1288 1101 l 1288 901 l 1243 901 l 1243 190 l 1288 190 z m 961 -10 l 663 -10 l 663 190 l 707 190 l 707 901 l 663 901 l 663 1101 l 961 1101 l 961 901 l 917 901 l 917 190 l 961 190 z m 339 263 l 428 1101 l 649 1101 l 483 -10 l 194 -10 l 29 1101 l 249 1101 z "},"Ⅷ":{"ha":1333,"x_min":0,"x_max":0,"o":"m 1301 -10 l 1056 -10 l 1056 188 l 1083 188 l 1083 904 l 1056 904 l 1056 1101 l 1301 1101 l 1301 904 l 1274 904 l 1274 188 l 1301 188 z m 1029 -10 l 778 -10 l 778 188 l 808 188 l 808 904 l 778 904 l 778 1101 l 1029 1101 l 1029 904 l 997 904 l 997 188 l 1029 188 z m 751 -10 l 504 -10 l 504 188 l 532 188 l 532 904 l 504 904 l 504 1101 l 751 1101 l 751 904 l 722 904 l 722 188 l 751 188 z m 253 246 l 293 1101 l 494 1101 l 393 -10 l 113 -10 l 11 1101 l 213 1101 z "},"Ⅸ":{"ha":1333,"x_min":0,"x_max":0,"o":"m 454 -10 l 110 -10 l 110 196 l 168 196 l 168 896 l 110 896 l 110 1101 l 454 1101 l 454 896 l 396 896 l 396 196 l 454 196 z m 1265 1101 l 986 558 l 1279 -10 l 1040 -10 l 867 324 l 696 -10 l 456 -10 l 747 558 l 469 1101 l 710 1101 l 867 794 l 1026 1101 z "},"Ⅹ":{"ha":1333,"x_min":0,"x_max":0,"o":"m 464 -8 l 188 -8 l 492 564 l 211 1100 l 488 1100 l 667 724 l 843 1100 l 1119 1100 l 839 564 l 1143 -8 l 868 -8 l 667 401 z "},"Α":{"ha":1006,"x_min":0,"x_max":0,"o":"m 275 -8 l 8 -8 l 363 1100 l 639 1100 l 992 -8 l 725 -8 l 671 186 l 328 186 z m 382 392 l 617 392 l 500 822 z "},"Β":{"ha":947,"x_min":0,"x_max":0,"o":"m 617 776 b 478 900 617 868 569 900 l 340 900 l 340 653 l 478 653 b 617 776 569 653 617 685 z m 529 -10 l 76 -10 l 76 1101 l 511 1101 b 876 797 753 1101 876 996 b 718 569 876 679 815 604 b 907 315 835 535 907 442 b 529 -10 907 99 776 -10 z m 643 328 b 499 467 643 426 596 467 l 340 467 l 340 190 l 499 190 b 643 328 596 190 643 231 z "},"Γ":{"ha":794,"x_min":0,"x_max":0,"o":"m 76 1101 l 783 1101 l 783 888 l 340 888 l 340 -10 l 76 -10 z "},"Δ":{"ha":1006,"x_min":0,"x_max":0,"o":"m 994 -8 l 10 -8 l 364 1100 l 640 1100 z m 332 194 l 671 194 l 503 807 z "},"Ε":{"ha":839,"x_min":0,"x_max":0,"o":"m 76 -10 l 76 1101 l 782 1101 l 782 888 l 340 888 l 340 667 l 725 667 l 725 451 l 340 451 l 340 204 l 789 204 l 789 -10 z "},"Ζ":{"ha":858,"x_min":0,"x_max":0,"o":"m 43 188 l 489 888 l 60 888 l 60 1101 l 807 1101 l 807 903 l 361 204 l 814 204 l 814 -10 l 43 -10 z "},"Η":{"ha":971,"x_min":0,"x_max":0,"o":"m 631 -10 l 631 451 l 340 451 l 340 -10 l 76 -10 l 76 1101 l 340 1101 l 340 667 l 631 667 l 631 1101 l 896 1101 l 896 -10 z "},"Θ":{"ha":1019,"x_min":0,"x_max":0,"o":"m 701 546 b 651 836 701 703 688 782 b 510 906 619 882 574 906 b 369 836 446 906 401 882 b 318 546 332 782 318 703 b 369 254 318 388 332 308 b 510 185 401 208 446 185 b 651 254 574 185 619 208 b 701 546 688 308 701 388 z m 965 546 b 853 113 965 369 940 219 b 510 -29 778 19 664 -29 b 168 113 356 -29 243 19 b 54 546 81 219 54 369 b 168 978 54 721 81 871 b 510 1121 243 1071 356 1121 b 853 978 664 1121 778 1071 b 965 546 940 871 965 721 z m 382 461 l 382 629 l 638 629 l 638 461 z "},"Ι":{"ha":415,"x_min":0,"x_max":0,"o":"m 340 1101 l 340 -10 l 76 -10 l 76 1101 z "},"Κ":{"ha":963,"x_min":0,"x_max":0,"o":"m 926 1101 l 642 560 l 969 -10 l 683 -10 l 428 451 l 340 451 l 340 -10 l 76 -10 l 76 1101 l 340 1101 l 340 667 l 428 667 l 644 1101 z "},"Λ":{"ha":1006,"x_min":0,"x_max":0,"o":"m 994 -8 l 726 -8 l 503 807 l 276 -8 l 10 -8 l 364 1100 l 640 1100 z "},"Μ":{"ha":1303,"x_min":0,"x_max":0,"o":"m 753 -10 l 550 -10 l 331 568 l 331 -10 l 76 -10 l 76 1101 l 332 1101 l 653 257 l 972 1101 l 1226 1101 l 1226 -10 l 972 -10 l 972 568 z "},"Ν":{"ha":986,"x_min":0,"x_max":0,"o":"m 910 -8 l 651 -8 l 332 651 l 332 -8 l 75 -8 l 75 1100 l 335 1100 l 653 436 l 653 1100 l 910 1100 z "},"Ξ":{"ha":911,"x_min":0,"x_max":0,"o":"m 56 888 l 56 1101 l 854 1101 l 854 888 z m 49 -10 l 49 204 l 861 204 l 861 -10 z m 114 451 l 114 667 l 797 667 l 797 451 z "},"Ο":{"ha":1019,"x_min":0,"x_max":0,"o":"m 701 546 b 651 836 701 703 688 782 b 510 906 619 882 574 906 b 369 836 446 906 401 882 b 318 546 332 782 318 703 b 369 254 318 388 332 308 b 510 185 401 208 446 185 b 651 254 574 185 619 208 b 701 546 688 308 701 388 z m 965 546 b 853 113 965 369 940 219 b 510 -29 778 19 664 -29 b 168 113 356 -29 243 19 b 54 546 81 219 54 369 b 168 978 54 721 81 871 b 510 1121 243 1071 356 1121 b 853 978 664 1121 778 1071 b 965 546 940 871 965 721 z "},"Π":{"ha":971,"x_min":0,"x_max":0,"o":"m 631 -10 l 631 888 l 340 888 l 340 -10 l 76 -10 l 76 1101 l 896 1101 l 896 -10 z "},"Ρ":{"ha":939,"x_min":0,"x_max":0,"o":"m 533 374 l 340 374 l 340 -10 l 76 -10 l 76 1101 l 533 1101 b 907 738 772 1101 907 968 b 533 374 907 506 772 374 z m 340 589 l 494 589 b 643 738 592 589 643 638 b 494 888 643 839 592 888 l 340 888 z "},"Σ":{"ha":838,"x_min":0,"x_max":0,"o":"m 54 207 l 289 563 l 54 885 l 54 1101 l 797 1101 l 797 888 l 361 888 l 571 596 l 571 528 l 360 204 l 797 204 l 797 -10 l 54 -10 z "},"Τ":{"ha":871,"x_min":0,"x_max":0,"o":"m 17 888 l 17 1101 l 854 1101 l 854 888 l 568 888 l 568 -10 l 304 -10 l 304 888 z "},"Υ":{"ha":986,"x_min":0,"x_max":0,"o":"m 493 649 l 697 1101 l 969 1101 l 625 428 l 625 -10 l 361 -10 l 361 428 l 17 1101 l 288 1101 z "},"Φ":{"ha":1231,"x_min":0,"x_max":0,"o":"m 747 1100 l 747 942 b 1192 546 1007 924 1192 811 b 747 149 1192 278 1007 165 l 747 -8 l 483 -8 l 483 149 b 38 546 222 165 38 278 b 483 942 38 811 222 924 l 483 1100 z m 294 546 b 483 354 294 418 361 360 l 483 733 b 294 546 361 731 294 671 z m 936 546 b 747 733 936 671 869 731 l 747 354 b 936 546 869 360 936 418 z "},"Χ":{"ha":989,"x_min":0,"x_max":0,"o":"m 292 -8 l 17 -8 l 319 564 l 40 1100 l 315 1100 l 494 724 l 671 1100 l 947 1100 l 667 564 l 971 -8 l 696 -8 l 494 401 z "},"Ψ":{"ha":1149,"x_min":0,"x_max":0,"o":"m 701 232 l 701 -8 l 447 -8 l 447 232 b 63 644 199 265 63 399 l 63 1100 l 319 1100 l 319 644 b 447 447 319 511 369 460 l 447 1100 l 701 1100 l 701 447 b 826 644 782 460 826 515 l 826 1100 l 1085 1100 l 1085 644 b 701 232 1085 399 947 265 z "},"Ω":{"ha":1024,"x_min":0,"x_max":0,"o":"m 511 1121 b 856 978 664 1121 781 1071 b 968 594 939 874 968 739 b 782 204 968 396 900 265 l 949 204 l 949 -10 l 554 -10 l 554 204 b 703 546 654 249 703 344 b 653 836 703 703 690 781 b 511 906 621 882 575 906 b 369 836 447 906 401 882 b 319 546 333 781 319 703 b 469 204 319 344 369 249 l 469 -10 l 75 -10 l 75 204 l 242 204 b 56 594 122 265 56 396 b 168 978 56 739 85 874 b 511 1121 243 1071 360 1121 z "},"α":{"ha":908,"x_min":0,"x_max":0,"o":"m 557 388 b 425 619 557 557 518 619 b 292 388 328 619 292 556 b 425 153 292 218 328 153 b 557 388 518 153 557 215 z m 557 111 b 340 -29 531 31 450 -29 b 44 388 151 -29 44 110 b 340 803 44 663 151 803 b 557 663 450 803 531 744 l 557 783 l 803 783 l 803 225 b 863 163 803 178 821 163 l 886 163 l 886 -19 b 765 -25 849 -22 808 -25 b 557 111 622 -25 572 22 z "},"β":{"ha":888,"x_min":0,"x_max":0,"o":"m 801 806 b 614 574 801 690 733 597 b 849 308 743 561 849 463 b 538 -29 849 89 708 -29 b 311 110 421 -29 340 19 l 311 -354 l 65 -354 l 65 774 b 433 1121 65 992 189 1121 b 801 806 676 1121 801 986 z m 554 797 b 433 935 554 886 510 935 b 311 753 343 935 311 875 l 311 363 b 457 157 311 219 349 157 b 601 318 550 157 601 211 b 433 481 601 432 540 481 l 394 481 l 394 667 l 433 667 b 554 797 511 667 554 707 z "},"γ":{"ha":846,"x_min":0,"x_max":0,"o":"m 546 -354 l 297 -354 l 297 -10 l 17 783 l 268 783 l 422 251 l 574 783 l 828 783 l 546 -10 z "},"δ":{"ha":843,"x_min":0,"x_max":0,"o":"m 408 915 l 649 742 b 797 388 743 674 797 558 b 421 -28 797 131 681 -28 b 43 388 163 -28 43 131 b 303 786 43 599 125 744 l 121 915 l 121 1100 l 736 1100 l 736 915 z m 289 388 b 421 153 289 217 326 153 b 554 388 515 153 554 215 b 421 619 554 556 515 619 b 289 388 326 619 289 554 z "},"ε":{"ha":778,"x_min":0,"x_max":0,"o":"m 394 476 l 513 476 l 513 313 l 399 313 b 288 229 328 313 288 282 b 396 142 288 175 328 142 b 503 221 465 142 501 176 l 750 222 l 750 211 b 396 -28 750 71 617 -28 b 40 211 175 -28 40 71 b 204 394 40 311 107 375 b 58 571 122 415 58 481 b 390 803 58 701 172 803 b 724 564 614 803 724 699 l 724 550 l 483 550 b 390 629 483 599 454 629 b 299 553 331 629 299 599 b 394 476 299 506 339 476 z "},"ζ":{"ha":719,"x_min":0,"x_max":0,"o":"m 582 147 b 682 54 657 143 682 114 b 544 -292 682 -32 621 -187 l 347 -243 b 432 -28 386 -171 417 -93 b 40 308 164 -17 40 94 b 433 918 40 554 190 763 l 122 918 l 122 1101 l 682 1101 l 682 913 b 286 331 426 747 286 565 b 582 147 286 213 358 158 z "},"η":{"ha":850,"x_min":0,"x_max":0,"o":"m 788 496 l 788 -354 l 540 -354 l 540 493 b 442 619 540 581 507 619 b 311 444 363 619 311 557 l 311 -10 l 65 -10 l 65 783 l 311 783 l 311 657 b 529 803 340 744 419 803 b 788 496 693 803 788 700 z "},"θ":{"ha":907,"x_min":0,"x_max":0,"o":"m 854 554 b 453 -29 854 139 731 -29 b 51 554 174 -29 51 142 b 453 1138 51 963 174 1138 b 854 554 731 1138 854 965 z m 453 951 b 296 643 350 951 303 886 l 610 643 b 453 951 603 886 556 951 z m 453 154 b 610 463 556 154 603 219 l 296 463 b 453 154 303 219 350 154 z "},"ι":{"ha":426,"x_min":0,"x_max":0,"o":"m 65 165 l 65 783 l 311 783 l 311 225 b 369 163 311 178 329 163 l 394 163 l 394 -19 b 274 -25 357 -22 317 -25 b 65 165 131 -25 65 18 z "},"κ":{"ha":811,"x_min":0,"x_max":0,"o":"m 65 -10 l 65 783 l 311 783 l 311 488 l 367 488 l 514 783 l 771 783 l 567 403 l 804 -10 l 543 -10 l 365 319 l 311 319 l 311 -10 z "},"λ":{"ha":813,"x_min":0,"x_max":0,"o":"m 0 -8 l 286 775 l 274 814 b 136 935 242 911 204 935 l 96 935 l 96 1117 b 204 1119 125 1119 172 1119 b 496 883 364 1119 428 1074 l 811 -8 l 558 -8 l 407 497 l 253 -8 z "},"μ":{"ha":853,"x_min":0,"x_max":0,"o":"m 311 783 l 311 278 b 410 151 311 189 344 151 b 539 328 488 151 539 215 l 539 783 l 786 783 l 786 -8 l 539 -8 l 539 117 b 393 -28 518 31 463 -28 b 311 21 354 -28 324 -8 l 311 -354 l 64 -354 l 64 783 z "},"ν":{"ha":846,"x_min":0,"x_max":0,"o":"m 551 -8 l 293 -8 l 17 783 l 268 783 l 422 247 l 574 783 l 828 783 z "},"ξ":{"ha":760,"x_min":0,"x_max":0,"o":"m 475 -25 b 42 319 213 -12 43 107 b 293 638 40 485 143 593 b 92 861 171 658 92 740 b 413 1121 92 1007 194 1121 b 735 864 631 1121 732 1010 l 493 864 b 413 939 489 908 465 939 b 332 846 358 939 332 908 b 453 738 332 769 375 738 l 560 738 l 560 551 l 490 551 b 288 351 378 551 288 476 b 624 147 288 229 390 157 b 725 54 699 144 725 114 b 586 -292 725 -32 663 -187 l 390 -243 b 475 -25 428 -171 460 -90 z "},"ο":{"ha":843,"x_min":0,"x_max":0,"o":"m 289 388 b 422 157 289 219 329 157 b 554 388 515 157 554 218 b 422 617 554 551 517 617 b 289 388 328 617 289 550 z m 44 388 b 422 803 44 647 168 803 b 800 388 676 803 800 647 b 422 -29 800 126 676 -29 b 44 388 168 -29 44 126 z "},"π":{"ha":935,"x_min":0,"x_max":0,"o":"m 396 599 l 396 -10 l 150 -10 l 150 599 l 33 599 l 33 783 l 901 783 l 901 599 l 783 599 l 783 -10 l 538 -10 l 538 599 z "},"ρ":{"ha":858,"x_min":0,"x_max":0,"o":"m 813 388 b 517 -28 813 108 704 -28 b 301 113 407 -28 328 31 l 301 -354 l 54 -354 l 54 388 b 433 803 54 636 172 803 b 813 388 696 803 813 640 z m 433 153 b 565 388 526 153 565 214 b 433 619 565 557 526 619 b 301 388 338 619 301 556 b 433 153 301 217 338 153 z "},"σ":{"ha":871,"x_min":0,"x_max":0,"o":"m 799 378 b 421 -28 799 126 678 -28 b 43 378 165 -28 43 126 b 421 783 43 626 165 783 l 851 783 l 851 597 l 699 597 b 799 378 757 565 799 485 z m 554 378 b 421 601 554 539 514 601 b 289 378 329 601 289 536 b 421 153 289 214 331 153 b 554 378 514 153 554 211 z "},"τ":{"ha":744,"x_min":0,"x_max":0,"o":"m 483 599 l 483 236 b 563 160 483 175 501 160 l 604 160 l 604 -19 b 481 -25 575 -22 521 -25 b 236 193 292 -25 236 22 l 236 599 l 13 599 l 13 783 l 724 783 l 724 599 z "},"υ":{"ha":839,"x_min":0,"x_max":0,"o":"m 419 -29 b 61 285 201 -29 61 76 l 61 783 l 307 783 l 307 285 b 419 157 307 196 344 157 b 532 285 494 157 532 196 l 532 783 l 779 783 l 779 285 b 419 -29 779 76 639 -29 z "},"φ":{"ha":1124,"x_min":0,"x_max":0,"o":"m 46 378 b 344 776 46 596 117 743 b 382 581 347 765 381 592 b 281 378 315 563 281 515 b 442 157 281 185 339 157 l 442 783 l 679 783 b 1078 378 968 783 1078 640 b 682 -29 1078 114 965 -26 l 682 -354 l 442 -354 l 442 -29 b 46 378 157 -26 46 113 z m 842 378 b 682 597 842 571 786 597 l 682 157 b 842 378 786 157 842 185 z "},"χ":{"ha":831,"x_min":0,"x_max":0,"o":"m 571 -354 l 415 74 l 258 -354 l 0 -354 l 235 231 l 17 783 l 272 783 l 415 385 l 556 783 l 814 783 l 593 231 l 831 -354 z "},"ψ":{"ha":1083,"x_min":0,"x_max":0,"o":"m 661 -354 l 421 -354 l 421 -22 b 60 313 200 -7 60 114 l 60 783 l 300 783 l 300 308 b 421 161 300 217 349 165 l 421 783 l 661 783 l 661 161 b 783 308 740 167 783 219 l 783 783 l 1022 783 l 1022 313 b 661 -22 1022 114 882 -7 z "},"ω":{"ha":1204,"x_min":0,"x_max":0,"o":"m 479 628 l 725 628 l 725 360 b 818 156 725 208 746 156 b 908 360 882 156 908 208 b 826 783 908 488 881 638 l 1076 783 b 1156 361 1132 638 1156 493 b 847 -29 1156 92 1043 -29 b 601 138 718 -29 636 26 b 356 -29 568 26 485 -29 b 49 361 160 -29 49 92 b 126 783 49 493 72 638 l 378 783 b 296 360 324 638 296 488 b 385 156 296 208 322 156 b 479 360 458 156 479 208 z "},"─":{"ha":1333,"x_min":0,"x_max":0,"o":"m 1333 579 l 1333 497 l 0 497 l 0 579 z "},"│":{"ha":1333,"x_min":0,"x_max":0,"o":"m 626 1233 l 708 1233 l 708 -156 l 626 -156 z "},"┌":{"ha":1333,"x_min":0,"x_max":0,"o":"m 626 -156 l 626 579 l 1333 579 l 1333 497 l 708 497 l 708 -156 z "},"┐":{"ha":1333,"x_min":0,"x_max":0,"o":"m 708 579 l 708 -156 l 626 -156 l 626 497 l 0 497 l 0 579 z "},"┘":{"ha":1333,"x_min":0,"x_max":0,"o":"m 708 1233 l 708 497 l 0 497 l 0 579 l 626 579 l 626 1233 z "},"└":{"ha":1333,"x_min":0,"x_max":0,"o":"m 626 497 l 626 1233 l 708 1233 l 708 579 l 1333 579 l 1333 497 z "},"├":{"ha":1333,"x_min":0,"x_max":0,"o":"m 626 1233 l 708 1233 l 708 579 l 1333 579 l 1333 497 l 708 497 l 708 -156 l 626 -156 z "},"┬":{"ha":1333,"x_min":0,"x_max":0,"o":"m 1333 579 l 1333 497 l 708 497 l 708 -156 l 626 -156 l 626 497 l 0 497 l 0 579 z "},"┤":{"ha":1333,"x_min":0,"x_max":0,"o":"m 708 1233 l 708 -156 l 626 -156 l 626 497 l 0 497 l 0 579 l 626 579 l 626 1233 z "},"┴":{"ha":1333,"x_min":0,"x_max":0,"o":"m 1333 497 l 0 497 l 0 579 l 626 579 l 626 1233 l 708 1233 l 708 579 l 1333 579 z "},"┼":{"ha":1333,"x_min":0,"x_max":0,"o":"m 626 1233 l 708 1233 l 708 579 l 1333 579 l 1333 497 l 708 497 l 708 -156 l 626 -156 l 626 497 l 0 497 l 0 579 l 626 579 z "},"━":{"ha":1333,"x_min":0,"x_max":0,"o":"m 0 604 l 1333 604 l 1333 474 l 0 474 z "},"┃":{"ha":1333,"x_min":0,"x_max":0,"o":"m 601 1233 l 732 1233 l 732 -156 l 601 -156 z "},"┏":{"ha":1333,"x_min":0,"x_max":0,"o":"m 601 604 l 1333 604 l 1333 474 l 732 474 l 732 -156 l 601 -156 z "},"┓":{"ha":1333,"x_min":0,"x_max":0,"o":"m 0 604 l 732 604 l 732 -156 l 601 -156 l 601 474 l 0 474 z "},"┛":{"ha":1333,"x_min":0,"x_max":0,"o":"m 601 1233 l 732 1233 l 732 474 l 0 474 l 0 604 l 601 604 z "},"┗":{"ha":1333,"x_min":0,"x_max":0,"o":"m 601 1233 l 732 1233 l 732 604 l 1333 604 l 1333 474 l 601 474 z "},"┣":{"ha":1333,"x_min":0,"x_max":0,"o":"m 601 1233 l 732 1233 l 732 604 l 1333 604 l 1333 474 l 732 474 l 732 -156 l 601 -156 z "},"┳":{"ha":1333,"x_min":0,"x_max":0,"o":"m 0 474 l 0 604 l 1333 604 l 1333 474 l 732 474 l 732 -156 l 601 -156 l 601 474 z "},"┫":{"ha":1333,"x_min":0,"x_max":0,"o":"m 0 474 l 0 604 l 601 604 l 601 1233 l 732 1233 l 732 -156 l 601 -156 l 601 474 z "},"┻":{"ha":1333,"x_min":0,"x_max":0,"o":"m 601 604 l 601 1233 l 732 1233 l 732 604 l 1333 604 l 1333 474 l 0 474 l 0 604 z "},"╋":{"ha":1333,"x_min":0,"x_max":0,"o":"m 601 604 l 601 1233 l 732 1233 l 732 604 l 1333 604 l 1333 474 l 732 474 l 732 -156 l 601 -156 l 601 474 l 0 474 l 0 604 z "},"┠":{"ha":1333,"x_min":0,"x_max":0,"o":"m 1333 563 l 1333 513 l 732 513 l 732 -156 l 601 -156 l 601 1233 l 732 1233 l 732 563 z "},"┯":{"ha":1333,"x_min":0,"x_max":0,"o":"m 1333 604 l 1333 474 l 692 474 l 692 -156 l 640 -156 l 640 474 l 0 474 l 0 604 z "},"┨":{"ha":1333,"x_min":0,"x_max":0,"o":"m 732 -156 l 601 -156 l 601 513 l 0 513 l 0 563 l 601 563 l 601 1233 l 732 1233 z "},"┷":{"ha":1333,"x_min":0,"x_max":0,"o":"m 640 604 l 640 1233 l 692 1233 l 692 604 l 1333 604 l 1333 474 l 0 474 l 0 604 z "},"┿":{"ha":1333,"x_min":0,"x_max":0,"o":"m 640 604 l 640 1233 l 692 1233 l 692 604 l 1333 604 l 1333 474 l 692 474 l 692 -156 l 640 -156 l 640 474 l 0 474 l 0 604 z "},"┝":{"ha":1333,"x_min":0,"x_max":0,"o":"m 1333 604 l 1333 474 l 692 474 l 692 -156 l 640 -156 l 640 1233 l 692 1233 l 692 604 z "},"┰":{"ha":1333,"x_min":0,"x_max":0,"o":"m 1333 563 l 1333 513 l 732 513 l 732 -156 l 601 -156 l 601 513 l 0 513 l 0 563 z "},"┥":{"ha":1333,"x_min":0,"x_max":0,"o":"m 640 604 l 640 1233 l 692 1233 l 692 -156 l 640 -156 l 640 474 l 0 474 l 0 604 z "},"┸":{"ha":1333,"x_min":0,"x_max":0,"o":"m 601 563 l 601 1233 l 732 1233 l 732 563 l 1333 563 l 1333 513 l 0 513 l 0 563 z "},"╂":{"ha":1333,"x_min":0,"x_max":0,"o":"m 601 563 l 601 1233 l 732 1233 l 732 563 l 1333 563 l 1333 513 l 732 513 l 732 -156 l 601 -156 l 601 513 l 0 513 l 0 563 z "},"┒":{"ha":1333,"x_min":0,"x_max":0,"o":"m 601 513 l 0 513 l 0 563 l 732 563 l 732 -156 l 601 -156 z "},"┑":{"ha":1333,"x_min":0,"x_max":0,"o":"m 640 474 l 0 474 l 0 604 l 692 604 l 692 -156 l 640 -156 z "},"┚":{"ha":1333,"x_min":0,"x_max":0,"o":"m 601 563 l 601 1233 l 732 1233 l 732 513 l 0 513 l 0 563 z "},"┙":{"ha":1333,"x_min":0,"x_max":0,"o":"m 640 604 l 640 1233 l 692 1233 l 692 474 l 0 474 l 0 604 z "},"┖":{"ha":1333,"x_min":0,"x_max":0,"o":"m 732 563 l 1333 563 l 1333 513 l 601 513 l 601 1233 l 732 1233 z "},"┕":{"ha":1333,"x_min":0,"x_max":0,"o":"m 692 604 l 1333 604 l 1333 474 l 640 474 l 640 1233 l 692 1233 z "},"┎":{"ha":1333,"x_min":0,"x_max":0,"o":"m 732 513 l 732 -156 l 601 -156 l 601 563 l 1333 563 l 1333 513 z "},"┍":{"ha":1333,"x_min":0,"x_max":0,"o":"m 640 604 l 1333 604 l 1333 474 l 692 474 l 692 -156 l 640 -156 z "},"┞":{"ha":1333,"x_min":0,"x_max":0,"o":"m 601 1233 l 732 1233 l 732 563 l 1333 563 l 1333 513 l 692 513 l 692 -156 l 640 -156 l 640 513 l 601 513 z "},"┟":{"ha":1333,"x_min":0,"x_max":0,"o":"m 640 1233 l 692 1233 l 692 563 l 1333 563 l 1333 513 l 732 513 l 732 -156 l 601 -156 l 601 563 l 640 563 z "},"┡":{"ha":1333,"x_min":0,"x_max":0,"o":"m 640 -156 l 640 474 l 601 474 l 601 1233 l 732 1233 l 732 604 l 1333 604 l 1333 474 l 692 474 l 692 -156 z "},"┢":{"ha":1333,"x_min":0,"x_max":0,"o":"m 601 -156 l 601 604 l 640 604 l 640 1233 l 692 1233 l 692 604 l 1333 604 l 1333 474 l 732 474 l 732 -156 z "},"┦":{"ha":1333,"x_min":0,"x_max":0,"o":"m 601 1233 l 732 1233 l 732 513 l 692 513 l 692 -156 l 640 -156 l 640 513 l 0 513 l 0 563 l 601 563 z "},"┧":{"ha":1333,"x_min":0,"x_max":0,"o":"m 0 563 l 640 563 l 640 1233 l 692 1233 l 692 563 l 732 563 l 732 -156 l 601 -156 l 601 513 l 0 513 z "},"┩":{"ha":1333,"x_min":0,"x_max":0,"o":"m 0 474 l 0 604 l 601 604 l 601 1233 l 732 1233 l 732 474 l 692 474 l 692 -156 l 640 -156 l 640 474 z "},"┪":{"ha":1333,"x_min":0,"x_max":0,"o":"m 0 474 l 0 604 l 640 604 l 640 1233 l 692 1233 l 692 604 l 732 604 l 732 -156 l 601 -156 l 601 474 z "},"┭":{"ha":1333,"x_min":0,"x_max":0,"o":"m 0 474 l 0 604 l 692 604 l 692 563 l 1333 563 l 1333 513 l 692 513 l 692 -156 l 640 -156 l 640 474 z "},"┮":{"ha":1333,"x_min":0,"x_max":0,"o":"m 0 513 l 0 563 l 640 563 l 640 604 l 1333 604 l 1333 474 l 692 474 l 692 -156 l 640 -156 l 640 513 z "},"┱":{"ha":1333,"x_min":0,"x_max":0,"o":"m 0 474 l 0 604 l 732 604 l 732 563 l 1333 563 l 1333 513 l 732 513 l 732 -156 l 601 -156 l 601 474 z "},"┲":{"ha":1333,"x_min":0,"x_max":0,"o":"m 0 513 l 0 563 l 601 563 l 601 604 l 1333 604 l 1333 474 l 732 474 l 732 -156 l 601 -156 l 601 513 z "},"┵":{"ha":1333,"x_min":0,"x_max":0,"o":"m 0 474 l 0 604 l 640 604 l 640 1233 l 692 1233 l 692 563 l 1333 563 l 1333 513 l 692 513 l 692 474 z "},"┶":{"ha":1333,"x_min":0,"x_max":0,"o":"m 0 513 l 0 563 l 640 563 l 640 1233 l 692 1233 l 692 604 l 1333 604 l 1333 474 l 640 474 l 640 513 z "},"┹":{"ha":1333,"x_min":0,"x_max":0,"o":"m 0 474 l 0 604 l 601 604 l 601 1233 l 732 1233 l 732 563 l 1333 563 l 1333 513 l 732 513 l 732 474 z "},"┺":{"ha":1333,"x_min":0,"x_max":0,"o":"m 0 513 l 0 563 l 601 563 l 601 1233 l 732 1233 l 732 604 l 1333 604 l 1333 474 l 601 474 l 601 513 z "},"┽":{"ha":1333,"x_min":0,"x_max":0,"o":"m 0 474 l 0 604 l 640 604 l 640 1233 l 692 1233 l 692 563 l 1333 563 l 1333 513 l 692 513 l 692 -156 l 640 -156 l 640 474 z "},"┾":{"ha":1333,"x_min":0,"x_max":0,"o":"m 692 1233 l 692 604 l 1333 604 l 1333 474 l 692 474 l 692 -156 l 640 -156 l 640 513 l 0 513 l 0 563 l 640 563 l 640 1233 z "},"╀":{"ha":1333,"x_min":0,"x_max":0,"o":"m 732 1233 l 732 563 l 1333 563 l 1333 513 l 692 513 l 692 -156 l 640 -156 l 640 513 l 0 513 l 0 563 l 601 563 l 601 1233 z "},"╁":{"ha":1333,"x_min":0,"x_max":0,"o":"m 692 1233 l 692 563 l 1333 563 l 1333 513 l 732 513 l 732 -156 l 601 -156 l 601 513 l 0 513 l 0 563 l 640 563 l 640 1233 z "},"╃":{"ha":1333,"x_min":0,"x_max":0,"o":"m 732 1233 l 732 563 l 1333 563 l 1333 513 l 732 513 l 732 474 l 692 474 l 692 -156 l 640 -156 l 640 474 l 0 474 l 0 604 l 601 604 l 601 1233 z "},"╄":{"ha":1333,"x_min":0,"x_max":0,"o":"m 692 -156 l 640 -156 l 640 474 l 601 474 l 601 513 l 0 513 l 0 563 l 601 563 l 601 1233 l 732 1233 l 732 604 l 1333 604 l 1333 474 l 692 474 z "},"╅":{"ha":1333,"x_min":0,"x_max":0,"o":"m 692 1233 l 692 604 l 732 604 l 732 563 l 1333 563 l 1333 513 l 732 513 l 732 -156 l 601 -156 l 601 474 l 0 474 l 0 604 l 640 604 l 640 1233 z "},"╆":{"ha":1333,"x_min":0,"x_max":0,"o":"m 692 1233 l 692 604 l 1333 604 l 1333 472 l 732 472 l 732 -156 l 601 -156 l 601 513 l 0 513 l 0 563 l 601 563 l 601 604 l 640 604 l 640 1233 z "},"╇":{"ha":1333,"x_min":0,"x_max":0,"o":"m 732 1233 l 732 604 l 1333 604 l 1333 474 l 692 474 l 692 -156 l 640 -156 l 640 474 l 0 474 l 0 604 l 601 604 l 601 1233 z "},"╈":{"ha":1333,"x_min":0,"x_max":0,"o":"m 692 1233 l 692 604 l 1333 604 l 1333 474 l 732 474 l 732 -156 l 601 -156 l 601 474 l 0 474 l 0 604 l 640 604 l 640 1233 z "},"╉":{"ha":1333,"x_min":0,"x_max":0,"o":"m 732 1233 l 732 563 l 1333 563 l 1333 513 l 732 513 l 732 -156 l 601 -156 l 601 474 l 0 474 l 0 604 l 601 604 l 601 1233 z "},"╊":{"ha":1333,"x_min":0,"x_max":0,"o":"m 732 1233 l 732 604 l 1333 604 l 1333 474 l 732 474 l 732 -156 l 601 -156 l 601 513 l 0 513 l 0 563 l 601 563 l 601 1233 z "},"㎕":{"ha":1333,"x_min":0,"x_max":0,"o":"m 290 783 l 290 278 b 351 151 290 189 311 151 b 438 328 404 151 438 215 l 438 783 l 672 783 l 672 379 b 754 408 703 389 731 400 l 754 815 b 1022 1119 754 1003 849 1119 b 1290 824 1196 1119 1290 1001 l 1290 811 b 986 294 1290 582 1176 408 b 1036 158 986 204 1004 158 b 1089 257 1060 158 1078 188 l 1307 203 b 1031 -28 1279 58 1189 -28 b 763 197 881 -28 788 50 b 696 181 743 192 721 188 l 672 256 l 672 -8 l 438 -8 l 438 28 b 343 -28 415 -8 381 -28 b 290 -11 322 -28 303 -22 l 290 -354 l 58 -354 l 58 783 z m 1063 811 l 1063 829 b 1022 922 1063 890 1047 922 b 982 803 994 922 982 883 l 982 550 b 1063 811 1035 613 1063 700 z "},"㎖":{"ha":1333,"x_min":0,"x_max":0,"o":"m 508 443 l 508 -8 l 307 -8 l 307 497 b 282 619 307 581 299 619 b 240 443 256 619 240 556 l 240 -8 l 39 -8 l 39 783 l 229 783 l 229 757 b 332 803 253 783 294 803 b 465 729 389 803 438 776 b 600 803 496 776 542 803 b 778 496 714 803 778 699 l 778 382 b 843 406 800 389 825 399 l 843 815 b 1075 1119 843 1003 924 1119 b 1307 824 1226 1119 1307 1001 l 1307 811 b 1044 294 1307 581 1207 406 b 1086 158 1044 204 1057 158 b 1131 257 1106 158 1122 188 l 1322 203 b 1082 -28 1299 58 1219 -28 b 849 199 953 -28 872 53 b 806 185 836 196 819 189 l 778 290 l 778 -8 l 576 -8 l 576 497 b 551 619 576 581 568 619 b 508 443 525 619 508 556 z m 1106 811 l 1106 829 b 1075 922 1106 890 1094 922 b 1044 803 1050 922 1044 883 l 1044 557 b 1106 811 1088 617 1106 699 z "},"㎗":{"ha":1333,"x_min":0,"x_max":0,"o":"m 429 -8 l 429 31 b 293 -28 397 -6 347 -28 b 56 388 143 -28 56 111 b 293 803 56 663 143 803 b 425 747 349 803 393 783 l 425 1100 l 649 1100 l 649 375 b 744 408 683 386 715 399 l 744 815 b 1013 1119 744 1003 838 1119 b 1279 824 1186 1119 1279 1001 l 1279 811 b 975 294 1279 582 1165 408 b 1026 158 975 204 993 158 b 1078 257 1049 158 1068 188 l 1297 203 b 1021 -28 1269 58 1178 -28 b 751 197 871 -28 778 50 b 685 181 732 192 710 188 l 649 297 l 649 -8 z m 351 153 b 425 388 404 153 425 215 b 351 619 425 557 404 619 b 281 388 300 619 281 556 b 351 153 281 217 300 153 z m 1051 811 l 1051 829 b 1013 922 1051 890 1035 922 b 971 803 983 922 971 883 l 971 550 b 1051 811 1024 613 1051 700 z "},"ℓ":{"ha":861,"x_min":0,"x_max":0,"o":"m 499 -28 b 185 208 315 -28 210 64 b 89 183 154 199 121 190 l 17 371 b 178 414 75 383 129 399 l 178 817 b 489 1119 178 1004 286 1119 b 801 825 693 1119 801 1000 l 801 813 b 421 285 801 575 657 403 b 507 160 421 197 451 160 b 593 253 547 160 579 186 l 822 207 b 499 -28 786 63 681 -28 z m 421 825 l 421 524 b 557 813 517 594 557 689 l 557 828 b 489 921 557 890 532 921 b 421 825 444 921 421 892 z "},"㎘":{"ha":1333,"x_min":0,"x_max":0,"o":"m 92 -8 l 92 1100 l 325 1100 l 325 489 l 453 783 l 692 783 l 528 403 l 717 -8 l 475 -8 l 325 315 l 325 -8 z m 1022 158 b 1074 257 1046 158 1064 188 l 1293 203 b 1017 -28 1265 58 1174 -28 b 747 197 867 -28 772 50 b 679 181 726 192 704 186 l 622 369 b 740 408 665 381 706 396 l 740 815 b 1008 1119 740 1003 835 1119 b 1276 824 1182 1119 1276 1001 l 1276 811 b 971 296 1276 581 1161 408 b 1022 158 976 204 985 158 z m 1049 811 l 1049 829 b 1008 922 1049 890 1031 922 b 968 803 978 922 968 883 l 968 550 b 1049 811 1019 613 1049 700 z "},"㏄":{"ha":1333,"x_min":0,"x_max":0,"o":"m 43 388 b 350 803 43 656 144 803 b 650 499 538 803 642 693 l 419 499 b 350 617 415 574 393 617 b 275 388 294 617 275 544 b 350 157 275 219 297 157 b 419 276 393 157 415 199 l 650 276 b 350 -29 642 82 538 -29 b 43 388 144 -29 43 117 z m 686 388 b 994 803 686 656 788 803 b 1294 499 1182 803 1286 693 l 1064 499 b 994 617 1058 574 1036 617 b 918 388 939 617 918 544 b 994 157 918 219 942 157 b 1064 276 1036 157 1058 199 l 1294 276 b 994 -29 1286 82 1182 -29 b 686 388 788 -29 686 117 z "},"㎣":{"ha":1333,"x_min":0,"x_max":0,"o":"m 1008 946 l 1008 958 l 1136 958 b 1164 919 1136 933 1142 919 b 1190 947 1181 919 1190 929 b 1153 979 1190 971 1179 979 l 1099 979 l 1099 1072 l 1153 1072 b 1179 1092 1169 1072 1179 1076 b 1160 1113 1179 1104 1171 1113 b 1139 1090 1150 1113 1139 1108 l 1015 1090 l 1015 1101 b 1161 1211 1015 1165 1067 1211 b 1307 1101 1254 1211 1307 1164 b 1271 1029 1307 1068 1296 1044 b 1318 944 1303 1013 1318 982 b 1164 826 1318 875 1257 826 b 1008 946 1069 826 1008 876 z m 425 443 l 425 -8 l 258 -8 l 258 497 b 240 619 258 589 254 619 b 208 443 219 619 208 565 l 208 -8 l 42 -8 l 42 783 l 194 783 l 194 763 b 282 803 215 786 247 803 b 389 736 324 803 364 776 b 497 803 411 776 451 803 b 642 496 590 803 642 699 l 642 -8 l 474 -8 l 474 497 b 457 619 474 589 469 619 b 425 443 436 619 425 565 z m 1075 443 l 1075 -8 l 908 -8 l 908 497 b 889 619 908 589 904 619 b 858 443 869 619 858 565 l 858 -8 l 690 -8 l 690 783 l 844 783 l 844 763 b 931 803 864 786 896 803 b 1038 736 974 803 1014 776 b 1146 803 1061 776 1100 803 b 1290 496 1240 803 1290 699 l 1290 -8 l 1124 -8 l 1124 497 b 1106 619 1124 589 1119 619 b 1075 443 1085 619 1075 565 z "},"㎤":{"ha":1333,"x_min":0,"x_max":0,"o":"m 1033 443 l 1033 -8 l 849 -8 l 849 497 b 822 619 849 581 840 619 b 782 443 796 619 782 556 l 782 -8 l 597 -8 l 597 783 l 768 783 l 768 760 b 869 803 790 783 832 803 b 993 729 921 803 967 776 b 1119 803 1019 778 1065 803 b 1285 496 1224 803 1285 699 l 1285 -8 l 1100 -8 l 1100 497 b 1075 619 1100 581 1092 619 b 1033 443 1047 619 1033 556 z m 25 388 b 297 803 25 654 106 803 b 564 497 472 803 557 692 l 346 497 b 297 617 343 574 328 617 b 243 388 256 617 243 544 b 297 156 243 219 258 156 b 346 275 326 156 343 199 l 564 275 b 297 -28 557 82 472 -28 b 25 388 106 -28 25 118 z m 1008 946 l 1008 958 l 1136 958 b 1164 919 1136 933 1142 919 b 1190 947 1181 919 1190 929 b 1153 979 1190 971 1179 979 l 1099 979 l 1099 1072 l 1153 1072 b 1179 1092 1169 1072 1179 1076 b 1160 1113 1179 1104 1171 1113 b 1139 1090 1150 1113 1139 1108 l 1015 1090 l 1015 1101 b 1161 1211 1015 1165 1067 1211 b 1307 1101 1254 1211 1307 1164 b 1271 1029 1307 1068 1296 1044 b 1318 944 1303 1013 1318 982 b 1164 826 1318 875 1257 826 b 1008 946 1069 826 1008 876 z "},"㎥":{"ha":1333,"x_min":0,"x_max":0,"o":"m 782 443 l 782 -8 l 536 -8 l 536 497 b 440 619 536 581 503 619 b 313 443 361 619 313 556 l 313 -8 l 67 -8 l 67 783 l 313 783 l 313 657 b 528 803 342 744 417 803 b 756 654 638 803 719 753 b 994 803 799 749 882 803 b 1251 496 1160 803 1251 699 l 1251 -8 l 1004 -8 l 1004 497 b 910 619 1004 581 971 619 b 782 443 831 619 782 556 z m 1008 946 l 1008 958 l 1136 958 b 1164 919 1136 933 1142 919 b 1190 947 1181 919 1190 929 b 1153 979 1190 971 1179 979 l 1099 979 l 1099 1072 l 1153 1072 b 1179 1092 1169 1072 1179 1076 b 1160 1113 1179 1104 1171 1113 b 1139 1090 1150 1113 1139 1108 l 1015 1090 l 1015 1101 b 1161 1211 1015 1165 1067 1211 b 1307 1101 1254 1211 1307 1164 b 1271 1029 1307 1068 1296 1044 b 1318 944 1303 1013 1318 982 b 1164 826 1318 875 1257 826 b 1008 946 1069 826 1008 876 z "},"㎦":{"ha":1333,"x_min":0,"x_max":0,"o":"m 46 -8 l 46 1100 l 244 1100 l 244 475 l 353 783 l 558 783 l 419 403 l 582 -8 l 374 -8 l 244 313 l 244 -8 z m 1025 443 l 1025 -8 l 840 -8 l 840 497 b 815 619 840 581 833 619 b 774 443 789 619 774 556 l 774 -8 l 589 -8 l 589 783 l 758 783 l 758 756 b 861 803 781 782 821 803 b 985 729 913 803 958 776 b 1111 803 1013 778 1058 803 b 1278 496 1217 803 1278 699 l 1278 -8 l 1092 -8 l 1092 497 b 1068 619 1092 581 1085 619 b 1025 443 1040 619 1025 556 z m 1008 946 l 1008 958 l 1136 958 b 1164 919 1136 933 1142 919 b 1190 947 1181 919 1190 929 b 1153 979 1190 971 1179 979 l 1099 979 l 1099 1072 l 1153 1072 b 1179 1092 1169 1072 1179 1076 b 1160 1113 1179 1104 1171 1113 b 1139 1090 1150 1113 1139 1108 l 1015 1090 l 1015 1101 b 1161 1211 1015 1165 1067 1211 b 1307 1101 1254 1211 1307 1164 b 1271 1029 1307 1068 1296 1044 b 1318 944 1303 1013 1318 982 b 1164 826 1318 875 1257 826 b 1008 946 1069 826 1008 876 z "},"㎙":{"ha":1333,"x_min":0,"x_max":0,"o":"m 486 926 l 408 926 b 349 840 363 926 349 901 l 349 783 l 486 783 l 486 597 l 349 597 l 349 -8 l 125 -8 l 125 597 l 40 597 l 40 783 l 125 783 l 125 861 b 374 1111 125 1038 200 1111 b 486 1100 411 1111 450 1110 z m 993 443 l 993 -8 l 792 -8 l 792 497 b 769 619 792 581 786 619 b 729 443 743 619 729 556 l 729 -8 l 529 -8 l 529 783 l 707 783 l 707 754 b 819 803 732 782 775 803 b 949 729 875 803 921 776 b 1082 803 978 778 1024 803 b 1256 496 1193 803 1256 699 l 1256 -8 l 1056 -8 l 1056 497 b 1033 619 1056 581 1050 619 b 993 443 1007 619 993 556 z "},"㎚":{"ha":1333,"x_min":0,"x_max":0,"o":"m 556 496 l 556 -8 l 346 -8 l 346 493 b 304 619 346 581 333 619 b 240 443 265 619 240 556 l 240 -8 l 32 -8 l 32 783 l 240 783 l 240 747 b 363 803 269 783 308 803 b 556 496 486 803 556 700 z m 1047 443 l 1047 -8 l 861 -8 l 861 497 b 836 619 861 581 854 619 b 794 443 810 619 794 556 l 794 -8 l 610 -8 l 610 783 l 782 783 l 782 760 b 882 803 804 783 846 803 b 1007 729 935 803 981 776 b 1133 803 1033 778 1079 803 b 1299 496 1238 803 1299 699 l 1299 -8 l 1113 -8 l 1113 497 b 1089 619 1113 581 1106 619 b 1047 443 1061 619 1047 556 z "},"㎛":{"ha":1333,"x_min":0,"x_max":0,"o":"m 235 783 l 235 278 b 282 151 235 189 250 151 b 349 385 328 151 349 242 l 349 783 l 554 783 l 554 -8 l 358 -8 l 358 21 b 279 -28 339 -10 310 -28 b 235 -8 261 -28 246 -21 l 235 -354 l 32 -354 l 32 783 z m 1047 443 l 1047 -8 l 861 -8 l 861 497 b 836 619 861 581 854 619 b 794 443 810 619 794 556 l 794 -8 l 610 -8 l 610 783 l 782 783 l 782 760 b 882 803 804 783 846 803 b 1007 729 935 803 981 776 b 1133 803 1033 778 1079 803 b 1299 496 1238 803 1299 699 l 1299 -8 l 1113 -8 l 1113 497 b 1089 619 1113 581 1106 619 b 1047 443 1061 619 1047 556 z "},"㎜":{"ha":1333,"x_min":0,"x_max":0,"o":"m 425 443 l 425 -8 l 258 -8 l 258 497 b 240 619 258 589 254 619 b 208 443 219 619 208 565 l 208 -8 l 42 -8 l 42 783 l 194 783 l 194 763 b 282 803 215 786 247 803 b 389 736 324 803 364 776 b 497 803 411 776 451 803 b 642 496 590 803 642 699 l 642 -8 l 474 -8 l 474 497 b 457 619 474 589 469 619 b 425 443 436 619 425 565 z m 1075 443 l 1075 -8 l 908 -8 l 908 497 b 889 619 908 589 904 619 b 858 443 869 619 858 565 l 858 -8 l 690 -8 l 690 783 l 844 783 l 844 763 b 931 803 864 786 896 803 b 1038 736 974 803 1014 776 b 1146 803 1061 776 1100 803 b 1290 496 1240 803 1290 699 l 1290 -8 l 1124 -8 l 1124 497 b 1106 619 1124 589 1119 619 b 1075 443 1085 619 1075 565 z "},"㎝":{"ha":1333,"x_min":0,"x_max":0,"o":"m 1036 443 l 1036 -8 l 851 -8 l 851 497 b 825 619 851 581 843 619 b 783 443 799 619 783 556 l 783 -8 l 599 -8 l 599 783 l 771 783 l 771 760 b 871 803 793 783 835 803 b 996 729 924 803 969 776 b 1122 803 1022 778 1068 803 b 1288 496 1226 803 1288 699 l 1288 -8 l 1103 -8 l 1103 497 b 1078 619 1103 581 1094 619 b 1036 443 1050 619 1036 556 z m 28 388 b 300 803 28 654 108 803 b 567 497 475 803 560 692 l 349 497 b 300 617 346 574 331 617 b 246 388 257 617 246 544 b 300 156 246 219 261 156 b 349 275 329 156 346 199 l 567 275 b 300 -28 560 82 475 -28 b 28 388 108 -28 28 118 z "},"㎞":{"ha":1333,"x_min":0,"x_max":0,"o":"m 53 -8 l 53 1100 l 251 1100 l 251 478 l 361 783 l 567 783 l 426 403 l 590 -8 l 381 -8 l 251 313 l 251 -8 z m 1033 443 l 1033 -8 l 847 -8 l 847 497 b 822 619 847 581 840 619 b 781 443 796 619 781 556 l 781 -8 l 596 -8 l 596 783 l 767 783 l 767 756 b 868 803 789 782 829 803 b 993 729 921 803 967 776 b 1119 803 1019 778 1065 803 b 1285 496 1224 803 1285 699 l 1285 -8 l 1100 -8 l 1100 497 b 1075 619 1100 581 1092 619 b 1033 443 1047 619 1033 556 z "},"㎟":{"ha":1333,"x_min":0,"x_max":0,"o":"m 425 443 l 425 -8 l 258 -8 l 258 497 b 240 619 258 589 254 619 b 208 443 219 619 208 565 l 208 -8 l 42 -8 l 42 783 l 194 783 l 194 763 b 282 803 215 786 247 803 b 389 736 324 803 364 776 b 497 803 411 776 451 803 b 642 496 590 803 642 699 l 642 -8 l 474 -8 l 474 497 b 457 619 474 589 469 619 b 425 443 436 619 425 565 z m 1075 443 l 1075 -8 l 908 -8 l 908 497 b 889 619 908 589 904 619 b 858 443 869 619 858 565 l 858 -8 l 690 -8 l 690 783 l 844 783 l 844 763 b 931 803 864 786 896 803 b 1038 736 974 803 1014 776 b 1146 803 1061 776 1100 803 b 1290 496 1240 803 1290 699 l 1290 -8 l 1124 -8 l 1124 497 b 1106 619 1124 589 1119 619 b 1075 443 1085 619 1075 565 z m 1310 1093 b 1278 1010 1310 1063 1300 1031 l 1193 926 l 1317 926 l 1317 832 l 1018 832 l 1018 913 l 1149 1036 b 1182 1089 1169 1056 1182 1076 b 1161 1114 1182 1106 1175 1114 b 1139 1089 1146 1114 1139 1104 l 1139 1065 l 1011 1065 l 1011 1093 b 1161 1210 1011 1157 1061 1210 b 1310 1093 1261 1210 1310 1157 z "},"㎠":{"ha":1333,"x_min":0,"x_max":0,"o":"m 1033 443 l 1033 -8 l 849 -8 l 849 497 b 822 619 849 581 840 619 b 782 443 796 619 782 556 l 782 -8 l 597 -8 l 597 783 l 768 783 l 768 760 b 869 803 790 783 832 803 b 993 729 921 803 967 776 b 1119 803 1019 778 1065 803 b 1285 496 1224 803 1285 699 l 1285 -8 l 1100 -8 l 1100 497 b 1075 619 1100 581 1092 619 b 1033 443 1047 619 1033 556 z m 25 388 b 297 803 25 654 106 803 b 564 497 472 803 557 692 l 346 497 b 297 617 343 574 328 617 b 243 388 256 617 243 544 b 297 156 243 219 258 156 b 346 275 326 156 343 199 l 564 275 b 297 -28 557 82 472 -28 b 25 388 106 -28 25 118 z m 1310 1093 b 1278 1010 1310 1063 1300 1031 l 1193 926 l 1317 926 l 1317 832 l 1018 832 l 1018 913 l 1149 1036 b 1182 1089 1169 1056 1182 1076 b 1161 1114 1182 1106 1175 1114 b 1139 1089 1146 1114 1139 1104 l 1139 1065 l 1011 1065 l 1011 1093 b 1161 1210 1011 1157 1061 1210 b 1310 1093 1261 1210 1310 1157 z "},"㎡":{"ha":1333,"x_min":0,"x_max":0,"o":"m 782 443 l 782 -8 l 536 -8 l 536 497 b 440 619 536 581 503 619 b 313 443 361 619 313 556 l 313 -8 l 67 -8 l 67 783 l 313 783 l 313 657 b 528 803 342 744 417 803 b 756 654 638 803 719 753 b 994 803 799 749 882 803 b 1251 496 1160 803 1251 699 l 1251 -8 l 1004 -8 l 1004 497 b 910 619 1004 581 971 619 b 782 443 831 619 782 556 z m 1310 1093 b 1278 1010 1310 1063 1300 1031 l 1193 926 l 1317 926 l 1317 832 l 1018 832 l 1018 913 l 1149 1036 b 1182 1089 1169 1056 1182 1076 b 1161 1114 1182 1106 1175 1114 b 1139 1089 1146 1114 1139 1104 l 1139 1065 l 1011 1065 l 1011 1093 b 1161 1210 1011 1157 1061 1210 b 1310 1093 1261 1210 1310 1157 z "},"㎢":{"ha":1333,"x_min":0,"x_max":0,"o":"m 46 -8 l 46 1100 l 244 1100 l 244 479 l 353 783 l 558 783 l 419 403 l 582 -8 l 374 -8 l 244 315 l 244 -8 z m 1025 443 l 1025 -8 l 840 -8 l 840 497 b 815 619 840 581 833 619 b 774 443 789 619 774 556 l 774 -8 l 589 -8 l 589 783 l 758 783 l 758 756 b 861 803 781 782 821 803 b 985 729 913 803 958 776 b 1111 803 1013 778 1058 803 b 1278 496 1217 803 1278 699 l 1278 -8 l 1092 -8 l 1092 497 b 1068 619 1092 581 1085 619 b 1025 443 1040 619 1025 556 z m 1310 1093 b 1278 1010 1310 1063 1300 1031 l 1193 926 l 1317 926 l 1317 832 l 1018 832 l 1018 913 l 1149 1036 b 1182 1089 1169 1056 1182 1076 b 1161 1114 1182 1106 1175 1114 b 1139 1089 1146 1114 1139 1104 l 1139 1065 l 1011 1065 l 1011 1093 b 1161 1210 1011 1157 1061 1210 b 1310 1093 1261 1210 1310 1157 z "},"㏊":{"ha":1333,"x_min":0,"x_max":0,"o":"m 642 496 l 642 -8 l 407 -8 l 407 493 b 358 619 407 581 392 619 b 285 443 314 619 285 556 l 285 -8 l 51 -8 l 51 783 l 285 783 l 285 744 b 424 803 318 779 365 803 b 642 496 563 803 642 700 z m 1060 -8 b 1051 24 1057 0 1054 11 b 911 -28 1019 -7 971 -28 b 685 221 775 -28 685 64 b 911 474 685 379 775 474 b 1046 429 967 474 1013 458 l 1046 518 b 993 624 1046 585 1029 624 b 943 536 963 624 946 592 l 711 536 b 993 803 714 693 810 803 b 1279 515 1182 803 1279 682 l 1279 110 b 1293 -8 1279 63 1283 15 z m 982 131 b 1046 221 1024 131 1046 161 b 982 313 1046 282 1025 313 b 917 221 939 313 917 282 b 982 131 917 161 939 131 z "},"㎍":{"ha":1333,"x_min":0,"x_max":0,"o":"m 286 783 l 286 278 b 333 151 286 189 300 151 b 403 328 376 151 403 215 l 403 783 l 629 783 l 629 -8 l 419 -8 l 419 18 b 331 -28 400 -10 367 -28 b 286 -11 313 -28 296 -21 l 286 -354 l 61 -354 l 61 783 z m 1050 388 b 979 619 1050 557 1031 619 b 908 388 928 619 908 556 b 979 153 908 217 928 153 b 1050 388 1031 153 1050 215 z m 1276 783 l 1276 -51 b 992 -376 1276 -239 1189 -376 b 711 -118 821 -376 726 -278 l 940 -118 b 993 -206 943 -176 963 -206 b 1050 -69 1033 -206 1050 -161 l 1050 22 b 919 -28 1018 -8 972 -28 b 682 388 769 -28 682 111 b 919 803 682 663 769 803 b 1050 750 972 803 1018 783 l 1050 783 z "},"㎎":{"ha":1333,"x_min":0,"x_max":0,"o":"m 1086 388 b 1026 619 1086 557 1068 619 b 965 388 982 619 965 556 b 1026 153 965 217 982 153 b 1086 388 1069 153 1086 215 z m 1281 783 l 1281 -51 b 1038 -376 1281 -237 1206 -376 b 796 -118 890 -376 808 -275 l 993 -118 b 1038 -206 997 -176 1013 -206 b 1086 -69 1071 -206 1086 -161 l 1086 19 b 975 -28 1058 -8 1018 -28 b 771 388 846 -28 771 111 b 975 803 771 663 846 803 b 1086 753 1018 803 1058 783 l 1086 783 z m 481 443 l 481 -8 l 294 -8 l 294 497 b 269 619 294 581 288 619 b 228 443 243 619 228 556 l 228 -8 l 43 -8 l 43 783 l 215 783 l 215 760 b 315 803 238 783 278 803 b 439 729 368 803 414 776 b 567 803 467 778 513 803 b 732 496 671 803 732 699 l 732 -8 l 546 -8 l 546 497 b 522 619 546 581 539 619 b 481 443 494 619 481 556 z "},"㎏":{"ha":1333,"x_min":0,"x_max":0,"o":"m 1026 388 b 956 619 1026 557 1006 619 b 883 388 903 619 883 556 b 956 153 883 217 903 153 b 1026 388 1006 153 1026 215 z m 1251 783 l 1251 -51 b 968 -376 1251 -239 1164 -376 b 688 -118 796 -376 701 -278 l 915 -118 b 969 -206 918 -176 939 -206 b 1026 -69 1008 -206 1026 -161 l 1026 22 b 896 -28 993 -8 949 -28 b 658 388 746 -28 658 111 b 896 803 658 663 746 803 b 1026 750 949 803 993 783 l 1026 783 z m 83 -8 l 83 1100 l 313 1100 l 313 485 l 439 783 l 675 783 l 513 403 l 701 -8 l 463 -8 l 313 319 l 313 -8 z "},"㏏":{"ha":1333,"x_min":0,"x_max":0,"o":"m 103 -8 l 103 1100 l 333 1100 l 333 492 l 356 492 l 479 783 l 718 783 l 546 403 l 746 -8 l 503 -8 l 354 313 l 333 313 l 333 -8 z m 1075 597 l 1075 274 b 1167 163 1075 183 1096 163 l 1247 163 l 1247 -15 b 1110 -19 1214 -18 1147 -19 b 842 240 914 -19 842 51 l 842 597 l 744 597 l 744 783 l 842 783 l 842 1008 l 1075 1008 l 1075 783 l 1247 783 l 1247 597 z "},"㎈":{"ha":1333,"x_min":0,"x_max":0,"o":"m 24 388 b 276 803 24 646 107 803 b 525 497 425 803 518 692 l 335 497 b 276 617 331 574 313 617 b 214 388 232 617 214 544 b 276 156 214 219 233 156 b 335 275 313 156 331 199 l 525 275 b 276 -28 518 82 425 -28 b 24 388 107 -28 24 125 z m 861 -8 b 856 19 858 0 857 11 b 739 -28 828 -11 789 -28 b 550 221 626 -28 550 64 b 739 474 550 379 625 474 b 849 433 783 474 821 460 l 849 518 b 807 624 849 585 836 624 b 765 536 781 624 767 592 l 572 536 b 807 803 575 693 654 803 b 1043 515 963 803 1043 682 l 1043 110 b 1054 -8 1043 64 1047 18 z m 796 131 b 849 221 831 131 849 161 b 796 313 849 282 831 313 b 743 221 761 313 743 282 b 796 131 743 161 761 131 z m 1294 -8 l 1101 -8 l 1101 1100 l 1294 1100 z "},"㎉":{"ha":1333,"x_min":0,"x_max":0,"o":"m 44 -8 l 44 1100 l 197 1100 l 197 517 l 256 783 l 411 783 l 308 403 l 425 -8 l 269 -8 l 197 267 l 197 -8 z m 382 388 b 564 803 382 651 439 803 b 742 497 674 803 738 693 l 590 497 b 564 617 589 574 581 617 b 533 388 540 617 533 544 b 564 156 533 218 542 156 b 590 275 581 156 589 197 l 742 275 b 564 -28 738 81 674 -28 b 382 388 439 -28 382 121 z m 972 -8 b 971 10 971 -3 971 3 b 888 -28 951 -14 921 -28 b 750 221 806 -28 750 64 b 888 474 750 379 806 474 b 950 453 913 474 932 467 l 950 518 b 933 624 950 585 946 624 b 915 536 922 624 918 592 l 765 536 b 933 803 767 704 825 803 b 1104 515 1049 803 1104 692 l 1104 110 b 1111 -8 1104 64 1106 18 z m 928 131 b 950 221 944 131 950 161 b 928 313 950 282 944 313 b 903 221 908 313 903 282 b 928 131 903 161 908 131 z m 1296 -8 l 1143 -8 l 1143 1100 l 1296 1100 z "},"㏈":{"ha":1333,"x_min":0,"x_max":0,"o":"m 394 -10 l 394 26 b 265 -29 364 -3 314 -29 b 36 388 119 -29 36 110 b 265 803 36 664 119 803 b 394 747 319 803 364 782 l 394 1101 l 610 1101 l 610 -10 z m 394 388 b 324 619 394 557 374 619 b 251 388 271 619 251 556 b 324 153 251 218 271 153 b 394 388 374 153 394 215 z m 1054 776 b 978 900 1054 868 1028 900 l 907 900 l 907 653 l 978 653 b 1054 776 1028 653 1054 685 z m 1014 -10 l 679 -10 l 679 1101 l 1001 1101 b 1278 797 1185 1101 1278 996 b 1156 569 1278 683 1231 607 l 1153 569 b 1300 315 1244 532 1300 438 b 1014 -10 1300 99 1201 -10 z m 1072 328 b 993 467 1072 426 1047 467 l 907 467 l 907 190 l 993 190 b 1072 328 1047 190 1072 231 z "},"㎧":{"ha":1333,"x_min":0,"x_max":0,"o":"m 893 225 l 893 232 l 1063 232 l 1063 213 b 1103 136 1063 168 1079 136 b 1142 213 1129 136 1142 168 b 1092 300 1142 276 1124 288 b 1056 313 1079 304 1067 308 b 892 556 946 353 892 417 b 1093 803 892 697 964 803 b 1292 565 1224 803 1292 699 l 1292 553 l 1125 553 l 1125 567 b 1092 635 1125 606 1110 635 b 1060 568 1069 635 1060 606 b 1153 474 1060 497 1094 494 b 1190 458 1167 468 1179 464 b 1313 226 1272 419 1313 353 b 1103 -28 1313 78 1235 -28 b 893 225 965 -28 893 81 z m 408 443 l 408 -8 l 240 -8 l 240 497 b 228 619 240 589 239 619 b 203 443 211 619 203 565 l 203 -8 l 35 -8 l 35 783 l 186 783 l 186 765 b 268 803 204 786 235 803 b 371 743 310 803 347 781 b 474 803 392 779 431 803 b 617 496 567 803 617 699 l 617 -8 l 447 -8 l 447 497 b 435 619 447 589 444 619 b 408 443 417 619 408 565 z m 779 1106 l 939 1106 l 739 -325 l 579 -325 z "},"㎨":{"ha":1333,"x_min":0,"x_max":0,"o":"m 408 443 l 408 -8 l 240 -8 l 240 497 b 228 619 240 589 239 619 b 203 443 211 619 203 565 l 203 -8 l 35 -8 l 35 783 l 186 783 l 186 765 b 268 803 204 786 235 803 b 371 743 310 803 347 781 b 474 803 392 779 431 803 b 617 496 567 803 617 699 l 617 -8 l 447 -8 l 447 497 b 435 619 447 589 444 619 b 408 443 417 619 408 565 z m 779 1106 l 939 1106 l 739 -325 l 579 -325 z m 1310 1093 b 1281 1018 1310 1065 1301 1039 l 1193 926 l 1317 926 l 1317 832 l 1018 832 l 1018 913 l 1165 1057 b 1182 1089 1176 1068 1182 1081 b 1160 1114 1182 1106 1175 1114 b 1139 1089 1146 1114 1139 1104 l 1139 1065 l 1011 1065 l 1011 1093 b 1161 1210 1011 1157 1061 1210 b 1310 1093 1261 1210 1310 1157 z m 893 225 l 893 232 l 1063 232 l 1063 213 b 1103 136 1063 168 1079 136 b 1142 213 1129 136 1142 168 b 1092 300 1142 276 1124 288 b 1056 313 1079 304 1067 308 b 892 556 946 353 892 417 b 1093 803 892 697 964 803 b 1292 565 1224 803 1292 699 l 1292 553 l 1125 553 l 1125 567 b 1092 635 1125 606 1110 635 b 1060 568 1069 635 1060 606 b 1153 474 1060 497 1094 494 b 1190 458 1167 468 1179 464 b 1313 226 1272 419 1313 353 b 1103 -28 1313 78 1235 -28 b 893 225 965 -28 893 81 z "},"㎰":{"ha":1333,"x_min":0,"x_max":0,"o":"m 292 783 l 292 742 b 435 803 325 781 374 803 b 679 388 589 803 679 664 b 435 -28 679 108 589 -28 b 292 33 374 -28 325 -6 l 292 -354 l 64 -354 l 64 783 z m 371 153 b 451 388 428 153 451 214 b 371 619 451 557 428 619 b 292 388 315 619 292 556 b 371 153 292 215 314 153 z m 718 225 l 718 232 l 953 232 l 953 213 b 1003 136 953 169 975 136 b 1053 213 1036 136 1053 168 b 988 300 1053 276 1025 290 b 915 319 961 307 938 313 b 717 556 785 361 717 425 b 989 803 717 697 815 803 b 1260 565 1167 803 1260 699 l 1260 553 l 1028 553 l 1028 567 b 989 635 1028 606 1013 635 b 949 568 961 635 949 606 b 1018 488 949 514 975 499 b 1081 471 1040 482 1061 476 b 1286 226 1219 429 1286 367 b 1003 -28 1286 78 1181 -28 b 718 225 815 -28 718 81 z "},"㎱":{"ha":1333,"x_min":0,"x_max":0,"o":"m 663 496 l 663 -8 l 426 -8 l 426 493 b 372 619 426 581 408 619 b 292 443 324 619 292 556 l 292 -8 l 57 -8 l 57 783 l 292 783 l 292 736 b 440 803 325 779 376 803 b 663 496 582 803 663 700 z m 719 225 l 719 232 l 954 232 l 954 213 b 1004 136 954 169 976 136 b 1054 213 1038 136 1054 168 b 989 300 1054 276 1026 290 b 917 319 963 307 939 313 b 718 556 786 361 718 425 b 990 803 718 697 817 803 b 1261 565 1168 803 1261 699 l 1261 553 l 1029 553 l 1029 567 b 990 635 1029 606 1014 635 b 950 568 963 635 950 606 b 1019 488 950 514 976 499 b 1082 471 1042 482 1063 476 b 1288 226 1221 429 1288 367 b 1004 -28 1288 78 1182 -28 b 719 225 817 -28 719 81 z "},"㎲":{"ha":1333,"x_min":0,"x_max":0,"o":"m 293 783 l 293 278 b 350 151 293 189 313 151 b 429 328 397 151 429 215 l 429 783 l 665 783 l 665 -8 l 438 -8 l 438 22 b 346 -28 414 -10 381 -28 b 293 -10 326 -28 306 -21 l 293 -354 l 60 -354 l 60 783 z m 719 225 l 719 232 l 954 232 l 954 213 b 1004 136 954 169 976 136 b 1054 213 1038 136 1054 168 b 989 300 1054 276 1026 290 b 917 319 963 307 939 313 b 718 556 786 361 718 425 b 990 803 718 697 817 803 b 1261 565 1168 803 1261 699 l 1261 553 l 1029 553 l 1029 567 b 990 635 1029 606 1014 635 b 950 568 963 635 950 606 b 1019 488 950 514 976 499 b 1082 471 1042 482 1063 476 b 1288 226 1221 429 1288 367 b 1004 -28 1288 78 1182 -28 b 719 225 817 -28 719 81 z "},"㎳":{"ha":1333,"x_min":0,"x_max":0,"o":"m 781 225 l 781 232 l 994 232 l 994 213 b 1042 136 994 168 1013 136 b 1089 213 1072 136 1089 168 b 1028 300 1089 272 1064 290 b 953 322 1001 307 975 315 b 779 556 838 361 779 428 b 1031 803 779 697 861 803 b 1278 565 1201 803 1278 699 l 1278 553 l 1067 553 l 1067 567 b 1029 635 1067 606 1054 635 b 992 568 1004 635 992 606 b 1057 488 992 515 1018 499 b 1135 464 1086 479 1111 472 b 1303 226 1246 428 1303 358 b 1042 -28 1303 78 1215 -28 b 781 225 863 -28 781 81 z m 485 443 l 485 -8 l 300 -8 l 300 497 b 274 619 300 581 292 619 b 232 443 247 619 232 556 l 232 -8 l 49 -8 l 49 783 l 219 783 l 219 760 b 321 803 242 783 283 803 b 444 729 372 803 418 776 b 571 803 471 778 517 803 b 736 496 675 803 736 699 l 736 -8 l 551 -8 l 551 497 b 526 619 551 581 543 619 b 485 443 499 619 485 556 z "},"㎴":{"ha":1333,"x_min":0,"x_max":0,"o":"m 286 783 l 286 750 b 422 803 321 785 369 803 b 663 388 574 803 663 664 b 422 -28 663 108 574 -28 b 294 21 369 -28 326 -12 l 294 -354 l 64 -354 l 64 783 z m 363 153 b 431 388 413 153 431 214 b 363 619 431 557 413 619 b 294 388 314 619 294 556 b 363 153 294 215 314 153 z m 807 1100 l 942 414 l 1078 1100 l 1322 1100 l 1068 -8 l 817 -8 l 563 1100 z "},"㎵":{"ha":1333,"x_min":0,"x_max":0,"o":"m 642 496 l 642 -8 l 410 -8 l 410 493 b 367 619 410 581 397 619 b 299 443 325 619 299 556 l 299 -8 l 68 -8 l 68 783 l 290 783 l 290 747 b 429 803 322 782 374 803 b 642 496 564 803 642 700 z m 807 1100 l 942 414 l 1078 1100 l 1322 1100 l 1068 -8 l 817 -8 l 563 1100 z "},"㎶":{"ha":1333,"x_min":0,"x_max":0,"o":"m 290 783 l 290 278 b 336 151 290 189 308 151 b 403 385 381 151 403 243 l 403 783 l 635 783 l 635 -8 l 419 -8 l 419 22 b 332 -28 400 -7 368 -28 b 290 -14 315 -28 301 -24 l 290 -354 l 61 -354 l 61 783 z m 813 1100 l 947 414 l 1082 1100 l 1328 1100 l 1074 -8 l 822 -8 l 567 1100 z "},"㎷":{"ha":1333,"x_min":0,"x_max":0,"o":"m 871 1100 l 990 407 l 1110 1100 l 1332 1100 l 1103 -8 l 878 -8 l 649 1100 z m 483 443 l 483 -8 l 299 -8 l 299 497 b 272 619 299 581 290 619 b 231 443 246 619 231 556 l 231 -8 l 46 -8 l 46 783 l 218 783 l 218 760 b 318 803 240 783 282 803 b 443 729 371 803 417 776 b 569 803 469 778 515 803 b 735 496 674 803 735 699 l 735 -8 l 550 -8 l 550 497 b 525 619 550 581 542 619 b 483 443 497 619 483 556 z "},"㎸":{"ha":1333,"x_min":0,"x_max":0,"o":"m 76 -8 l 76 1100 l 307 1100 l 307 483 l 428 783 l 640 783 l 567 1100 l 813 1100 l 947 414 l 1082 1100 l 1328 1100 l 1074 -8 l 822 -8 l 649 746 l 506 403 l 689 -8 l 450 -8 l 307 321 l 307 -8 z "},"㎹":{"ha":1333,"x_min":0,"x_max":0,"o":"m 465 -8 l 308 -8 l 233 397 l 233 -8 l 47 -8 l 47 1100 l 233 1100 l 388 371 l 542 1100 l 728 1100 l 728 -8 l 540 -8 l 540 396 z m 943 1100 l 1036 442 l 1126 1100 l 1329 1100 l 1139 -8 l 932 -8 l 742 1100 z "},"㎀":{"ha":1333,"x_min":0,"x_max":0,"o":"m 264 783 l 264 746 b 394 803 294 779 343 803 b 622 388 539 803 622 664 b 394 -28 622 108 539 -28 b 264 28 339 -28 294 -8 l 264 -354 l 49 -354 l 49 783 z m 335 153 b 407 388 386 153 407 214 b 335 619 407 557 386 619 b 264 388 285 619 264 556 b 335 153 264 215 283 153 z m 826 -8 l 596 -8 l 843 1100 l 1079 1100 l 1326 -8 l 1097 -8 l 1060 186 l 863 186 z m 900 392 l 1022 392 l 961 739 z "},"㎁":{"ha":1333,"x_min":0,"x_max":0,"o":"m 594 496 l 594 -8 l 379 -8 l 379 493 b 332 619 379 581 364 619 b 261 443 288 619 261 556 l 261 -8 l 46 -8 l 46 783 l 261 783 l 261 746 b 393 803 293 782 338 803 b 594 496 521 803 594 700 z m 826 -8 l 596 -8 l 843 1100 l 1079 1100 l 1326 -8 l 1097 -8 l 1060 186 l 863 186 z m 900 392 l 1022 392 l 961 739 z "},"㎂":{"ha":1333,"x_min":0,"x_max":0,"o":"m 264 783 l 264 278 b 311 151 264 189 279 151 b 381 328 354 151 381 215 l 381 783 l 596 783 l 596 -8 l 389 -8 l 389 21 b 303 -28 367 -10 333 -28 b 264 -17 288 -28 275 -24 l 264 -354 l 49 -354 l 49 783 z m 826 -8 l 596 -8 l 843 1100 l 1079 1100 l 1326 -8 l 1097 -8 l 1060 186 l 863 186 z m 900 392 l 1022 392 l 961 739 z "},"㎃":{"ha":1333,"x_min":0,"x_max":0,"o":"m 965 392 l 1064 392 l 1015 736 z m 532 -8 l 532 497 b 508 619 532 581 525 619 b 465 443 481 619 465 556 l 465 -8 l 281 -8 l 281 497 b 254 619 281 581 274 619 b 214 443 229 619 214 556 l 214 -8 l 29 -8 l 29 783 l 200 783 l 200 760 b 301 803 222 783 264 803 b 425 729 353 803 399 776 b 551 803 453 778 499 803 b 717 496 656 803 717 699 l 717 86 l 911 1100 l 1119 1100 l 1332 -8 l 1129 -8 l 1096 186 l 933 186 l 901 -8 z "},"㎄":{"ha":1333,"x_min":0,"x_max":0,"o":"m 878 392 l 1010 392 l 944 742 z m 428 -8 l 299 319 l 292 319 l 292 -8 l 75 -8 l 75 1100 l 292 1100 l 292 488 l 300 488 l 407 783 l 626 783 l 479 403 l 599 114 l 826 1100 l 1064 1100 l 1318 -8 l 1089 -8 l 1049 186 l 839 186 l 800 -8 z "},"㎺":{"ha":1333,"x_min":0,"x_max":0,"o":"m 819 1100 l 994 1100 l 1072 440 l 1138 1100 l 1329 1100 l 1178 -8 l 993 -8 l 906 624 l 819 -8 l 636 -8 l 483 1100 l 675 1100 l 740 439 z m 225 783 l 225 760 b 336 803 251 788 293 803 b 526 388 456 803 526 664 b 336 -28 526 108 456 -28 b 242 10 299 -28 265 -15 l 242 -354 l 57 -354 l 57 783 z m 290 153 b 340 388 326 153 340 214 b 290 619 340 557 326 619 b 242 388 256 619 242 556 b 290 153 242 215 256 153 z "},"㎻":{"ha":1333,"x_min":0,"x_max":0,"o":"m 506 496 l 506 -8 l 319 -8 l 319 493 b 286 619 319 581 308 619 b 235 443 256 619 235 556 l 235 -8 l 49 -8 l 49 783 l 224 783 l 224 750 b 335 803 249 782 292 803 b 506 496 443 803 506 700 z m 819 1100 l 994 1100 l 1072 440 l 1138 1100 l 1329 1100 l 1178 -8 l 993 -8 l 906 624 l 819 -8 l 636 -8 l 483 1100 l 675 1100 l 740 439 z "},"㎼":{"ha":1333,"x_min":0,"x_max":0,"o":"m 236 783 l 236 278 b 268 151 236 189 247 151 b 321 385 304 151 321 242 l 321 783 l 506 783 l 506 -8 l 340 -8 l 340 13 b 269 -28 322 -14 296 -28 b 236 -15 256 -28 243 -24 l 236 -354 l 50 -354 l 50 783 z m 819 1100 l 994 1100 l 1072 440 l 1138 1100 l 1329 1100 l 1178 -8 l 993 -8 l 906 624 l 819 -8 l 636 -8 l 483 1100 l 675 1100 l 740 439 z "},"㎽":{"ha":1333,"x_min":0,"x_max":0,"o":"m 417 443 l 417 -8 l 251 -8 l 251 497 b 235 619 251 581 247 619 b 204 443 215 619 204 556 l 204 -8 l 39 -8 l 39 783 l 190 783 l 190 765 b 275 803 210 788 246 803 b 379 739 317 803 356 778 b 485 803 403 776 440 803 b 629 496 581 803 629 699 l 629 -8 l 463 -8 l 463 497 b 446 619 463 581 458 619 b 417 443 426 619 417 556 z m 1042 1100 l 1100 500 l 1151 1100 l 1326 1100 l 1197 -8 l 1028 -8 l 963 550 l 896 -8 l 726 -8 l 597 1100 l 774 1100 l 824 499 l 882 1100 z "},"㎾":{"ha":1333,"x_min":0,"x_max":0,"o":"m 819 1100 l 994 1100 l 1072 440 l 1138 1100 l 1329 1100 l 1178 -8 l 993 -8 l 906 624 l 819 -8 l 636 -8 l 535 729 l 415 403 l 578 -8 l 369 -8 l 240 326 l 240 -8 l 40 -8 l 40 1100 l 240 1100 l 240 478 l 349 783 l 526 783 l 483 1100 l 675 1100 l 740 439 z "},"㎿":{"ha":1333,"x_min":0,"x_max":0,"o":"m 393 -8 l 256 -8 l 206 363 l 206 -8 l 40 -8 l 40 1100 l 203 1100 l 325 415 l 446 1100 l 608 1100 l 608 -8 l 444 -8 l 444 363 z m 897 1100 l 1050 1100 l 1107 504 l 1153 1100 l 1324 1100 l 1200 -8 l 1040 -8 l 974 579 l 908 -8 l 747 -8 l 625 1100 l 794 1100 l 842 504 z "},"㎐":{"ha":1333,"x_min":0,"x_max":0,"o":"m 482 -8 l 482 451 l 314 451 l 314 -8 l 82 -8 l 82 1100 l 314 1100 l 314 665 l 482 665 l 482 1100 l 714 1100 l 714 -8 z m 1275 783 l 1275 618 l 1033 175 l 1283 175 l 1283 -8 l 774 -8 l 774 154 l 1015 597 l 782 597 l 782 783 z "},"㎑":{"ha":1333,"x_min":0,"x_max":0,"o":"m 1301 783 l 1301 622 l 1140 175 l 1307 175 l 1307 -8 l 940 -8 l 940 150 l 1100 597 l 946 597 l 946 783 z m 289 -8 l 221 269 l 221 -8 l 40 -8 l 40 1100 l 221 1100 l 221 531 l 275 783 l 458 783 l 350 403 l 472 1 l 472 1100 l 656 1100 l 656 665 l 731 665 l 731 1100 l 913 1100 l 913 -8 l 731 -8 l 731 451 l 656 451 l 656 -8 z "},"㎒":{"ha":1333,"x_min":0,"x_max":0,"o":"m 342 -8 l 218 -8 l 183 349 l 183 -8 l 35 -8 l 35 1100 l 181 1100 l 281 454 l 381 1100 l 525 1100 l 525 -8 l 376 -8 l 376 349 z m 786 -8 l 786 451 l 742 451 l 742 -8 l 571 -8 l 571 1100 l 742 1100 l 742 665 l 786 665 l 786 1100 l 954 1100 l 954 -8 z m 1303 783 l 1303 622 l 1169 175 l 1307 175 l 1307 -8 l 986 -8 l 986 150 l 1118 597 l 990 597 l 990 783 z "},"㎓":{"ha":1333,"x_min":0,"x_max":0,"o":"m 19 546 b 256 1119 19 878 78 1119 b 488 714 401 1119 483 963 l 314 714 b 256 904 313 833 293 904 b 194 546 214 904 194 836 b 258 185 194 261 214 185 b 319 397 296 185 317 278 l 236 397 l 236 582 l 488 582 l 488 -8 l 349 -8 l 344 31 b 240 -28 321 -4 283 -28 b 19 546 83 -28 19 208 z m 767 -8 l 767 451 l 692 451 l 692 -8 l 518 -8 l 518 1100 l 692 1100 l 692 665 l 767 665 l 767 1100 l 940 1100 l 940 -8 z m 1310 783 l 1310 618 l 1156 175 l 1315 175 l 1315 -8 l 965 -8 l 965 154 l 1118 597 l 969 597 l 969 783 z "},"㎔":{"ha":1333,"x_min":0,"x_max":0,"o":"m 736 -8 l 736 451 l 664 451 l 664 -8 l 481 -8 l 481 1100 l 664 1100 l 664 665 l 736 665 l 736 1100 l 919 1100 l 919 -8 z m 1303 783 l 1303 621 l 1143 175 l 1308 175 l 1308 -8 l 946 -8 l 946 151 l 1104 597 l 951 597 l 951 783 z m 14 886 l 14 1100 l 449 1100 l 449 886 l 326 886 l 326 -8 l 138 -8 l 138 886 z "},"Ω":{"ha":1021,"x_min":0,"x_max":0,"o":"m 511 1119 b 854 978 661 1119 779 1071 b 965 594 938 874 965 742 b 781 206 965 403 901 275 l 946 206 l 946 -8 l 553 -8 l 553 206 b 701 546 651 250 701 349 b 651 835 701 703 688 781 b 511 904 621 882 574 904 b 369 835 447 904 401 882 b 319 546 333 781 319 703 b 468 206 319 349 369 250 l 468 -8 l 74 -8 l 74 206 l 240 206 b 56 594 119 275 56 403 b 167 978 56 742 83 874 b 511 1119 242 1071 358 1119 z "},"㏀":{"ha":1333,"x_min":0,"x_max":0,"o":"m 75 -8 l 75 1100 l 286 1100 l 279 501 l 381 783 l 596 783 l 451 403 l 617 -8 l 400 -8 l 286 282 l 286 -8 z m 946 904 b 844 546 856 904 844 763 b 929 197 844 340 871 244 l 929 -8 l 635 -8 l 635 203 l 744 203 b 622 593 667 272 622 404 b 946 1119 622 886 685 1119 b 1269 593 1207 1119 1269 890 b 1147 203 1269 404 1226 272 l 1257 203 l 1257 -8 l 964 -8 l 964 197 b 1047 546 1022 244 1047 340 b 946 904 1047 763 1036 904 z "},"㏁":{"ha":1333,"x_min":0,"x_max":0,"o":"m 451 -10 l 294 -10 l 224 403 l 224 -10 l 35 -10 l 35 1101 l 221 1101 l 374 371 l 525 1101 l 713 1101 l 713 -10 l 522 -10 l 522 403 z m 1025 906 b 989 888 1010 906 999 899 b 943 546 953 847 943 733 b 1011 197 943 340 960 244 l 1011 -10 l 761 -10 l 761 204 l 860 204 b 750 594 796 272 750 407 b 865 1063 750 822 781 983 b 1025 1121 906 1101 957 1121 b 1183 1063 1092 1121 1144 1101 b 1299 594 1267 982 1299 822 b 1189 204 1299 407 1254 272 l 1289 204 l 1289 -10 l 1039 -10 l 1039 197 b 1106 546 1089 244 1106 340 b 1061 888 1106 733 1099 849 b 1025 906 1050 899 1039 906 z "},"㎊":{"ha":1333,"x_min":0,"x_max":0,"o":"m 290 783 l 290 739 b 436 803 324 776 375 803 b 683 388 592 803 683 665 b 436 -29 683 108 592 -29 b 290 36 374 -29 322 -4 l 290 -354 l 61 -354 l 61 783 z m 290 388 b 372 153 290 217 313 153 b 454 388 431 153 454 215 b 372 619 454 557 431 619 b 290 388 313 619 290 557 z m 726 -10 l 726 1101 l 1301 1101 l 1301 888 l 968 888 l 968 650 l 1264 650 l 1264 436 l 968 436 l 968 -10 z "},"㎋":{"ha":1333,"x_min":0,"x_max":0,"o":"m 650 496 l 650 -10 l 421 -10 l 421 493 b 365 619 421 581 403 619 b 285 444 317 619 285 557 l 285 -10 l 56 -10 l 56 783 l 285 783 l 285 736 b 432 803 318 778 368 803 b 650 496 571 803 650 700 z m 726 -10 l 726 1101 l 1301 1101 l 1301 888 l 968 888 l 968 650 l 1264 650 l 1264 436 l 968 436 l 968 -10 z "},"㎌":{"ha":1333,"x_min":0,"x_max":0,"o":"m 285 783 l 285 278 b 340 151 285 189 304 151 b 421 328 389 151 421 215 l 421 783 l 650 783 l 650 -8 l 429 -8 l 429 28 b 329 -28 404 -6 365 -28 b 285 -11 311 -28 294 -21 l 285 -354 l 56 -354 l 56 783 z m 725 -8 l 725 1100 l 1300 1100 l 1300 886 l 968 886 l 968 650 l 1263 650 l 1263 436 l 968 436 l 968 -8 z "},"㏖":{"ha":1333,"x_min":0,"x_max":0,"o":"m 431 443 l 431 -8 l 260 -8 l 260 497 b 236 619 260 581 253 619 b 197 443 210 619 197 556 l 197 -8 l 26 -8 l 26 783 l 183 783 l 183 756 b 279 803 204 783 243 803 b 396 724 332 803 371 781 b 513 803 421 775 460 803 b 664 496 611 803 664 699 l 664 -8 l 493 -8 l 493 497 b 469 619 493 581 486 619 b 431 443 443 619 431 556 z m 1104 388 b 896 -28 1104 125 1056 -28 b 688 388 738 -28 688 125 b 896 803 688 646 738 803 b 1104 388 1056 803 1104 646 z m 858 388 b 896 156 858 219 863 156 b 933 388 928 156 933 218 b 896 617 933 551 929 617 b 858 388 863 617 858 549 z m 1299 -8 l 1128 -8 l 1128 1100 l 1299 1100 z "},"㏅":{"ha":1333,"x_min":0,"x_max":0,"o":"m 44 388 b 343 803 44 647 142 803 b 636 499 518 803 629 693 l 406 499 b 343 617 401 574 382 617 b 276 388 293 617 276 544 b 343 157 276 219 294 157 b 406 276 382 157 401 199 l 636 276 b 343 -29 629 82 518 -29 b 44 388 142 -29 44 126 z m 1047 -10 l 1047 24 b 911 -29 1015 -8 965 -29 b 669 388 758 -29 669 110 b 911 803 669 664 758 803 b 1038 757 963 803 1007 786 l 1038 1101 l 1272 1101 l 1272 -10 z m 1038 388 b 971 619 1038 557 1019 619 b 903 388 922 619 903 556 b 971 153 903 218 922 153 b 1038 388 1019 153 1038 215 z "},"㎭":{"ha":1333,"x_min":0,"x_max":0,"o":"m 651 -8 b 646 18 649 -1 647 8 b 544 -28 624 -10 585 -28 b 374 221 442 -28 374 64 b 544 474 374 379 442 474 b 632 446 579 474 608 464 l 632 518 b 603 624 632 585 624 624 b 575 536 585 624 576 592 l 393 536 b 603 803 396 696 463 803 b 814 515 744 803 814 686 l 814 110 b 825 -8 814 63 817 15 z m 594 131 b 632 221 621 131 632 161 b 594 313 632 282 621 313 b 556 221 568 313 556 282 b 594 131 556 161 568 131 z m 1128 -8 l 1128 18 b 1029 -28 1107 -8 1071 -28 b 846 388 913 -28 846 111 b 1029 803 846 663 913 803 b 1119 767 1068 803 1097 790 l 1119 1100 l 1301 1100 l 1301 -8 z m 1074 153 b 1119 388 1107 153 1119 215 b 1074 619 1119 557 1107 619 b 1028 388 1040 619 1028 556 b 1074 153 1028 217 1040 153 z m 338 597 b 214 369 260 597 214 519 l 214 -8 l 31 -8 l 31 783 l 214 783 l 214 707 b 340 803 236 769 279 803 b 388 793 357 803 375 799 l 386 594 b 338 597 372 596 354 597 z "},"㎮":{"ha":1333,"x_min":0,"x_max":0,"o":"m 863 79 l 863 86 l 1022 86 l 1022 69 b 1071 46 1022 54 1040 46 b 1118 71 1103 46 1118 56 b 1071 97 1118 83 1108 92 l 1063 99 b 861 239 929 121 861 153 b 1061 378 861 319 932 378 b 1260 233 1193 378 1260 318 l 1100 233 l 1100 244 b 1060 264 1100 256 1088 264 b 1021 244 1033 264 1021 257 b 1078 221 1021 233 1036 228 l 1094 218 b 1279 76 1215 197 1279 172 b 1071 -67 1279 -8 1203 -67 b 863 79 933 -67 863 -8 z m 543 551 b 539 568 542 556 539 563 b 456 542 518 551 485 542 b 310 679 369 542 310 592 b 456 817 310 764 368 817 b 522 806 481 817 504 813 l 522 826 b 504 869 522 856 518 869 b 485 838 490 869 485 857 l 325 838 b 503 981 328 932 385 981 b 682 825 624 981 682 918 l 682 621 b 697 551 682 599 686 572 z m 496 644 b 521 679 514 644 521 657 b 496 713 521 701 514 713 b 469 679 476 713 469 701 b 496 644 469 657 478 644 z m 933 551 l 933 567 b 853 542 913 551 883 542 b 697 761 754 542 697 614 b 853 981 697 907 754 981 b 921 967 881 981 904 976 l 921 1129 l 1082 1129 l 1082 565 l 1250 633 l 1299 519 l 103 31 l 50 147 l 1047 551 z m 890 656 b 921 761 913 656 921 683 b 890 865 921 838 913 865 b 858 761 867 865 858 838 b 890 656 858 685 867 656 z m 275 854 b 188 753 218 854 188 821 l 188 551 l 26 551 l 26 971 l 188 971 l 188 942 b 276 981 207 967 239 981 b 321 975 292 981 307 979 l 319 853 b 275 854 301 854 289 854 z "},"㎯":{"ha":1333,"x_min":0,"x_max":0,"o":"m 1325 413 b 1303 353 1325 389 1318 368 l 1264 314 l 1329 314 l 1329 244 l 1157 244 b 1158 221 1158 238 1158 229 l 999 221 l 999 232 b 958 251 999 243 986 251 b 919 232 932 251 919 244 b 976 208 919 221 935 215 l 993 206 b 1178 64 1114 185 1178 160 b 969 -79 1178 -21 1101 -79 b 761 67 832 -79 761 -21 l 761 74 l 921 74 l 921 57 b 969 33 921 42 939 33 b 1017 58 1001 33 1017 43 b 969 85 1017 71 1007 79 l 961 86 b 760 226 828 108 760 140 b 960 365 760 307 831 365 b 1136 296 1047 365 1107 339 l 1136 303 l 1224 379 b 1239 408 1235 389 1239 399 b 1229 421 1239 418 1235 421 b 1219 408 1222 421 1219 417 l 1219 399 l 1132 399 l 1132 413 b 1231 489 1132 457 1167 489 b 1325 413 1293 489 1325 458 z m 533 551 b 529 568 532 556 529 563 b 446 542 508 551 475 542 b 300 679 360 542 300 592 b 446 817 300 764 358 817 b 514 806 471 817 494 813 l 514 826 b 494 869 514 856 508 869 b 475 838 481 869 475 857 l 315 838 b 493 981 318 932 375 981 b 672 825 614 981 672 918 l 672 621 b 688 551 672 599 676 572 z m 486 644 b 511 679 504 644 511 657 b 486 713 511 701 504 713 b 460 679 467 713 460 701 b 486 644 460 657 468 644 z m 924 551 l 924 567 b 843 542 903 551 874 542 b 688 761 744 542 688 614 b 843 981 688 907 744 981 b 911 967 871 981 894 976 l 911 1129 l 1072 1129 l 1072 586 l 1225 649 l 1271 542 l 79 56 l 31 165 l 985 551 z m 881 656 b 911 761 903 656 911 683 b 881 865 911 838 903 865 b 849 761 857 865 849 838 b 881 656 849 685 857 656 z m 265 854 b 178 753 208 854 178 821 l 178 551 l 17 551 l 17 971 l 178 971 l 178 942 b 267 981 197 967 229 981 b 311 975 282 981 297 979 l 310 853 b 265 854 292 854 279 854 z "},"㏛":{"ha":1333,"x_min":0,"x_max":0,"o":"m 117 225 l 117 232 l 346 232 l 346 213 b 410 136 346 169 372 136 b 469 204 446 136 469 164 b 396 300 469 257 447 286 b 340 314 379 304 358 308 b 117 556 194 354 117 418 b 396 803 117 697 215 803 b 674 565 578 803 674 699 l 674 553 l 449 553 l 449 567 b 394 635 449 604 426 635 b 342 568 358 635 342 606 b 424 488 342 515 372 501 b 488 472 447 481 468 478 b 703 226 635 431 703 369 b 410 -28 703 78 594 -28 b 117 225 218 -28 117 81 z m 1156 597 b 992 369 1053 597 992 519 l 992 -8 l 761 -8 l 761 783 l 992 783 l 992 692 b 1160 803 1021 765 1075 803 b 1218 793 1182 803 1203 800 l 1215 594 b 1156 597 1197 597 1178 597 z "},"㎩":{"ha":1333,"x_min":0,"x_max":0,"o":"m 414 374 l 304 374 l 304 -8 l 69 -8 l 69 1100 l 414 1100 b 704 736 600 1100 704 968 b 414 374 704 504 600 374 z m 304 588 l 386 588 b 469 736 440 588 469 636 b 386 886 469 839 440 886 l 304 886 z m 1061 -8 b 1051 26 1057 0 1054 14 b 917 -28 1022 -6 974 -28 b 699 221 786 -28 699 64 b 917 474 699 379 785 474 b 1046 431 967 474 1015 457 l 1046 518 b 996 624 1046 585 1031 624 b 946 536 964 624 949 592 l 725 536 b 996 803 728 693 819 803 b 1268 515 1175 803 1268 682 l 1268 110 b 1282 -8 1268 64 1272 15 z m 983 131 b 1046 221 1025 131 1046 161 b 983 313 1046 282 1025 313 b 919 221 943 313 919 282 b 983 131 919 161 943 131 z "},"㎪":{"ha":1333,"x_min":0,"x_max":0,"o":"m 657 588 l 690 588 b 731 736 717 588 731 636 b 690 886 731 839 717 886 l 657 886 z m 1143 -8 b 1138 11 1140 -3 1139 4 b 1054 -28 1121 -11 1088 -28 b 896 221 958 -28 896 56 b 1054 474 896 388 958 474 b 1129 453 1083 474 1110 467 l 1129 518 b 1106 624 1129 585 1122 624 b 1083 536 1092 624 1085 592 l 913 536 b 1106 803 915 693 979 803 b 1300 515 1232 803 1300 682 l 1300 110 b 1308 -8 1300 64 1301 15 z m 1097 131 b 1128 221 1118 131 1128 161 b 1097 313 1128 282 1118 313 b 1068 221 1076 313 1068 282 b 1097 131 1068 161 1076 131 z m 290 -8 l 218 269 l 218 -8 l 38 -8 l 38 1100 l 218 1100 l 218 506 l 279 783 l 465 783 l 353 403 l 476 -4 l 476 1100 l 707 1100 b 913 736 838 1100 913 968 b 707 374 913 504 838 374 l 657 374 l 657 -8 z "},"㎫":{"ha":1333,"x_min":0,"x_max":0,"o":"m 776 374 l 736 374 l 736 -8 l 574 -8 l 574 1100 l 776 1100 b 956 736 889 1100 956 968 b 776 374 956 504 889 374 z m 736 588 l 761 588 b 793 736 782 588 793 636 b 761 886 793 833 782 886 l 736 886 z m 1163 -8 b 1160 8 1161 -4 1160 3 b 1086 -28 1144 -14 1118 -28 b 946 221 1003 -28 946 56 b 1086 474 946 388 1001 474 b 1149 457 1111 474 1133 468 l 1149 518 b 1131 624 1149 585 1143 624 b 1114 536 1119 624 1115 592 l 960 536 b 1131 803 961 693 1018 803 b 1303 515 1244 803 1303 682 l 1303 110 b 1311 -8 1303 64 1304 15 z m 1124 131 b 1149 221 1140 131 1149 161 b 1124 313 1149 282 1140 313 b 1100 221 1108 313 1100 282 b 1124 131 1100 161 1108 131 z m 339 -8 l 218 -8 l 175 367 l 175 -8 l 31 -8 l 31 1100 l 175 1100 l 278 428 l 381 1100 l 524 1100 l 524 -8 l 381 -8 l 381 367 z "},"㎬":{"ha":1333,"x_min":0,"x_max":0,"o":"m 753 374 l 708 374 l 708 -8 l 543 -8 l 543 1100 l 753 1100 b 938 736 869 1100 938 968 b 753 374 938 504 869 374 z m 708 588 l 736 588 b 772 736 760 588 772 636 b 736 886 772 833 760 886 l 708 886 z m 1154 -8 b 1149 8 1151 -4 1150 3 b 1074 -28 1133 -11 1104 -28 b 932 221 989 -28 932 56 b 1074 474 932 388 989 474 b 1140 454 1101 474 1124 467 l 1140 518 b 1121 624 1140 585 1135 624 b 1103 536 1110 624 1104 592 l 946 536 b 1121 803 949 693 1006 803 b 1297 515 1238 803 1297 682 l 1297 110 b 1304 -8 1297 64 1299 15 z m 1114 131 b 1140 221 1133 131 1140 161 b 1114 313 1140 282 1133 313 b 1089 221 1096 313 1089 282 b 1114 131 1089 161 1096 131 z m 32 546 b 269 1119 32 883 90 1119 b 501 714 414 1119 497 963 l 328 714 b 269 904 325 833 306 904 b 207 546 228 904 207 836 b 272 185 207 261 226 185 b 333 397 310 185 331 278 l 250 397 l 250 582 l 501 582 l 501 -8 l 361 -8 l 358 31 b 254 -28 335 -4 296 -28 b 32 546 97 -28 32 203 z "},"㏝":{"ha":1333,"x_min":0,"x_max":0,"o":"m 979 38 l 979 -8 l 793 -8 l 793 1100 l 979 1100 l 979 736 b 1101 803 1007 775 1050 803 b 1306 388 1231 803 1306 664 b 1101 -28 1306 108 1231 -28 b 979 38 1050 -28 1007 -1 z m 1049 153 b 1121 388 1100 153 1121 214 b 1049 619 1121 557 1100 619 b 979 388 1000 619 979 556 b 1049 153 979 215 999 153 z m 301 1100 l 468 1100 l 531 499 l 582 1100 l 765 1100 l 631 -8 l 454 -8 l 386 551 l 315 -8 l 140 -8 l 6 1100 l 189 1100 l 239 499 z "},"㏐":{"ha":1333,"x_min":0,"x_max":0,"o":"m 936 443 l 936 -8 l 704 -8 l 704 497 b 667 619 704 581 694 619 b 607 443 628 619 607 556 l 607 -8 l 376 -8 l 376 783 l 596 783 l 596 746 b 728 803 628 779 678 803 b 892 717 794 803 860 768 b 1056 803 928 771 985 803 b 1267 496 1190 803 1267 699 l 1267 -8 l 1035 -8 l 1035 497 b 997 619 1035 581 1024 619 b 936 443 958 619 936 556 z m 299 -8 l 68 -8 l 68 1100 l 299 1100 z "},"㏓":{"ha":1333,"x_min":0,"x_max":0,"o":"m 383 -8 l 138 -8 l 138 1100 l 383 1100 z m 957 -8 l 826 263 l 694 -8 l 439 -8 l 665 397 l 456 783 l 711 783 l 826 531 l 942 783 l 1197 783 l 988 397 l 1213 -8 z "},"㏃":{"ha":1333,"x_min":0,"x_max":0,"o":"m 436 776 b 358 900 436 868 410 900 l 290 900 l 290 653 l 358 653 b 436 776 410 653 436 685 z m 394 -10 l 65 -10 l 65 1101 l 382 1101 b 657 797 565 1101 657 996 b 535 569 657 683 611 607 l 533 569 b 679 315 624 532 679 438 b 394 -10 679 99 581 -10 z m 454 328 b 374 467 454 426 428 467 l 290 467 l 290 190 l 374 190 b 454 328 428 190 454 231 z m 1065 746 l 1065 783 l 1278 783 l 1278 -354 l 1065 -354 l 1065 28 b 935 -29 1035 -4 985 -29 b 707 388 790 -29 707 110 b 935 803 707 664 790 803 b 1065 746 992 803 1035 785 z m 1065 388 b 993 619 1065 557 1043 619 b 921 388 940 619 921 556 b 993 153 921 218 940 153 b 1065 388 1044 153 1065 215 z "},"㏉":{"ha":1333,"x_min":0,"x_max":0,"o":"m 42 546 b 375 1121 42 874 124 1121 b 701 715 578 1121 694 963 l 481 715 b 375 906 478 833 443 906 b 263 546 301 906 263 836 b 378 185 263 261 299 185 b 489 399 449 185 485 274 l 358 399 l 358 583 l 701 583 l 701 -10 l 531 -10 l 521 61 b 354 -29 485 7 426 -29 b 42 546 129 -29 42 214 z m 906 -85 l 922 -11 l 725 783 l 938 783 l 1025 332 l 1110 783 l 1324 783 l 1106 -119 b 885 -354 1063 -299 1008 -354 b 790 -347 861 -354 828 -354 l 790 -171 l 851 -171 b 906 -85 872 -171 890 -153 z "},"㏜":{"ha":1333,"x_min":0,"x_max":0,"o":"m 685 314 b 368 -29 685 114 575 -29 b 53 307 167 -29 53 111 l 53 328 l 279 328 l 279 303 b 368 176 279 228 311 176 b 458 303 426 176 458 228 b 361 440 458 375 429 421 b 286 461 340 446 307 456 b 47 794 143 499 47 601 b 351 1121 47 979 158 1121 b 654 804 549 1121 654 974 l 654 786 l 426 786 l 426 804 b 351 914 426 869 400 914 b 274 804 301 914 274 869 b 374 675 274 733 306 694 b 447 654 397 668 424 661 b 685 314 597 613 685 501 z m 1108 -10 l 888 -10 l 685 783 l 901 783 l 999 326 l 1093 783 l 1310 783 z "},"㏆":{"ha":1333,"x_min":0,"x_max":0,"o":"m 31 839 b 83 1063 31 928 42 1004 b 251 1139 119 1113 175 1139 b 468 910 386 1139 464 1050 l 313 910 b 251 1004 310 968 290 1004 b 206 976 232 1004 215 993 b 186 839 192 954 186 915 b 207 699 186 761 192 722 b 251 671 218 682 233 671 b 313 767 290 671 310 707 l 468 767 b 251 538 464 626 386 538 b 83 614 176 538 118 565 b 31 839 42 671 31 749 z m 563 -6 l 563 536 l 138 -54 l 21 28 l 813 1115 l 925 1040 l 589 572 l 719 572 l 719 283 l 774 422 l 940 422 l 839 215 l 956 -6 l 788 -6 l 719 143 l 719 -6 z m 1139 208 b 1111 308 1139 281 1131 308 b 1081 208 1090 308 1081 281 b 1111 107 1081 135 1090 107 b 1139 208 1131 107 1139 135 z m 1294 422 l 1294 -11 b 1118 -190 1294 -115 1240 -190 b 940 -37 1011 -190 950 -136 l 1099 -37 b 1118 -72 1100 -62 1108 -72 b 1139 -21 1133 -72 1139 -56 l 1139 1 b 1075 -15 1121 -10 1099 -15 b 925 208 981 -15 925 58 b 1075 432 925 357 981 432 b 1147 407 1103 432 1129 422 l 1147 422 z "},"Æ":{"ha":1456,"x_min":0,"x_max":0,"o":"m 692 -8 l 692 186 l 372 186 l 281 -8 l -15 -8 l 522 1100 l 1397 1100 l 1397 886 l 956 886 l 956 665 l 1340 665 l 1340 451 l 956 451 l 956 203 l 1406 203 l 1406 -8 z m 465 392 l 692 392 l 692 876 z "},"Ð":{"ha":1022,"x_min":0,"x_max":0,"o":"m 4 624 l 99 624 l 99 1100 l 522 1100 b 967 546 882 1100 967 864 b 522 -8 967 221 881 -8 l 99 -8 l 99 465 l 4 465 z m 704 546 b 511 892 704 828 644 892 l 364 892 l 364 624 l 510 624 l 510 465 l 364 465 l 364 197 l 511 197 b 704 546 646 197 704 265 z "},"ª":{"ha":714,"x_min":0,"x_max":0,"o":"m 413 578 b 267 504 393 533 342 504 b 74 688 150 504 74 574 b 267 871 74 800 150 871 b 413 797 342 871 393 842 l 413 910 b 358 969 413 951 394 969 b 306 915 324 969 308 951 l 104 915 b 358 1113 113 1036 197 1113 b 613 908 525 1113 613 1031 l 613 600 b 628 518 613 569 619 538 l 425 518 b 413 578 418 532 413 556 z m 267 688 b 339 636 267 651 294 636 b 413 688 385 636 413 651 b 339 740 413 722 385 740 b 267 688 294 740 267 722 z m 53 293 l 53 439 l 658 439 l 658 293 z "},"Ħ":{"ha":1018,"x_min":0,"x_max":0,"o":"m 654 -8 l 654 451 l 364 451 l 364 -8 l 99 -8 l 99 797 l 4 797 l 4 956 l 99 956 l 99 1100 l 364 1100 l 364 956 l 654 956 l 654 1100 l 918 1100 l 918 956 l 1014 956 l 1014 797 l 918 797 l 918 -8 z m 364 665 l 654 665 l 654 797 l 364 797 z "},"Ĳ":{"ha":1296,"x_min":0,"x_max":0,"o":"m 340 1100 l 340 -8 l 75 -8 l 75 1100 z m 846 -28 b 467 325 601 -28 467 106 l 467 357 l 732 357 b 846 185 732 244 764 185 b 960 404 943 185 960 265 l 960 1100 l 1224 1100 l 1224 325 b 846 -28 1224 106 1090 -28 z "},"Ŀ":{"ha":807,"x_min":0,"x_max":0,"o":"m 76 -10 l 76 1101 l 340 1101 l 340 204 l 789 204 l 789 -10 z m 685 696 l 685 479 l 464 479 l 464 696 z "},"Ł":{"ha":833,"x_min":0,"x_max":0,"o":"m 100 -8 l 100 350 l 0 294 l 0 482 l 100 536 l 100 1100 l 365 1100 l 365 675 l 601 801 l 601 615 l 365 488 l 365 203 l 814 203 l 814 -8 z "},"Ø":{"ha":1019,"x_min":0,"x_max":0,"o":"m 781 1151 l 938 1151 l 843 988 b 965 546 939 879 965 722 b 510 -28 965 211 851 -28 b 283 19 421 -28 346 -11 l 238 -60 l 81 -60 l 175 103 b 54 546 88 217 54 357 b 510 1119 54 872 165 1119 b 736 1071 597 1119 674 1101 z m 701 546 b 689 719 701 619 699 675 l 399 218 b 510 185 428 196 464 185 b 701 546 636 185 701 251 z m 510 904 b 318 507 372 904 318 829 b 331 369 321 450 324 407 l 618 871 b 510 904 590 893 554 904 z "},"Œ":{"ha":1426,"x_min":0,"x_max":0,"o":"m 58 546 b 503 1100 58 867 144 1100 l 1365 1100 l 1365 886 l 924 886 l 924 665 l 1308 665 l 1308 451 l 924 451 l 924 203 l 1374 203 l 1374 -8 l 503 -8 b 58 546 144 -8 58 221 z m 322 546 b 515 197 322 265 378 197 l 660 197 l 660 892 l 515 892 b 322 546 381 892 322 828 z "},"º":{"ha":714,"x_min":0,"x_max":0,"o":"m 278 808 b 357 649 278 681 297 649 b 435 807 415 649 435 686 l 435 808 b 357 968 435 938 410 968 b 278 808 301 968 278 942 z m 78 807 b 357 1113 78 999 160 1113 b 635 807 550 1113 635 1001 b 357 504 635 618 553 504 b 78 807 156 504 78 621 z m 53 285 l 53 439 l 658 439 l 658 285 z "},"Þ":{"ha":939,"x_min":0,"x_max":0,"o":"m 340 182 l 340 -8 l 75 -8 l 75 1100 l 340 1100 l 340 908 l 533 908 b 906 546 772 908 906 776 b 533 182 906 313 772 182 z m 340 396 l 494 396 b 642 546 592 396 642 443 b 494 694 642 647 592 694 l 340 694 z "},"Ŧ":{"ha":871,"x_min":0,"x_max":0,"o":"m 303 478 l 163 478 l 163 638 l 303 638 l 303 886 l 17 886 l 17 1100 l 854 1100 l 854 886 l 568 886 l 568 638 l 708 638 l 708 478 l 568 478 l 568 -8 l 303 -8 z "},"Ŋ":{"ha":986,"x_min":0,"x_max":0,"o":"m 649 25 l 335 647 l 335 -10 l 76 -10 l 76 1101 l 322 1101 l 650 443 l 650 1101 l 911 1101 l 911 -78 b 613 -354 911 -256 817 -354 b 501 -349 582 -354 526 -353 l 501 -162 l 550 -162 b 649 -58 618 -162 649 -133 z "},"㉠":{"ha":1333,"x_min":0,"x_max":0,"o":"m 31 546 b 667 1179 31 906 310 1179 b 1303 546 1024 1179 1303 906 b 667 -87 1303 186 1024 -87 b 31 546 310 -87 31 186 z m 169 546 b 667 40 169 256 379 40 b 1164 546 954 40 1164 256 b 667 1053 1164 836 954 1053 b 169 546 379 1053 169 836 z m 314 832 l 994 832 l 994 263 l 778 263 l 778 657 l 314 657 z "},"㉡":{"ha":1333,"x_min":0,"x_max":0,"o":"m 31 546 b 667 1179 31 906 310 1179 b 1303 546 1024 1179 1303 906 b 667 -87 1303 186 1024 -87 b 31 546 310 -87 31 186 z m 169 546 b 667 40 169 256 379 40 b 1164 546 954 40 1164 256 b 667 1053 1164 836 954 1053 b 169 546 379 1053 169 836 z m 1018 263 l 338 263 l 338 832 l 553 832 l 553 439 l 1018 439 z "},"㉢":{"ha":1333,"x_min":0,"x_max":0,"o":"m 31 546 b 667 1179 31 906 310 1179 b 1303 546 1024 1179 1303 906 b 667 -87 1303 186 1024 -87 b 31 546 310 -87 31 186 z m 169 546 b 667 40 169 256 379 40 b 1164 546 954 40 1164 256 b 667 1053 1164 836 954 1053 b 169 546 379 1053 169 836 z m 546 439 l 1011 439 l 1011 263 l 331 263 l 331 832 l 1001 832 l 1001 657 l 546 657 z "},"㉣":{"ha":1333,"x_min":0,"x_max":0,"o":"m 31 546 b 667 1179 31 906 310 1179 b 1303 546 1024 1179 1303 906 b 667 -87 1303 186 1024 -87 b 31 546 310 -87 31 186 z m 169 546 b 667 40 169 256 379 40 b 1164 546 954 40 1164 256 b 667 1053 1164 836 954 1053 b 169 546 379 1053 169 836 z m 551 425 l 1015 425 l 1015 254 l 335 254 l 335 635 l 779 635 l 779 672 l 335 672 l 335 844 l 996 844 l 996 465 l 551 465 z "}}}
